<svg width="82" height="61" viewBox="0 0 82 61" fill="none" xmlns="http://www.w3.org/2000/svg">
<path id="&#209;&#129;&#209;&#130;&#209;&#128;&#208;&#181;&#208;&#187;&#208;&#186;&#208;&#176;" d="M1.8349 7.54374C1.04771 7.80186 0.61882 8.64926 0.876946 9.43644C1.13507 10.2236 1.98246 10.6525 2.76965 10.3944L1.8349 7.54374ZM70.3103 59.7771C70.9411 60.3141 71.8878 60.2381 72.4248 59.6074L81.1764 49.3282C81.7134 48.6974 81.6374 47.7507 81.0066 47.2137C80.3758 46.6767 79.4291 46.7527 78.8921 47.3834L71.113 56.5204L61.9759 48.7413C61.3452 48.2043 60.3985 48.2803 59.8614 48.911C59.3244 49.5418 59.4004 50.4885 60.0312 51.0256L70.3103 59.7771ZM2.76965 10.3944C16.5508 5.87544 27.3639 3.65627 35.8898 3.57988C44.3824 3.50379 50.5125 5.55202 55.0784 9.48887C59.6753 13.4525 62.872 19.4882 65.1613 27.7508C67.4502 36.0125 68.7916 46.3481 69.7875 58.755L72.7779 58.5149C71.7787 46.0669 70.4205 35.4975 68.0523 26.9498C65.6844 18.4032 62.2663 11.7253 57.0375 7.21683C51.7776 2.68161 44.8711 0.499293 35.8629 0.580002C26.888 0.660413 15.7362 2.98539 1.8349 7.54374L2.76965 10.3944Z" fill="black"/>
</svg>
