<svg width="80" height="77" viewBox="0 0 80 77" fill="none" xmlns="http://www.w3.org/2000/svg">
<path id="&#209;&#129;&#209;&#130;&#209;&#128;&#208;&#181;&#208;&#187;&#208;&#186;&#208;&#176;" d="M1.10925 71.3587C0.471481 70.83 0.383073 69.8844 0.911787 69.2466C1.4405 68.6089 2.38613 68.5205 3.0239 69.0492L1.10925 71.3587ZM68.0255 1.15606C68.6544 0.616805 69.6014 0.689474 70.1406 1.31836L78.9282 11.5667C79.4674 12.1956 79.3948 13.1426 78.7659 13.6818C78.137 14.2211 77.19 14.1484 76.6508 13.5195L68.8396 4.40986L59.73 12.221C59.1011 12.7603 58.1541 12.6876 57.6149 12.0587C57.0756 11.4298 57.1483 10.4829 57.7772 9.94362L68.0255 1.15606ZM3.0239 69.0492C7.82098 73.026 13.8706 74.0434 20.4658 72.4818C27.0948 70.9123 34.2219 66.7374 40.9099 60.4143C54.2808 47.7732 65.6165 26.8067 67.5063 2.17999L70.4975 2.40953C68.5502 27.7864 56.8783 49.446 42.9709 62.5943C36.0199 69.166 28.4401 73.6767 21.157 75.4011C13.8401 77.1336 6.77235 76.0535 1.10925 71.3587L3.0239 69.0492Z" fill="black"/>
</svg>
