<svg xmlns="http://www.w3.org/2000/svg" width="92" height="96" viewBox="0 0 92 96" fill="none">
  <path d="M91.5158 2.80735C91.7046 2.00072 91.2037 1.19378 90.3971 1.005C89.5905 0.816211 88.7835 1.31707 88.5948 2.1237L91.5158 2.80735ZM1.2061 83.091C0.609743 83.666 0.592447 84.6156 1.16747 85.212L10.538 94.9302C11.113 95.5265 12.0626 95.5438 12.659 94.9688C13.2553 94.3938 13.2726 93.4442 12.6976 92.8478L4.36824 84.2094L13.0066 75.8801C13.603 75.3051 13.6203 74.3555 13.0453 73.7591C12.4702 73.1628 11.5207 73.1455 10.9243 73.7205L1.2061 83.091ZM88.5948 2.1237C83.472 24.012 71.7444 44.3639 56.3401 59.1373C40.9329 73.9136 21.9398 83.0292 2.27459 82.6711L2.21995 85.6706C22.8703 86.0467 42.5929 76.4782 58.4166 61.3025C74.2433 46.124 86.2619 25.2561 91.5158 2.80735L88.5948 2.1237Z" fill="black"/>
</svg>