<svg width="197" height="147" viewBox="0 0 197 147" fill="none" xmlns="http://www.w3.org/2000/svg">
<g clip-path="url(#clip0_163_9139)">
<path d="M94 112H17C15.7524 112 15 111.247 15 110V2C15 0.752696 15.7524 0 17 0H94C95.2476 0 96 0.752696 96 2V110C96 111.247 95.2476 112 94 112ZM17 0C15.8079 0 15 0.808132 15 2V110C15 111.192 15.8079 112 17 112H94C95.1921 112 96 111.192 96 110V2C96 0.808132 95.1921 0 94 0H17Z" fill="#EBEBEB"/>
<path d="M179 112H102C100.752 112 100 111.247 100 110V2C100 0.752696 100.752 0 102 0H179C180.248 0 181 0.752696 181 2V110C181 111.247 180.248 112 179 112ZM102 0C100.808 0 100 0.808132 100 2V110C100 111.192 100.808 112 102 112H179C180.192 112 181 111.192 181 110V2C181 0.808132 180.192 0 179 0H102Z" fill="#EBEBEB"/>
<path d="M35.5 83.5L35.5 129.5H30.5L30.5 83.5H35.5Z" fill="#F0F0F0" stroke="black"/>
<path d="M36.5 129.5V83.5H88.5V129.5H36.5Z" fill="#F5F5F5" stroke="black"/>
<path d="M43.5 125.5V101.5H88.5V125.5H43.5Z" fill="#FAFAFA" stroke="black"/>
<path d="M43.5 97.5V90.5H88.5V97.5H43.5Z" fill="#FAFAFA" stroke="black"/>
<g style="mix-blend-mode:multiply" opacity="0.7">
<path d="M43 126V126V101V101V126Z" stroke="black"/>
</g>
<g style="mix-blend-mode:multiply" opacity="0.7">
<path d="M43 98V98V90V90V98Z" stroke="black"/>
</g>
<g style="mix-blend-mode:multiply" opacity="0.7">
<mask id="path-9-inside-1_163_9139" fill="white">
<path d="M30 86L89 86V85L30 85V86Z"/>
</mask>
<path d="M30 86L89 86V85L30 85V86Z" fill="#E6E6E6"/>
<path d="M89 86V87H90V86H89ZM30 86H29V87H30V86ZM30 85V84H29V85H30ZM89 85H90V84H89V85ZM89 85L30 85V87L89 87V85ZM31 86V85H29V86H31ZM30 86L89 86V84L30 84V86ZM88 85V86H90V85H88Z" fill="black" mask="url(#path-9-inside-1_163_9139)"/>
</g>
<path d="M35.5 82.5V84.5H29.5V82.5H35.5Z" fill="#F0F0F0" stroke="black"/>
<path d="M36.5 84.5V82.5H88.5V84.5H36.5Z" fill="#F5F5F5" stroke="black"/>
<path d="M51.9998 73C51.6632 72.5597 51.0527 71.5608 50.9998 71C50.9506 70.4355 50.8523 70.5495 50.9998 70C51.2872 68.8973 52.2963 67.8543 52.9998 67C53.3477 66.5634 53.6102 66.3839 53.9998 66C54.2078 65.8231 53.788 65.1694 53.9998 65C54.2116 64.8269 54.7691 65.1468 54.9998 65C55.4574 64.7027 56.5157 64.2484 56.9998 64C57.4914 63.7629 57.4892 63.1882 57.9998 63C57.6443 63.4215 57.378 63.6274 56.9998 64C56.6178 64.3688 56.3818 64.6425 55.9998 65C55.6254 65.3613 55.3628 65.6387 54.9998 66C54.8258 66.1882 54.17 66.8081 53.9998 67C53.8334 67.1919 54.1397 67.793 53.9998 68C53.3568 68.7791 52.412 69.108 51.9998 70C51.788 70.4479 52.1095 70.5107 51.9998 71C51.8863 71.493 51.9241 72.4618 51.9998 73Z" fill="#E6E6E6"/>
<path d="M51.5121 70.8895C51.5071 70.9113 51.5024 70.9337 51.4979 70.9566C51.4978 70.9559 51.4978 70.9552 51.4977 70.9544C51.4839 70.797 51.4664 70.6838 51.4505 70.5948C51.4431 70.5538 51.4379 70.5261 51.434 70.5055C51.428 70.4742 51.4252 70.4594 51.423 70.4392C51.4229 70.4386 51.4228 70.4379 51.4227 70.4372C51.4217 70.4295 51.4195 70.4136 51.4287 70.3601C51.4375 70.475 51.4643 70.5679 51.4829 70.6292C51.4863 70.6405 51.4895 70.651 51.4925 70.6609C51.5243 70.7645 51.5334 70.7942 51.5121 70.8895ZM51.5121 70.8895C51.5123 70.889 51.5124 70.8884 51.5125 70.8879L51.9998 71M51.5121 70.8895C51.5121 70.8899 51.512 70.8903 51.5119 70.8906L51.9998 71M51.9998 71C52.0506 70.7734 52.0089 70.6382 51.9705 70.5139C51.9261 70.3699 51.8861 70.2404 51.9998 70L51.9288 71.9795C51.9243 71.6096 51.9432 71.2457 51.9998 71ZM54.7383 65.5362C54.7438 65.5366 54.7495 65.537 54.7554 65.5373C54.7199 65.5729 54.6839 65.609 54.6471 65.6456L54.6397 65.6529L54.6326 65.6606C54.6137 65.6811 54.5873 65.7083 54.5551 65.7408C54.5479 65.66 54.5317 65.577 54.5152 65.5047C54.5841 65.5177 54.6624 65.5304 54.7383 65.5362ZM53.3908 67.3116C53.4111 67.2862 53.4308 67.2619 53.4501 67.2387C53.4559 67.3645 53.4808 67.4945 53.498 67.5845L53.4988 67.5883C53.5147 67.6717 53.5259 67.7303 53.5321 67.7765C53.3247 68.0049 53.0876 68.1887 52.8178 68.3979C52.7484 68.4517 52.6769 68.5071 52.6031 68.5655C52.3507 68.7651 52.0795 68.9946 51.8502 69.2914C51.9647 69.0983 52.0979 68.9029 52.2449 68.7054C52.4923 68.3729 52.7551 68.064 53.0141 67.7595C53.1396 67.612 53.2642 67.4655 53.3858 67.3178L53.3858 67.3179L53.3908 67.3116ZM53.5372 67.8484C53.537 67.8482 53.5369 67.8448 53.5376 67.8389C53.5377 67.8456 53.5373 67.8486 53.5372 67.8484ZM54.4381 65.1562C54.4383 65.1564 54.4385 65.1594 54.4382 65.1649C54.4379 65.1588 54.438 65.156 54.4381 65.1562ZM54.1864 65.4471C54.1824 65.4475 54.1802 65.4475 54.1801 65.4474C54.18 65.4473 54.182 65.447 54.1864 65.4471Z" stroke="black"/>
<path d="M42 71C42.1631 70.5298 42.0074 70.4442 42 70C42.0148 69.7779 42.0185 69.211 42 69C41.9407 68.7927 42.0853 68.1925 42 68C41.6997 67.2189 41.6413 66.6108 41 66C40.8443 65.8445 40.1705 66.1481 40 66C39.8295 65.8519 40.1928 65.1259 40 65C39.6219 64.7409 38.4041 65.2406 38 65C37.8035 64.8704 38.1965 64.137 38 64C37.8072 63.863 37.2076 64.1222 37 64C36.5996 63.7372 36.3929 63.3184 36 63C36.4893 63.0629 36.5181 62.8852 37 63C37.241 63.0555 37.7702 63.9075 38 64C38.2298 64.0851 38.7702 63.9037 39 64C39.1112 64.0518 39.8888 63.9408 40 64C39.7813 63.8741 40.2187 64.1185 40 64C40.2224 64.1185 40.7961 64.8482 41 65C40.8109 64.8186 41.1965 65.1629 41 65C41.7451 65.7034 42.8147 66.9153 43 68C43.0371 68.1296 42.9963 68.863 43 69C43 69.137 43.0111 68.8667 43 69C42.9592 69.2702 43.0964 69.752 43 70C42.8258 70.4961 42.3892 70.6853 42 71Z" fill="#E6E6E6"/>
<path d="M38.5 64.5586C38.5043 64.5394 38.5088 64.519 38.5133 64.4977C38.5224 64.4967 38.5313 64.4956 38.54 64.4946C38.5463 64.4938 38.5525 64.4931 38.5585 64.4924C38.6587 64.4806 38.7319 64.4727 38.7915 64.4712C38.8124 64.4707 38.8261 64.4712 38.8338 64.4717C38.8691 64.4845 38.9034 64.4931 38.9338 64.4989L38.933 64.499C38.7677 64.5247 38.6246 64.5468 38.5 64.5586ZM40.5198 65.4869C40.5327 65.4202 40.5456 65.3448 40.5526 65.2705C40.5926 65.3096 40.6337 65.3474 40.6735 65.3794C40.7001 65.4047 40.7272 65.4306 40.7546 65.4572C40.6752 65.4624 40.5926 65.4745 40.5198 65.4869ZM42.5077 68.5394C42.5093 68.5212 42.511 68.5023 42.5127 68.4828C42.5127 68.4837 42.5127 68.4846 42.5126 68.4855C42.5111 68.5508 42.5089 68.6236 42.5067 68.6944C42.5035 68.8012 42.5003 68.9036 42.4999 68.9693C42.4998 68.9706 42.4996 68.9719 42.4995 68.9732C42.499 68.9674 42.4986 68.9617 42.4981 68.9563L42.4939 68.9085L42.4858 68.8803C42.4856 68.8736 42.4845 68.8507 42.4865 68.8053C42.4893 68.7417 42.4958 68.6697 42.5038 68.5821C42.5051 68.5683 42.5064 68.5541 42.5077 68.5394ZM42.5058 69.8901C42.5102 69.7636 42.5127 69.6031 42.5125 69.4463C42.5138 69.4595 42.5151 69.4725 42.5163 69.4851C42.5187 69.5098 42.521 69.5332 42.523 69.5544C42.5313 69.6445 42.5359 69.7137 42.535 69.7692C42.5344 69.8051 42.5316 69.8224 42.5309 69.8267L42.5283 69.8343C42.5215 69.8535 42.514 69.8721 42.5058 69.8901ZM36.6752 62.9609C36.7605 62.9582 36.8616 62.967 37 63C37.1208 63.0278 37.3141 63.2559 37.5058 63.4881C37.4792 63.4922 37.4542 63.4963 37.4313 63.5L37.4256 63.5009C37.3268 63.5169 37.2588 63.5277 37.2048 63.532C37.117 63.4634 37.0349 63.3777 36.9384 63.2671C36.9379 63.2665 36.9374 63.2659 36.9368 63.2652C36.9179 63.2434 36.8983 63.2207 36.8781 63.1969C36.8645 63.1809 36.8506 63.1644 36.8362 63.1474C36.7875 63.0898 36.734 63.0265 36.6752 62.9609ZM40 64L39.7689 64.4267C39.7642 64.4264 39.7595 64.4261 39.7549 64.4259L40 64L40 64ZM40.6652 65.3547C40.6651 65.3546 40.665 65.3545 40.665 65.3544C40.6643 65.3535 40.6635 65.3526 40.6627 65.3515L41 65L40.6652 65.3547ZM38.4433 64.8477C38.4433 64.8493 38.4433 64.8502 38.4433 64.8502C38.4433 64.8503 38.4432 64.8494 38.4433 64.8477Z" stroke="black"/>
<path d="M43 71C43.2088 69.9736 43.1556 68.9384 43 68C42.8519 67.0616 42.4707 65.8174 42 65C41.8595 64.8057 41.1443 64.1943 41 64C40.8292 63.8204 40.167 63.187 40 63C39.6432 62.6518 39.3606 62.3666 39 62C38.609 61.6628 38.3796 61.3886 38 61C38.5163 61.154 39.4951 61.7911 40 62C40.4745 62.2529 40.5483 61.6957 41 62C41.2126 62.1686 41.7874 62.824 42 63C42.186 63.2053 42.8254 63.7874 43 64V65C43.558 65.9604 44.0304 66.8966 44 68C43.9734 69.096 43.6909 70.1752 43 71Z" fill="#E6E6E6"/>
<path d="M40.3492 62.6422C40.3233 62.6169 40.2978 62.5919 40.2726 62.5673C40.3037 62.5661 40.3348 62.5632 40.3659 62.5586C40.531 62.5342 40.6661 62.4629 40.7258 62.4314C40.7278 62.4303 40.7297 62.4293 40.7316 62.4284C40.8159 62.5056 40.9607 62.6557 41.1377 62.8419C41.1501 62.8548 41.1626 62.868 41.1752 62.8813C41.3377 63.0522 41.5252 63.2495 41.6527 63.3609C41.7508 63.4656 41.9175 63.6263 42.0773 63.7801C42.1042 63.8061 42.1309 63.8318 42.1571 63.857C42.293 63.9882 42.4134 64.1058 42.5 64.1945V64.8699C42.478 64.8293 42.4558 64.7895 42.4333 64.7505L42.4204 64.728L42.4052 64.7071C42.3416 64.6191 42.2403 64.5162 42.1556 64.4328C42.0615 64.3402 41.95 64.2354 41.8438 64.1356L41.8365 64.1287C41.7307 64.0293 41.6303 63.935 41.5472 63.8536C41.5048 63.8122 41.4697 63.7768 41.4425 63.7478C41.429 63.7335 41.4186 63.722 41.411 63.7133C41.4041 63.7053 41.4012 63.7016 41.4012 63.7016L41.3833 63.6775L41.3623 63.6554C41.2842 63.5733 41.118 63.4101 40.9473 63.2426C40.9145 63.2105 40.8816 63.1781 40.849 63.1461C40.6347 62.9355 40.4427 62.745 40.3729 62.6669L40.3615 62.6541L40.3492 62.6422ZM43.0356 66.1183C43.3301 66.7307 43.5139 67.3195 43.5007 67.9637C43.4984 67.9492 43.496 67.9347 43.4936 67.9202C43.4077 67.3768 43.2477 66.7339 43.0356 66.1183Z" stroke="black"/>
<path d="M51.0001 72C50.1516 71.0429 49.5727 70.1082 49.0001 69C48.4399 67.884 48.342 66.1973 48.0001 65C47.6747 63.7988 47.0454 63.2477 47.0001 62C46.9919 60.7484 47.5429 59.1663 48.0001 58C48.1154 59.24 47.7859 60.8298 48.0001 62C48.239 63.1663 48.6912 63.853 49.0001 65C49.3214 66.147 49.6417 66.8453 50.0001 68C50.3585 69.1547 50.6582 70.7988 51.0001 72Z" fill="#E6E6E6"/>
<path d="M47.8495 63.3089C47.669 62.9155 47.5341 62.5531 47.5039 62.0656C47.5053 62.0737 47.5068 62.0819 47.5083 62.09L47.5082 62.09L47.5103 62.1003C47.6167 62.6199 47.7626 63.0495 47.9141 63.4473C47.8918 63.4001 47.8702 63.354 47.8495 63.3089ZM48.8114 66.4099C48.7632 66.1455 48.7143 65.877 48.6607 65.6162C48.7787 65.9964 48.8967 66.3331 49.0153 66.6652C49.0353 66.7213 49.0553 66.7772 49.0754 66.8331C49.2217 67.2417 49.3683 67.6512 49.5226 68.1482C49.6567 68.5803 49.7834 69.0876 49.9097 69.6244C49.7518 69.3519 49.5989 69.0696 49.4457 68.7732C49.2002 68.2831 49.046 67.6443 48.9092 66.9357C48.8761 66.7646 48.8439 66.5882 48.8114 66.4099Z" stroke="black"/>
<path d="M51.0002 71C50.0464 70.1717 49.7312 68.9932 49.0002 68C48.2809 66.9994 47.5436 66.0995 47.0002 65C46.4646 63.8968 45.3012 63.1875 45.0002 62C44.7227 60.8089 44.8517 59.2095 45.0002 58C45.395 59.1618 45.5467 59.9151 46.0002 61C46.4654 62.0849 47.4881 63.9371 48.0002 65C48.5241 66.0629 48.4568 66.9335 49.0002 68C49.5397 69.0665 50.492 69.8822 51.0002 71Z" fill="#E6E6E6"/>
<path d="M46.7945 63.7322C46.8258 63.7924 46.8568 63.8522 46.8875 63.9116C46.7409 63.7255 46.5902 63.5515 46.4487 63.3881C46.3951 63.3263 46.3429 63.266 46.2927 63.2072C45.9005 62.7473 45.6062 62.351 45.486 61.8817C45.4032 61.5241 45.3597 61.1215 45.3439 60.6993C45.4034 60.8589 45.4678 61.0228 45.5389 61.1928L45.5389 61.1928L45.5407 61.1971C45.7815 61.7587 46.1619 62.5087 46.5384 63.2377C46.6244 63.4042 46.7102 63.5697 46.7945 63.7322Z" stroke="black"/>
<path d="M52 73C50.8597 72.3611 49.9622 71.8544 49 71C48.0458 70.1341 46.8038 69.0045 46 68C45.2081 66.9878 44.5821 66.1469 44 65C43.4377 63.8416 43.1425 62.27 43 61C43.6692 62.1046 44.2873 62.984 45 64C45.7206 65.0083 46.2398 66.0225 47 67C47.7721 67.9699 49.2081 69.0263 50 70C50.7879 70.9737 51.2279 71.9686 52 73Z" fill="#E6E6E6"/>
<path d="M44.4479 64.7777C44.2419 64.3524 44.0725 63.8619 43.9341 63.3468C44.1386 63.6426 44.3468 63.9395 44.5627 64.2473L44.5907 64.2871L44.5907 64.2871L44.5932 64.2907C44.8987 64.7182 45.1667 65.1464 45.4424 65.5869C45.4819 65.6501 45.5216 65.7136 45.5616 65.7773C45.8774 66.2805 46.2086 66.7968 46.6053 67.3069L46.6053 67.307L46.6088 67.3114C47.0245 67.8335 47.609 68.3681 48.1552 68.8675L48.1582 68.8703C48.7203 69.3843 49.2448 69.8639 49.6118 70.3151C49.9146 70.6894 50.1648 71.0692 50.4122 71.4674C50.0482 71.2191 49.696 70.9492 49.334 70.6279C48.3723 69.7552 47.1655 68.6556 46.3921 67.6897C45.6061 66.685 45.006 65.8765 44.4479 64.7777Z" stroke="black"/>
<path d="M50 71C48.9292 70.4923 47.8897 69.7615 47 69C46.1141 68.2308 45.7203 66.9308 45 66C44.2797 65.0654 43.4892 64.0769 43 63C42.5262 61.9154 42.0732 61.1731 42 60C42.5893 61.0269 43.3799 62.0577 44 63C44.624 63.9346 45.3144 65.1115 46 66C46.6856 66.8885 47.2759 67.1231 48 68C48.7203 68.8808 49.2643 70.0808 50 71Z" fill="#E6E6E6"/>
<path d="M46.2131 67.0227C46.1977 66.9945 46.1823 66.9661 46.1667 66.9376C46.3362 67.1033 46.5002 67.2459 46.659 67.3829C46.6705 67.3929 46.6821 67.4029 46.6936 67.4128C47.0056 67.6818 47.2941 67.9305 47.6137 68.3175C47.8863 68.651 48.1351 69.0382 48.3925 69.4584C48.0213 69.1923 47.6636 68.9098 47.3265 68.6214C46.9558 68.2989 46.6716 67.8506 46.3748 67.3174C46.3218 67.2223 46.2681 67.1236 46.2131 67.0227Z" stroke="black"/>
<path d="M52 72C51.0901 71.4516 50.1819 70.0548 50 69C49.822 67.9337 50.539 66.9406 51 66V65C51.1657 64.7982 51.8261 64.1942 52 64C51.7978 64.1676 52.1779 63.8096 52 64C52.3962 63.6611 53.5673 63.2932 54 63C54.4448 62.722 54.5309 62.2285 55 62C54.729 62.4417 54.2992 62.6078 54 63C53.7007 63.3922 53.2952 63.623 53 64C52.7209 64.3922 52.2709 65.6154 52 66V67C51.5996 67.8111 51.0363 68.1241 51 69C50.9716 69.872 51.5228 71.1051 52 72Z" fill="#E6E6E6"/>
<path d="M51.9166 64.787C51.9941 64.7122 52.0737 64.6355 52.1462 64.5644C52.1158 64.6312 52.0861 64.6973 52.0573 64.7613C52.0518 64.7735 52.0464 64.7857 52.0409 64.7977C51.8477 65.2272 51.6915 65.5697 51.5912 65.7121L51.5 65.8416L51.5 65.1952C51.5862 65.1073 51.7074 64.989 51.8443 64.8567C51.868 64.8339 51.8922 64.8105 51.9166 64.787ZM51.5 66.1159L51.5 66.8788C51.3917 67.0795 51.2793 67.2341 51.1554 67.4045C51.0902 67.4942 51.0219 67.5883 50.9492 67.6957C50.7266 68.0251 50.5281 68.4074 50.5012 68.9613C50.4983 68.9462 50.4955 68.9312 50.4929 68.9164C50.4271 68.5199 50.522 68.1101 50.7197 67.6504C50.8182 67.4213 50.937 67.1912 51.0653 66.9512C51.0917 66.9017 51.1187 66.8515 51.146 66.8007C51.2479 66.6111 51.354 66.4137 51.4489 66.22L51.5 66.1159ZM52.2614 64.3155L52 64L52.2644 64.3092C52.2634 64.3113 52.2624 64.3134 52.2614 64.3155Z" stroke="black"/>
<path d="M51 71C50.173 70.3049 49.3358 69.0004 49 68C48.6684 66.9996 48.6766 66.0482 49 65C49.1597 64.4777 49.6766 64.4524 50 64C50.3153 63.544 50.5702 63.3531 51 63C51.8516 62.2865 52.9192 61.2832 54 61C53.2099 61.7209 52.6019 62.2534 52 63C51.693 63.3715 51.2211 63.6028 51 64C50.7708 64.3935 51.1229 65.5771 51 66C50.7421 66.8422 49.8977 67.0842 50 68C50.1024 68.9195 50.6561 70.0438 51 71Z" fill="#E6E6E6"/>
<path d="M49.4778 65.1474L49.4782 65.1462C49.5061 65.0549 49.553 65 49.7186 64.888C49.7381 64.8749 49.76 64.8606 49.7841 64.8449C49.9483 64.7378 50.2085 64.5681 50.4068 64.2908L50.4068 64.2908L50.4113 64.2843C50.4163 64.2771 50.4213 64.2699 50.4263 64.2628C50.4223 64.3173 50.4209 64.3689 50.4206 64.4157C50.4192 64.6208 50.4411 64.8447 50.4632 65.0439C50.4689 65.0958 50.4746 65.1458 50.4801 65.1942C50.4971 65.3428 50.5123 65.4759 50.5208 65.5987C50.5262 65.6778 50.528 65.7414 50.5262 65.7913C50.5247 65.8359 50.5207 65.8564 50.5199 65.8602C50.444 66.1032 50.3088 66.263 50.1145 66.4927C50.0721 66.5429 50.0269 66.5964 49.9788 66.6548C49.74 66.945 49.4781 67.3251 49.492 67.8931C49.4859 67.8759 49.4801 67.8588 49.4744 67.8418C49.1785 66.9487 49.1825 66.1044 49.4778 65.1474Z" stroke="black"/>
<path d="M49 71L43 65V71H49Z" fill="#E6E6E6"/>
<path d="M43.5 70.5V66.2071L47.7929 70.5H43.5Z" stroke="black"/>
<path d="M55 70H39L41 82H53L55 70Z" fill="#F5F5F5"/>
<path d="M41.4236 81.5L39.5902 70.5H54.4098L52.5764 81.5H41.4236Z" stroke="black"/>
<path d="M45 70H39L41 82H44L45 70Z" fill="#EBEBEB"/>
<path d="M41.4236 81.5L39.5902 70.5H44.4566L43.5399 81.5H41.4236Z" stroke="black"/>
<path d="M40.5 50.5V9.5H72.5V50.5H40.5Z" fill="#F0F0F0" stroke="black"/>
<path d="M41.5 50.5V9.5H79.5V50.5H41.5Z" fill="#F5F5F5" stroke="black"/>
<path d="M76.5 47.5H45.5V13.5H76.5V47.5Z" fill="white" stroke="black"/>
<path d="M171 130H121L117 46H167L171 130Z" fill="#EBEBEB"/>
<path d="M166.523 46.5L170.476 129.5H121.477L117.524 46.5H166.523Z" stroke="black"/>
<path d="M173 130H123L119 46H169L173 130Z" fill="#F5F5F5"/>
<path d="M168.523 46.5L172.476 129.5H123.477L119.524 46.5H168.523Z" stroke="black"/>
<path d="M149 122H144V55H149V122Z" fill="white"/>
<path d="M148.5 121.5H144.5V55.5H148.5V121.5Z" stroke="black"/>
<path d="M160 122H155V55H160V122Z" fill="white"/>
<path d="M159.5 121.5H155.5V55.5H159.5V121.5Z" stroke="black"/>
<path d="M137 122H132V55H137V122Z" fill="white"/>
<path d="M136.5 121.5H132.5V55.5H136.5V121.5Z" stroke="black"/>
<path d="M98 147C140.25 147 175 145.485 175 143C175 140.515 140.25 138 98 138C55.7502 138 22 140.515 22 143C22 145.485 55.7502 147 98 147Z" fill="#F5F5F5"/>
<path d="M144 121H98C95.0442 121 92.8392 118.973 93 116L98 18C98.1607 15.0228 101.048 13 104 13H150C152.956 13 155.161 15.0268 155 18L150 116C149.839 118.977 146.952 121 144 121Z" fill="#00812A"/>
<g opacity="0.8">
<path d="M141 121H97.9999C95.0553 121 92.8397 118.973 92.9999 116L97.9999 18C98.16 15.0228 101.059 13 104 13H147C149.944 13 152.16 15.0268 152 18L147 116C146.84 118.977 143.94 121 141 121Z" fill="white"/>
</g>
<path d="M120 31H107C105.749 31 104.933 30.3774 105 29C105.067 27.6269 105.749 26 107 26H120C121.251 26 122.067 27.6226 122 29C121.933 30.3731 121.251 31 120 31Z" fill="white"/>
<path d="M122 28C121.877 30.2094 120.206 32 118 32C115.794 32 113.877 30.2094 114 28C114.122 25.7906 115.794 24 118 24C120.206 24 122.122 25.7906 122 28Z" fill="#00812A"/>
<path d="M120 46H107C105.749 46 104.933 45.3774 105 44C105.067 42.6269 105.749 41 107 41H120C121.251 41 122.067 42.6226 122 44C121.933 45.3731 121.251 46 120 46Z" fill="white"/>
<path d="M115.155 45.2495C116.935 43.5151 116.772 41.1733 115.233 39.5886C113.694 38.0038 111.361 37.7762 109.581 39.5106C107.801 41.2451 107.248 44.2847 108.787 45.8694C110.326 47.4542 113.375 46.9839 115.155 45.2495Z" fill="#00812A"/>
<path opacity="0.3" d="M115.155 45.2495C116.935 43.5151 116.772 41.1733 115.233 39.5886C113.694 38.0038 111.361 37.7762 109.581 39.5106C107.801 41.2451 107.248 44.2847 108.787 45.8694C110.326 47.4542 113.375 46.9839 115.155 45.2495Z" fill="#FAFAFA"/>
<path d="M105 75H118C119.251 75 119.933 73.3774 120 72C120.067 70.6269 119.251 70 118 70H105C103.749 70 103.067 70.6226 103 72C102.933 73.3731 103.749 75 105 75Z" fill="white"/>
<path d="M109.439 74.9473C111.219 73.2129 111.772 70.1733 110.233 68.5886C108.694 67.0038 105.645 67.4741 103.865 69.2085C102.085 70.9429 102.248 73.2847 103.787 74.8694C105.326 76.4542 107.659 76.6818 109.439 74.9473Z" fill="#00812A"/>
<path opacity="0.7" d="M109.439 74.9473C111.219 73.2129 111.772 70.1733 110.233 68.5886C108.694 67.0038 105.645 67.4741 103.865 69.2085C102.085 70.9429 102.248 73.2847 103.787 74.8694C105.326 76.4542 107.659 76.6818 109.439 74.9473Z" fill="#FAFAFA"/>
<path d="M117 89H104C102.749 89 101.933 88.3774 102 87C102.067 85.6269 102.749 84 104 84H117C118.251 84 119.067 85.6226 119 87C118.933 88.3731 118.251 89 117 89Z" fill="white"/>
<path d="M119 87C118.877 89.2094 117.205 91 115 91C112.795 91 110.877 89.2094 111 87C111.122 84.7906 112.791 83 115 83C117.208 83 119.122 84.7906 119 87Z" fill="#00812A"/>
<path d="M106 60H119C120.251 60 120.933 59.3774 121 58C121.067 56.6269 120.251 55 119 55H106C104.749 55 104.067 56.6226 104 58C103.933 59.3731 104.749 60 106 60Z" fill="white"/>
<path d="M104 57C103.877 59.2094 105.794 61 108 61C110.206 61 111.881 59.2094 112 57C112.122 54.7906 110.206 53 108 53C105.794 53 104.119 54.7906 104 57Z" fill="#00812A"/>
<g opacity="0.7">
<path d="M104 57C103.877 59.2094 105.794 61 108 61C110.206 61 111.881 59.2094 112 57C112.122 54.7906 110.206 53 108 53C105.794 53 104.119 54.7906 104 57Z" fill="#FAFAFA"/>
</g>
<path d="M147 28H129C128.507 28 127.973 27.5498 128 27C128.027 26.4502 128.507 26 129 26H147C147.493 26 148.027 26.4502 148 27C147.973 27.5498 147.493 28 147 28Z" fill="white"/>
<path d="M141 31H129C128.511 31 127.973 30.5498 128 30C128.027 29.4502 128.511 29 129 29H141C141.489 29 142.027 29.4502 142 30C141.973 30.5498 141.489 31 141 31Z" fill="white"/>
<path d="M142 86H126C125.499 86 124.972 85.5498 125 85C125.028 84.4502 125.499 84 126 84H142C142.502 84 143.028 84.4502 143 85C142.972 85.5498 142.502 86 142 86Z" fill="white"/>
<path d="M133 89H125C124.49 89 123.972 88.5498 124 88C124.028 87.4502 124.49 87 125 87H133C133.511 87 134.028 87.4502 134 88C133.972 88.5498 133.511 89 133 89Z" fill="white"/>
<path d="M146 44H128C127.507 44 127.027 44.4502 127 45C126.973 45.5498 127.503 46 128 46H146C146.493 46 146.973 45.5498 147 45C147.027 44.4502 146.497 44 146 44Z" fill="white"/>
<path d="M140 40H128C127.511 40 127.027 40.4502 127 41C126.973 41.5498 127.507 42 128 42H140C140.489 42 140.973 41.5498 141 41C141.027 40.4502 140.493 40 140 40Z" fill="white"/>
<path d="M136 57H127C126.513 57 125.973 56.5498 126 56C126.027 55.4502 126.513 55 127 55H136C136.487 55 137.027 55.4502 137 56C136.973 56.5498 136.487 57 136 57Z" fill="white"/>
<path d="M145 57H140C139.527 57 138.974 56.5498 139 56C139.026 55.4502 139.527 55 140 55H145C145.473 55 146.026 55.4502 146 56C145.974 56.5498 145.473 57 145 57Z" fill="white"/>
<path d="M139 60H127C126.511 60 125.973 59.5498 126 59C126.027 58.4502 126.511 58 127 58H139C139.489 58 140.027 58.4502 140 59C139.973 59.5498 139.489 60 139 60Z" fill="white"/>
<path d="M124 103H102C101.293 103 100.96 102.824 101 102C101.039 101.176 101.293 100 102 100H124C124.706 100 125.039 101.176 125 102C124.96 102.824 124.706 103 124 103Z" fill="white"/>
<path d="M143 103H129C128.281 103 127.96 102.824 128 102C128.04 101.176 128.281 100 129 100H143C143.719 100 144.04 101.176 144 102C143.96 102.824 143.719 103 143 103Z" fill="white"/>
<path d="M119 107H102C101.289 107 100.96 105.824 101 105C101.04 104.176 101.289 104 102 104H119C119.711 104 120.04 104.176 120 105C119.96 105.824 119.711 107 119 107Z" fill="white"/>
<path d="M136 112H102C101.31 112 100.961 111.824 101 111C101.039 110.176 101.31 109 102 109H136C136.69 109 137.039 110.176 137 111C136.961 111.824 136.69 112 136 112Z" fill="white"/>
<path d="M131 73H126C125.52 73 125.026 73.4502 125 74C124.973 74.5498 125.516 75 126 75H131C131.48 75 131.973 74.5498 132 74C132.026 73.4502 131.484 73 131 73Z" fill="white"/>
<path d="M141 73H135C134.51 73 134.027 73.4502 134 74C133.973 74.5498 134.506 75 135 75H141C141.49 75 141.973 74.5498 142 74C142.027 73.4502 141.494 73 141 73Z" fill="white"/>
<path d="M138 70H126C125.511 70 125.027 70.4502 125 71C124.973 71.5498 125.507 72 126 72H138C138.489 72 138.973 71.5498 139 71C139.027 70.4502 138.493 70 138 70Z" fill="white"/>
<path d="M70.0002 46C68.6952 47.0807 67.2413 47.824 66.0002 49C65.3776 49.592 64.5589 50.3842 64.0002 51C63.4455 51.6158 63.3953 52.3802 63.0002 53C62.9722 53.0318 63.0321 52.9484 63.0002 53C62.9443 53.1232 62.056 53.8371 62.0002 54C61.8964 54.3298 62.064 54.6067 62.0002 55C61.8765 55.7906 62.0401 56.1418 62.0002 57C61.9164 58.7203 61.9682 61.2479 62.0002 63H60.0002C59.5332 61.1923 59.1678 59.8792 59.0002 58C58.9283 57.0624 58.9403 55.9972 59.0002 55C59.0281 54.4994 58.8924 53.5443 59.0002 53C59.0521 52.7259 58.9004 52.298 59.0002 52C59.06 51.849 59.9164 52.1629 60.0002 52C60.0361 51.9245 59.9682 51.0596 60.0002 51C60.507 50.0584 61.3936 49.7588 62.0002 49C62.6068 48.2412 62.3417 47.6754 63.0002 47C64.3251 45.6452 66.4917 44.172 68.0002 43L70.0002 46Z" fill="#FFEAE8"/>
<path d="M69 41C66.9589 42.1892 64 46 64 46L68 50C68 50 73.3502 46.7447 74 45C75.0963 42.07 70.9295 39.8773 69 41Z" fill="#00812A"/>
<path d="M61.0001 62L62.0001 65H59.0001C59.0001 65 58.5098 62.6718 60.0001 62H61.0001Z" fill="#FFEAE8"/>
<path d="M61 67L59 66L60 65H62L61 67Z" fill="#FFEAE8"/>
<path d="M84 32C84 32.2771 84.7273 32.996 85 33C85.006 33.2731 85.2726 33.004 85 33C85 32.7229 84.2726 32.004 84 32C83.9939 31.7269 83.7273 32 84 32Z" fill="#263238"/>
<path d="M84 32H85C85 32 84.494 32.3272 84 32Z" fill="#263238"/>
<path d="M84 32C84 32 84.4803 33.4153 85 34C84.6417 34.3387 84 34 84 34V32Z" fill="#A02724"/>
<path d="M85.0002 31C84.9714 31.007 85.0339 31.007 85.0002 31C84.1693 30.6094 83.0243 30.9721 83.0002 31C82.9138 31.0976 83.0675 31.1255 83.0002 31C82.933 30.8744 82.9138 30.0976 83.0002 30C83.0291 29.9651 83.9676 29.5117 85.0002 30C85.1011 30.0488 85.0339 30.8535 85.0002 31C85.0675 30.986 84.9762 31.1046 85.0002 31Z" fill="#263238"/>
<path d="M76 35C76.1694 36.9856 75.4403 39.8939 74 41C74 41 75.5264 43.5161 79 44C82.8161 44.5338 81 42 81 42C78.9704 41.1935 78.4843 39.4479 79 38L76 35Z" fill="#FFEAE8"/>
<path d="M83 44C84.9186 44.4972 87.023 45.5801 89 46C89.9963 46.2063 91.0037 45.8195 92 46C92.9963 46.1657 94.0076 46.8785 95 47H96C95.7899 47.0147 96.179 47.0074 96 47C96.4203 46.9779 97.5369 47.0884 98 47C98.9301 46.8232 99.0427 46.2873 100 46C101.919 45.4291 104.101 44.7072 106 44L107 46C105.198 47.1087 102.977 47.1602 101 48C100.008 48.4088 99.0974 49.7017 98 50C97.4513 50.151 97.6188 49.9153 97 50C96.6926 50.0405 96.3386 49.989 96 50C95.8288 50 95.1596 50.0074 95 50C92.8362 49.8674 90.0976 49.3831 88 49C85.8946 48.6206 84.0898 48.6004 82 48L83 44Z" fill="#FFEAE8"/>
<path d="M106 44L107 42L109 43C109 43 108.022 45.7952 106 45V44Z" fill="#FFEAE8"/>
<path d="M108 41H110L109 43L107 42L108 41Z" fill="#FFEAE8"/>
<path d="M70 139H73L74 131H71L70 139Z" fill="#FFEAE8"/>
<path d="M45 123L47 126L54 122L52 119L45 123Z" fill="#FFEAE8"/>
<path d="M49.0002 127C48.9713 127 49.0291 127.008 49.0002 127C48.6996 126.908 48.0955 126.303 48.0002 126C47.9799 126.016 47.9944 125.978 48.0002 126C47.9799 125.989 48.0175 125.986 48.0002 126C48.0898 126.046 48.9742 126.702 49.0002 127C49.0609 126.957 49.0059 127.065 49.0002 127C49.0753 127 48.9279 127.051 49.0002 127ZM48.0002 126C48.1418 126.401 48.8383 126.949 49.0002 127C48.9308 127.051 49.0666 127.019 49.0002 127C49.0002 127.019 49.0377 126.973 49.0002 127C48.9857 126.843 48.3123 126.171 48.0002 126Z" fill="#00812A"/>
<path d="M48.9999 127C48.5463 126.989 48.2456 127.168 47.9999 127C47.9716 126.979 47.9999 127.042 47.9999 127C47.9999 126.963 47.9716 126.016 47.9999 126C48.0424 125.974 49.447 125.79 49.9999 126C49.9385 125.837 50.1511 126.058 49.9999 126C50.0944 126.252 50.0661 126.937 49.9999 127C49.8723 127.121 49.2504 127.005 48.9999 127ZM47.9999 127C48.4536 127.215 49.7873 127.205 49.9999 127C50.033 126.968 50.0519 126.131 49.9999 126C49.9621 125.895 50.0944 126.037 49.9999 126C49.6691 125.874 48.3449 126.816 47.9999 127Z" fill="#00812A"/>
<path d="M49.0001 125L47.0001 122C46.9289 121.878 46.13 121.953 46.0001 122L43.0001 123C42.69 123.11 42.8241 123.725 43.0001 124C43.7209 125.157 44.1158 125.528 45.0001 127C45.5449 127.905 46.3547 129.698 47.0001 131C47.6287 132.275 49.1468 131.594 49.0001 131C48.338 128.328 48.7906 127.153 49.0001 126C49.0378 125.791 49.1091 125.177 49.0001 125Z" fill="#263238"/>
<path d="M75 139C74.6483 139 74.2694 139.069 74 139C73.9701 138.991 74.0038 139.037 74 139C73.9701 139.018 73.9963 138.959 74 139C74.1459 138.908 75.6146 137.734 76 138C75.9925 137.89 76.0748 138.051 76 138C76.0112 138.184 76.1048 138.885 76 139C75.8316 139.179 75.318 139 75 139ZM74 139C74.7072 139.142 75.8017 139.216 76 139C76.0711 138.927 76.0075 138.129 76 138C76 137.954 76.0299 138.018 76 138C75.7868 137.853 74.5313 138.692 74 139Z" fill="#00812A"/>
<path d="M74.0001 139C74.0001 139 74.0124 139.015 74.0001 139C73.9817 138.979 73.997 139.041 74.0001 139C74.0062 138.923 74.4113 137 75.0001 137C74.9817 137 75.0154 137 75.0001 137C74.9878 136.887 75.1719 137.031 75.0001 137C75.0492 137.499 74.3191 138.763 74.0001 139C74.0093 139 73.9909 139.005 74.0001 139ZM75.0001 137C74.6198 137 74.0492 138.553 74.0001 139C74.3283 138.671 75.0277 137.298 75.0001 137C75.1105 137.015 75.0001 136.974 75.0001 137C75.0124 137 74.9878 137 75.0001 137Z" fill="#00812A"/>
<path d="M74.0001 138H70.0001C69.8623 138 70.0237 137.857 70.0001 138L69.0001 141C68.9489 141.324 69.6813 142.004 70.0001 142C71.3227 141.975 71.3312 142 73.0001 142C74.0275 142 76.5831 142 78.0001 142C79.4171 142 79.5866 140.131 79.0001 140C76.3707 139.406 74.87 138.779 74.0001 138C74.2009 138 73.8427 137.861 74.0001 138Z" fill="#263238"/>
<g opacity="0.2">
<path d="M75 131L74 135H71L72 131H75Z" fill="black"/>
</g>
<g opacity="0.2">
<path d="M52 119L54 121L51 123L49 121L52 119Z" fill="black"/>
</g>
<path d="M68 62C70.6937 62.3619 76.4722 63.256 82 64C87.3994 44.4184 86 44 86 44C86 44 84.7864 43.5831 83 43C82.9318 42.9759 82.0602 43.0201 82 43C81.1008 42.7305 81.2003 42.2735 80 42C77.9446 41.638 76.3565 41.2051 74 41C73.8475 40.9879 73.1485 41.008 73 41C72.5745 40.9718 72.4095 41.0161 72 41C71.723 40.9839 71.2609 41.004 71 41C70.6909 41 70.281 41 70 41C69.8394 41 70.1485 40.9919 70 41C68.8639 41.0201 67.8715 41.8699 68 43C69.1883 53.2995 68.7788 56.7276 68 62Z" fill="#00812A"/>
<g opacity="0.2">
<path d="M82 48C82.0854 48.8377 84.3594 50.4151 85 50C85.1886 48.9993 84.9039 47.6968 85 47C84.0569 46.9296 82.2313 46.2728 82 48Z" fill="black"/>
</g>
<path d="M79.9999 44C79.9046 40.7246 87.3024 45.1822 88.9999 46L86.9999 51C86.9999 51 84.5754 50.9781 82.9999 50C81.3558 48.9808 80.0686 46.3795 79.9999 44Z" fill="#00812A"/>
<path d="M75.0001 32C75.2598 35.3821 75.2269 36.245 77.0001 38C79.67 40.6425 84.221 40.3582 85.0001 37C85.7021 33.9737 84.4126 28.3912 81.0001 27C77.6403 25.6287 74.7404 28.6179 75.0001 32Z" fill="#FFEAE8"/>
<path d="M76 28C72.5887 27.1647 71.9317 29.5383 72 31C72.0722 32.4656 70 33.1443 70 35C70 37.4191 71.5189 39.2672 67 40C63.1713 40.6186 62.3412 45.2539 68 48C74.2647 51.0376 83.1518 47.062 82 43C80.2261 36.7317 83.3571 36.4986 83 33C82.7391 30.4548 85.8829 30.1236 85 28C83.8441 25.2145 75.699 23.0791 76 28Z" fill="#263238"/>
<path d="M71.0003 32C70.5595 29.6934 71.0848 27.7164 72.0003 27C73.1794 26.0773 74.9212 26.9625 75.0003 27V28C75.0003 28 72.9986 27.2161 72.0003 28C71.2054 28.6226 71.5859 29.8434 72.0003 32H71.0003Z" fill="#263238"/>
<path d="M67 40C65.7887 40 65.0738 39.0342 65 39C65.0272 39.0128 67.7926 40.1037 69 39C69.5901 38.461 69.2562 37.4545 69 36H70C70.2873 37.6214 69.7066 38.354 69 39C68.5225 39.4364 67.6406 40 67 40Z" fill="#263238"/>
<path d="M82 33C81.9403 33.6091 82.6713 33.5016 83 34C83.4952 34.7475 83.7823 34.6328 84 34C84.1964 33.4304 83.666 32.5458 83 32C82.3426 31.466 82.0683 32.3078 82 33Z" fill="#FFEAE8"/>
<path d="M78 63C78 63 72.455 85.1909 70 98C67.4086 111.518 52 123 52 123L49 120C49 120 58.4632 110.621 61 98C66.1477 72.3817 63.0316 67.4376 68 62L78 63Z" fill="#263238"/>
<path d="M52 124L48 119L49 118L54 123L52 124Z" fill="#00812A"/>
<g opacity="0.2">
<path d="M75.0002 69C71.1086 72.6399 71.5918 85.1802 72.0002 91C73.6341 82.7242 75.8491 73.3318 77.0002 68C76.5918 67.668 75.7132 68.332 75.0002 69Z" fill="black"/>
</g>
<path d="M82 63C82 63 85.3472 89.7968 84 100C82.5957 110.611 75 134 75 134L70 133C70 133 74.2693 110.508 75 100C75.7961 88.5471 72 62 72 62L82 63Z" fill="#263238"/>
<path d="M76 134L69 133V131L77 132L76 134Z" fill="#00812A"/>
<path d="M68.0003 61L67.0003 62C66.8433 61.9824 66.9414 62.0775 67.0003 62L82.0003 64C81.9846 64.0669 82.1219 64.0141 82.0003 64V63C82.016 62.926 82.1337 63.0141 82.0003 63L68.0003 61C68.0356 60.9507 67.8983 60.9894 68.0003 61Z" fill="#00812A"/>
<g opacity="0.3">
<path d="M68.0003 61L67.0003 62C66.8433 61.9824 66.9414 62.0775 67.0003 62L82.0003 64C81.9846 64.0669 82.1219 64.0141 82.0003 64V63C82.016 62.926 82.1337 63.0141 82.0003 63L68.0003 61C68.0356 60.9507 67.8983 60.9894 68.0003 61Z" fill="black"/>
</g>
<path d="M69 63C68.924 62.9867 68.988 63.0532 69 63V61C69.012 60.9468 69.924 60.9867 70 61C70.012 60.9468 70.076 61.0133 70 61V63C69.988 63.0532 69.076 63.0133 69 63Z" fill="#263238"/>
<path d="M79 64C78.924 63.9867 78.988 64.0532 79 64V62C79.012 61.9468 79.924 61.9867 80 62C80.012 61.9468 80.076 62.0133 80 62V64C79.988 64.0532 79.076 64.0133 79 64Z" fill="#263238"/>
</g>
<defs>
<clipPath id="clip0_163_9139">
<rect width="197" height="147" fill="white"/>
</clipPath>
</defs>
</svg>
