<svg width="189" height="188" viewBox="0 0 189 188" fill="none" xmlns="http://www.w3.org/2000/svg">
<g clip-path="url(#clip0_163_9057)">
<path d="M159 123V118C160.275 116.851 161.968 116.149 163 115C164.032 113.851 164.389 112.278 165 111C165.611 109.722 166 108.513 166 107C166 105.771 165.624 104.812 165 104C164.376 103.192 163.196 103 162 103C160.981 103 160.603 103.401 160 104C159.402 104.599 159 105.059 159 106C159 106.342 158.948 106.703 159 107C159.052 107.302 158.922 107.636 159 108L155 109C154.87 108.61 155.078 107.43 155 107C154.922 106.57 155 106.39 155 106C155 103.91 155.725 102.318 157 101C158.275 99.6822 159.676 99 162 99C164.324 99 166.647 99.6068 168 101C169.353 102.398 170 104.444 170 107C170 108.748 169.637 110.589 169 112C168.363 113.411 167.097 114.798 166 116C164.903 117.202 164.353 117.824 163 119V123H159V123ZM159 131V127H163V131H159Z" stroke="black" stroke-miterlimit="10"/>
<path d="M72.0003 32V28C72.9373 27.1378 74.2419 26.8622 75.0003 26C75.7586 25.1378 75.5514 23.958 76.0003 23C76.4491 22.042 77.0003 21.1359 77.0003 20C77.0003 19.0785 76.4579 18.6067 76.0003 18C75.5426 17.3933 74.8762 17 74.0003 17C73.2507 17 73.4404 16.5484 73.0003 17C72.5601 17.4516 72.0003 18.2929 72.0003 19C72.0003 19.2555 71.961 19.7765 72.0003 20C72.0395 20.2235 71.9436 20.7263 72.0003 21H69.0003C68.9044 20.708 69.0569 20.3239 69.0003 20C68.9436 19.6761 69.0003 19.2965 69.0003 19C69.0003 17.4353 69.0633 15.9854 70.0003 15C70.9373 14.0101 72.2962 14 74.0003 14C75.7043 14 78.0066 14.9508 79.0003 16C79.9939 17.0492 80.0003 18.0795 80.0003 20C80.0003 21.3138 79.4666 22.9416 79.0003 24C78.5339 25.0584 77.8065 26.1013 77.0003 27C76.194 27.9033 75.9896 28.1196 75.0003 29V32H72.0003V32ZM72.0003 38V35H75.0003V38H72.0003Z" stroke="black" stroke-miterlimit="10"/>
<path d="M16.0003 135V131C16.9373 130.138 18.2419 129.862 19.0003 129C19.7586 128.138 19.5514 126.958 20.0003 126C20.4491 125.042 21.0003 124.136 21.0003 123C21.0003 122.079 20.4579 121.607 20.0003 121C19.5426 120.393 18.8762 120 18.0003 120C17.2507 120 17.4404 119.548 17.0003 120C16.5601 120.452 16.0003 121.293 16.0003 122C16.0003 122.255 15.961 122.776 16.0003 123C16.0395 123.224 15.9436 123.726 16.0003 124H13.0003C12.9044 123.708 13.0569 123.324 13.0003 123C12.9436 122.676 13.0003 122.297 13.0003 122C13.0003 120.435 13.0633 118.985 14.0003 118C14.9373 117.01 16.2962 117 18.0003 117C19.7043 117 22.0066 117.951 23.0003 119C23.9939 120.049 24.0003 121.079 24.0003 123C24.0003 124.314 23.4666 125.942 23.0003 127C22.5339 128.058 21.8065 129.101 21.0003 130C20.194 130.903 19.9896 131.12 19.0003 132V135H16.0003V135ZM16.0003 141V138H19.0003V141H16.0003Z" stroke="black" stroke-miterlimit="10"/>
<path d="M123 41V39C123.596 38.4607 124.518 37.5349 125 37C125.482 36.4607 125.717 36.6002 126 36C126.288 35.3998 126 34.7133 126 34C126 33.4259 126.288 32.3784 126 32C125.708 31.6216 124.558 32 124 32C123.522 32 123.279 31.7173 123 32C122.721 32.2827 123 32.5607 123 33C123 33.1609 122.979 33.8608 123 34C123.025 34.1392 122.966 33.826 123 34H121C120.941 33.8173 121.038 34.2001 121 34C120.966 33.7999 121 33.1827 121 33C121 32.0215 121.404 31.6176 122 31C122.596 30.3824 122.917 30 124 30C125.083 30 126.37 30.3433 127 31C127.63 31.6567 128 32.7997 128 34C128 34.822 128.3 35.3389 128 36C127.704 36.6611 126.512 37.439 126 38C125.488 38.561 125.63 38.4477 125 39V41H123V41ZM123 45V43H125V45H123Z" stroke="black" stroke-miterlimit="10"/>
<path d="M123 159V157C123.596 156.461 124.518 155.535 125 155C125.482 154.461 125.717 154.6 126 154C126.288 153.4 126 152.713 126 152C126 151.426 126.288 150.378 126 150C125.708 149.622 124.558 150 124 150C123.522 150 123.279 149.717 123 150C122.721 150.283 123 150.561 123 151C123 151.161 122.979 151.861 123 152C123.025 152.139 122.966 151.826 123 152H121C120.941 151.817 121.038 152.2 121 152C120.966 151.8 121 151.183 121 151C121 150.021 121.404 149.618 122 149C122.596 148.382 122.917 148 124 148C125.083 148 126.37 148.343 127 149C127.63 149.657 128 150.8 128 152C128 152.822 128.3 153.339 128 154C127.704 154.661 126.512 155.439 126 156C125.488 156.561 125.63 156.448 125 157V159H123V159ZM123 163V161H125V163H123Z" stroke="black" stroke-miterlimit="10"/>
<path d="M9.0001 49V47C9.59648 46.4607 10.5179 45.5349 11.0001 45C11.4823 44.4607 11.7167 44.6002 12.0001 44C12.2877 43.3998 12.0001 42.7133 12.0001 42C12.0001 41.4259 12.2877 40.3784 12.0001 40C11.7083 39.6216 10.5584 40 10.0001 40C9.52216 40 9.27926 39.7173 9.0001 40C8.72095 40.2827 9.0001 40.5607 9.0001 41C9.0001 41.1609 8.97895 41.8608 9.0001 42C9.02548 42.1392 8.96627 41.826 9.0001 42H7.0001C6.94089 41.8173 7.03817 42.2001 7.0001 42C6.96627 41.7999 7.0001 41.1827 7.0001 41C7.0001 40.0215 7.40373 39.6176 8.0001 39C8.59648 38.3824 8.91732 38 10.0001 38C11.0829 38 12.3699 38.3433 13.0001 39C13.6303 39.6567 14.0001 40.7997 14.0001 42C14.0001 42.822 14.3004 43.3389 14.0001 44C13.704 44.6611 12.5119 45.439 12.0001 46C11.4883 46.561 11.6303 46.4477 11.0001 47V49H9.0001V49ZM9.0001 53V51H11.0001V53H9.0001Z" stroke="black" stroke-miterlimit="10"/>
<path d="M45.0001 98V96C45.5965 95.4607 46.5179 94.5349 47.0001 94C47.4823 93.4607 47.7167 93.6002 48.0001 93C48.2877 92.3998 48.0001 91.7133 48.0001 91C48.0001 90.4259 48.2877 89.3784 48.0001 89C47.7083 88.6216 46.5584 89 46.0001 89C45.5222 89 45.2793 88.7173 45.0001 89C44.7209 89.2827 45.0001 89.5607 45.0001 90C45.0001 90.1609 44.979 90.8608 45.0001 91C45.0255 91.1392 44.9663 90.826 45.0001 91H43.0001C42.9409 90.8173 43.0382 91.2001 43.0001 91C42.9663 90.7999 43.0001 90.1827 43.0001 90C43.0001 89.0215 43.4037 88.6176 44.0001 88C44.5965 87.3824 44.9173 87 46.0001 87C47.0829 87 48.3699 87.3433 49.0001 88C49.6303 88.6567 50.0001 89.7997 50.0001 91C50.0001 91.822 50.3004 92.3389 50.0001 93C49.704 93.6611 48.5119 94.439 48.0001 95C47.4883 95.561 47.6303 95.4477 47.0001 96V98H45.0001V98ZM45.0001 102V100H47.0001V102H45.0001Z" stroke="black" stroke-miterlimit="10"/>
<path d="M182 69V67C182.596 66.4607 183.518 65.5349 184 65C184.482 64.4607 184.717 64.6002 185 64C185.288 63.3998 185 62.7133 185 62C185 61.4259 185.288 60.3784 185 60C184.708 59.6216 183.558 60 183 60C182.522 60 182.279 59.7173 182 60C181.721 60.2827 182 60.5607 182 61C182 61.1609 181.979 61.8608 182 62C182.025 62.1392 181.966 61.826 182 62H180C179.941 61.8173 180.038 62.2001 180 62C179.966 61.7999 180 61.1827 180 61C180 60.0215 180.404 59.6176 181 59C181.596 58.3824 181.917 58 183 58C184.083 58 185.37 58.3433 186 59C186.63 59.6567 187 60.7997 187 62C187 62.822 187.3 63.3389 187 64C186.704 64.6611 185.512 65.439 185 66C184.488 66.561 184.63 66.4477 184 67V69H182V69ZM182 73V71H184V73H182Z" stroke="black" stroke-miterlimit="10"/>
<path d="M50.0004 160C49.1046 160.379 47.0049 160 47.0004 160C46.9778 160 47.9597 158.087 48.0004 158C48.4935 156.996 49.7699 155.813 51.0004 156C51.8871 156.137 52.213 157.161 52.0004 158C51.7832 158.858 50.7649 159.676 50.0004 160Z" fill="black"/>
<path d="M26.0002 161C26.8543 160.978 28.6469 160.169 29.0002 160C29.2953 160.489 28.7274 161.453 29.0002 162C29.4697 162.942 30.6782 163.898 31.0002 165C30.9823 164.942 31.0181 165.062 31.0002 165C30.875 164.818 30.0628 164.062 30.0002 164C29.2355 163.218 27.1003 162.453 26.0002 163C25.2086 163.391 24.544 164.285 25.0002 165C25.4608 165.729 27.1818 165.933 28.0002 166C28.9393 166.08 30.9242 165.027 31.0002 165C31.2864 166.035 30.8437 166.885 31.0002 168C31.1165 168.809 31.9242 170.174 32.0002 171C31.8347 170.764 31.0583 170.058 31.0002 170C30.2355 169.218 28.1003 167.453 27.0002 168C26.2086 168.391 25.544 169.289 26.0002 170C26.4608 170.729 28.1818 171.933 29.0002 172C29.917 172.08 31.8437 171.053 32.0002 171C32.036 171.373 31.9689 171.627 32.0002 172C32.103 173.226 31.866 174.787 32.0002 176C32.0449 176.422 31.942 176.587 32.0002 177C31.7408 176.653 31.0449 176.049 31.0002 176C30.2355 175.218 29.1003 174.453 28.0002 175C27.2086 175.391 26.544 176.285 27.0002 177C27.4608 177.729 28.1818 177.933 29.0002 178C29.8186 178.071 31.5575 177.156 32.0002 177C32.103 177.689 32.8526 178.333 33.0002 179C33.0717 179.284 32.9152 179.729 33.0002 180C33.0762 180.271 32.9242 180.729 33.0002 181C33.1791 181.547 33.8213 181.493 34.0002 182C34.0896 182.258 33.9152 182.751 34.0002 183C33.79 182.609 33.0404 182.053 33.0002 182C32.3607 181.111 31.1719 179.631 30.0002 180C29.155 180.267 28.6603 181.227 29.0002 182C29.3445 182.791 30.2042 183.809 31.0002 184C31.8767 184.209 33.7676 184.044 34.0002 184C34.2193 184.604 34.7855 184.453 35.0002 185C35.0941 185.236 34.9063 185.773 35.0002 186H36.0002C35.866 185.689 35.1433 185.338 35.0002 185C34.7945 184.511 35.2104 183.538 35.0002 183C35.2104 182.902 36.3607 182.667 37.0002 182C37.7157 182.413 38.8571 182.942 39.0002 183C38.8481 183.627 38.1254 184.427 38.0002 185C37.8884 185.515 38.0896 185.538 38.0002 186H39.0002C39.0717 185.578 38.9107 185.467 39.0002 185C39.0986 184.48 38.8794 183.569 39.0002 183C39.2372 183.036 41.1326 183.249 42.0002 183C42.7873 182.773 43.6916 182.804 44.0002 182C44.3043 181.214 44.8543 180.231 44.0002 180C42.8151 179.68 40.5994 181.089 40.0002 182C39.9599 182.058 39.1835 182.618 39.0002 183C39.0762 182.658 39.9197 182.355 40.0002 182C40.1165 181.489 39.866 180.52 40.0002 180C40.0807 179.733 39.9197 179.271 40.0002 179C40.0762 178.725 40.9107 179.271 41.0002 179C41.1433 178.609 40.8347 177.395 41.0002 177C41.5145 177.151 43.2131 178.102 44.0002 178C44.8141 177.893 45.5709 177.751 46.0002 177C46.4206 176.267 46.8096 175.355 46.0002 175C44.8777 174.507 42.7336 175.187 42.0002 176C41.9778 176.027 41.1612 175.773 41.0002 176C41.1746 175.618 41.8124 175.382 42.0002 175C42.5324 173.916 43.4278 173.093 44.0002 172C44.1209 171.773 43.8839 171.227 44.0002 171C44.434 171.129 46.1729 172.107 47.0002 172C47.8141 171.893 48.5709 171.751 49.0002 171C49.4206 170.267 49.8096 169.355 49.0002 169C47.8777 168.507 45.7336 169.187 45.0002 170C44.9734 170.031 44.1791 170.747 44.0002 171C44.3043 170.4 44.7274 169.604 45.0002 169C45.4787 167.942 46.6782 167.066 47.0002 166C47.1522 166.049 49.0834 166.12 50.0002 166C50.8141 165.893 51.5664 165.751 52.0002 165C52.4206 164.267 51.8096 163.355 51.0002 163C49.8777 162.507 47.7336 163.187 47.0002 164C46.9465 164.058 47.197 164.702 47.0002 165C46.9957 165.013 47.0002 164.987 47.0002 165C47.3266 163.88 46.8884 163.062 47.0002 162C47.112 160.942 47.0136 159.924 47.0002 159C46.9912 158.071 47.0628 157.751 47.0002 157C46.9644 156.596 47.0404 155.342 47.0002 155C47.0181 155.013 47.9823 154.093 48.0002 154C48.197 152.929 47.0824 150.578 46.0002 150C45.222 149.582 44.3222 150.218 44.0002 151C43.6693 151.795 44.5843 152.298 45.0002 153C45.425 153.72 46.6469 154.751 47.0002 155C47.036 155.36 46.9689 156.573 47.0002 157C47.0449 157.746 47.0136 158.076 47.0002 159C47.0002 159.244 47.0047 159.742 47.0002 160C46.9242 159.565 47.0181 159.058 47.0002 159C46.6782 157.96 45.23 156.018 44.0002 156C43.1147 155.987 42.9242 157.16 43.0002 158C43.0762 158.858 43.307 159.565 44.0002 160C44.7247 160.453 46.6156 159.947 47.0002 160C46.9734 160.569 47.0762 161.396 47.0002 162C46.866 163.04 46.3445 163.907 46.0002 165C45.9823 165.062 46.0225 165.938 46.0002 166C46.0002 165.778 46.0181 164.084 46.0002 164C45.7945 162.929 45.2211 161.147 44.0002 161C43.1237 160.893 42.0181 161.16 42.0002 162C41.9823 162.862 42.3562 163.498 43.0002 164C43.7425 164.582 45.9242 165.982 46.0002 166C45.6648 167.022 45.4876 167.987 45.0002 169C44.6469 169.738 44.3937 170.271 44.0002 171C43.9912 170.711 44.0136 169.08 44.0002 169C43.7945 167.929 42.2211 166.147 41.0002 166C40.1237 165.893 40.0181 167.16 40.0002 168C39.9823 168.862 40.3562 169.498 41.0002 170C41.7247 170.569 43.8392 170.96 44.0002 171C43.8213 171.333 43.1835 171.667 43.0002 172C42.4009 173.08 42.5592 173.916 42.0002 175C41.8034 175.373 41.1835 175.622 41.0002 176C40.9734 175.569 41.0136 175.067 41.0002 175C40.7945 173.929 39.2211 172.147 38.0002 172C37.1237 171.893 37.0181 172.16 37.0002 173C36.9823 173.862 37.3562 174.498 38.0002 175C38.6442 175.507 40.5396 175.884 41.0002 176C40.705 176.631 40.2461 177.369 40.0002 178C39.9018 178.275 40.0807 178.729 40.0002 179C39.9152 179.271 39.0852 179.733 39.0002 180C38.8437 180.555 39.1343 181.48 39.0002 182C38.9331 182.262 39.0628 181.742 39.0002 182C39.0404 181.56 39.0047 181.062 39.0002 181C38.9599 179.911 38.1808 178.329 37.0002 178C36.1505 177.76 35.1478 178.169 35.0002 179C34.9823 179.107 35.0002 178.893 35.0002 179C34.4725 179.818 33.9957 181.276 34.0002 182C34.0002 182.071 34.9376 182.578 35.0002 183C34.875 182.676 34.1254 182.342 34.0002 182C33.8168 181.511 34.1791 181.507 34.0002 181C33.9197 180.733 33.0807 180.271 33.0002 180C32.9107 179.729 33.0717 179.275 33.0002 179C32.9018 178.596 33.0807 178.422 33.0002 178C33.5145 177.844 35.4009 177.515 36.0002 177C36.6218 176.467 37.0583 174.862 37.0002 174C36.942 173.156 35.8722 172.858 35.0002 173C33.7883 173.204 33.1567 174.92 33.0002 176C32.9957 176.036 33.0091 176.725 33.0002 177C32.9331 176.587 33.0538 176.422 33.0002 176C32.8437 174.8 32.1254 173.226 32.0002 172C31.9734 171.742 32.027 171.253 32.0002 171C32.434 170.871 34.3696 170.538 35.0002 170C35.6173 169.467 36.0583 168.862 36.0002 168C35.942 167.16 34.8722 165.853 34.0002 166C32.7883 166.204 32.1567 168.92 32.0002 170C31.9957 170.04 32.0091 169.693 32.0002 170C31.9197 169.333 32.1075 168.653 32.0002 168C31.8124 166.854 31.3222 166.066 31.0002 165C31.1522 164.956 33.3025 164.6 34.0002 164C34.6218 163.467 35.0583 162.862 35.0002 162C34.942 161.16 33.8722 159.853 33.0002 160C31.7883 160.204 31.1567 161.92 31.0002 163C30.9868 163.076 30.9957 164.64 31.0002 165C31.0002 164.987 31.0047 165.013 31.0002 165C30.6514 163.885 30.4966 162.946 30.0002 162C29.5083 161.054 28.5189 159.769 28.0002 159C27.4814 158.231 26.4653 157.591 26.0002 157C25.7453 156.68 26.2283 156.262 26.0002 156C26.0002 156 26.0047 156 26.0002 156C26.0225 156 25.036 155.084 25.0002 155C24.5709 153.996 23.2255 151.889 22.0002 152C21.1192 152.08 20.8392 153.174 21.0002 154C21.1656 154.844 22.2668 155.64 23.0002 156C23.756 156.364 25.5664 155.987 26.0002 156C26.2327 156.28 25.7408 156.662 26.0002 157C26.4563 157.6 27.4993 158.222 28.0002 159C28.1343 159.204 27.8616 159.782 28.0002 160C27.6961 159.68 28.0494 159.036 28.0002 159C27.155 158.307 25.0332 157.338 24.0002 158C23.2578 158.475 22.4725 159.342 23.0002 160C23.5413 160.675 25.1818 161.022 26.0002 161Z" fill="black"/>
<path d="M28 160C28 160 28.0078 159.086 28 159C27.8832 158.004 28.0305 155.476 29 155C29.697 154.66 30.7586 155.262 31 156C31.2492 156.75 30.3971 157.373 30 158C29.5328 158.734 28 159.996 28 160Z" fill="black"/>
<path d="M162 160C161.105 160.379 159.005 160 159 160C158.978 160 159.955 158.087 160 158C160.493 156.996 161.77 155.813 163 156C163.887 156.137 164.213 157.161 164 158C163.783 158.858 162.765 159.676 162 160Z" fill="black"/>
<path d="M138 161C138.854 160.978 140.647 160.169 141 160C141.291 160.489 140.727 161.453 141 162C141.47 162.942 142.678 163.898 143 165C142.982 164.942 143.018 165.062 143 165C142.875 164.818 142.063 164.062 142 164C141.235 163.218 139.1 162.453 138 163C137.209 163.391 136.544 164.285 137 165C137.461 165.729 139.182 165.933 140 166C140.939 166.08 142.924 165.027 143 165C143.286 166.035 142.844 166.885 143 168C143.116 168.809 143.924 170.174 144 171C143.835 170.764 143.058 170.058 143 170C142.235 169.218 140.1 167.453 139 168C138.209 168.391 137.544 169.289 138 170C138.461 170.729 140.182 171.933 141 172C141.917 172.08 143.844 171.053 144 171C144.036 171.373 143.969 171.627 144 172C144.103 173.226 143.866 174.787 144 176C144.045 176.422 143.942 176.587 144 177C143.741 176.653 143.045 176.049 143 176C142.235 175.218 141.1 174.453 140 175C139.209 175.391 138.544 176.285 139 177C139.461 177.729 140.182 177.933 141 178C141.819 178.071 143.557 177.156 144 177C144.103 177.689 144.853 178.333 145 179C145.072 179.284 144.915 179.729 145 180C145.076 180.271 144.924 180.729 145 181C145.179 181.547 145.821 181.493 146 182C146.09 182.258 145.915 182.751 146 183C145.79 182.609 145.04 182.053 145 182C144.361 181.111 143.172 179.631 142 180C141.155 180.267 140.66 181.227 141 182C141.345 182.791 142.204 183.809 143 184C143.877 184.209 145.768 184.044 146 184C146.219 184.604 146.786 184.453 147 185C147.094 185.236 146.906 185.773 147 186H148C147.866 185.689 147.143 185.338 147 185C146.794 184.511 147.21 183.538 147 183C147.21 182.902 148.361 182.667 149 182C149.716 182.413 150.857 182.942 151 183C150.848 183.627 150.125 184.427 150 185C149.888 185.515 150.09 185.538 150 186H151C151.072 185.578 150.911 185.467 151 185C151.099 184.48 150.879 183.569 151 183C151.237 183.036 153.133 183.249 154 183C154.787 182.773 155.692 182.804 156 182C156.304 181.214 156.854 180.231 156 180C154.815 179.68 152.599 181.089 152 182C151.96 182.058 151.184 182.618 151 183C151.076 182.658 151.92 182.355 152 182C152.116 181.489 151.866 180.52 152 180C152.081 179.733 151.92 179.271 152 179C152.076 178.725 152.911 179.271 153 179C153.143 178.609 152.835 177.395 153 177C153.514 177.151 155.213 178.102 156 178C156.814 177.893 157.571 177.751 158 177C158.421 176.267 158.81 175.355 158 175C156.878 174.507 154.734 175.187 154 176C153.978 176.027 153.161 175.773 153 176C153.175 175.618 153.812 175.382 154 175C154.532 173.916 155.428 173.093 156 172C156.121 171.773 155.884 171.227 156 171C156.434 171.129 158.173 172.107 159 172C159.814 171.893 160.571 171.751 161 171C161.421 170.267 161.81 169.355 161 169C159.878 168.507 157.734 169.187 157 170C156.973 170.031 156.179 170.747 156 171C156.304 170.4 156.727 169.604 157 169C157.479 167.942 158.678 167.066 159 166C159.152 166.049 161.083 166.12 162 166C162.814 165.893 163.566 165.751 164 165C164.421 164.267 163.81 163.355 163 163C161.878 162.507 159.734 163.187 159 164C158.947 164.058 159.197 164.702 159 165C158.996 165.013 159 164.987 159 165C159.327 163.88 158.888 163.062 159 162C159.112 160.942 159.014 159.924 159 159C158.991 158.071 159.063 157.751 159 157C158.964 156.596 159.04 155.342 159 155C159.018 155.013 159.982 154.093 160 154C160.197 152.929 159.082 150.578 158 150C157.222 149.582 156.322 150.218 156 151C155.669 151.795 156.584 152.298 157 153C157.425 153.72 158.647 154.751 159 155C159.036 155.36 158.969 156.573 159 157C159.045 157.746 159.014 158.076 159 159C159 159.244 159.005 159.742 159 160C158.924 159.565 159.018 159.058 159 159C158.678 157.96 157.23 156.018 156 156C155.115 155.987 154.924 157.16 155 158C155.076 158.858 155.307 159.565 156 160C156.725 160.453 158.616 159.947 159 160C158.973 160.569 159.076 161.396 159 162C158.866 163.04 158.345 163.907 158 165C157.982 165.062 158.023 165.938 158 166C158 165.778 158.018 164.084 158 164C157.794 162.929 157.221 161.147 156 161C155.124 160.893 154.018 161.16 154 162C153.982 162.862 154.356 163.498 155 164C155.743 164.582 157.924 165.982 158 166C157.665 167.022 157.488 167.987 157 169C156.647 169.738 156.394 170.271 156 171C155.991 170.711 156.014 169.08 156 169C155.794 167.929 154.221 166.147 153 166C152.124 165.893 152.018 167.16 152 168C151.982 168.862 152.356 169.498 153 170C153.725 170.569 155.839 170.96 156 171C155.821 171.333 155.184 171.667 155 172C154.401 173.08 154.559 173.916 154 175C153.803 175.373 153.184 175.622 153 176C152.973 175.569 153.014 175.067 153 175C152.794 173.929 151.221 172.147 150 172C149.124 171.893 149.018 172.16 149 173C148.982 173.862 149.356 174.498 150 175C150.644 175.507 152.54 175.884 153 176C152.705 176.631 152.246 177.369 152 178C151.902 178.275 152.081 178.729 152 179C151.915 179.271 151.085 179.733 151 180C150.844 180.555 151.134 181.48 151 182C150.933 182.262 151.063 181.742 151 182C151.04 181.56 151.005 181.062 151 181C150.96 179.911 150.181 178.329 149 178C148.15 177.76 147.148 178.169 147 179C146.982 179.107 147 178.893 147 179C146.472 179.818 145.996 181.276 146 182C146 182.071 146.938 182.578 147 183C146.875 182.676 146.125 182.342 146 182C145.817 181.511 146.179 181.507 146 181C145.92 180.733 145.081 180.271 145 180C144.911 179.729 145.072 179.275 145 179C144.902 178.596 145.081 178.422 145 178C145.514 177.844 147.401 177.515 148 177C148.622 176.467 149.058 174.862 149 174C148.942 173.156 147.872 172.858 147 173C145.788 173.204 145.157 174.92 145 176C144.996 176.036 145.009 176.725 145 177C144.933 176.587 145.054 176.422 145 176C144.844 174.8 144.125 173.226 144 172C143.973 171.742 144.027 171.253 144 171C144.434 170.871 146.37 170.538 147 170C147.617 169.467 148.058 168.862 148 168C147.942 167.16 146.872 165.853 146 166C144.788 166.204 144.157 168.92 144 170C143.996 170.04 144.009 169.693 144 170C143.92 169.333 144.108 168.653 144 168C143.812 166.854 143.322 166.066 143 165C143.152 164.956 145.303 164.6 146 164C146.622 163.467 147.058 162.862 147 162C146.942 161.16 145.872 159.853 145 160C143.788 160.204 143.157 161.92 143 163C142.987 163.076 142.996 164.64 143 165C143 164.987 143.005 165.013 143 165C142.651 163.885 142.497 162.946 142 162C141.508 161.054 140.519 159.769 140 159C139.481 158.231 138.465 157.591 138 157C137.745 156.68 138.228 156.262 138 156C138 156 138.005 156 138 156C138.023 156 137.036 155.084 137 155C136.571 153.996 135.226 151.889 134 152C133.119 152.08 132.839 153.174 133 154C133.166 154.844 134.267 155.64 135 156C135.756 156.364 137.566 155.987 138 156C138.233 156.28 137.741 156.662 138 157C138.456 157.6 139.499 158.222 140 159C140.134 159.204 139.862 159.782 140 160C139.696 159.68 140.049 159.036 140 159C139.155 158.307 137.033 157.338 136 158C135.258 158.475 134.472 159.342 135 160C135.541 160.675 137.182 161.022 138 161Z" fill="black"/>
<path d="M140 160C140 160 140.008 159.086 140 159C139.883 158.004 140.03 155.476 141 155C141.697 154.66 142.759 155.262 143 156C143.249 156.75 142.397 157.373 142 158C141.533 158.734 140 159.996 140 160Z" fill="black"/>
<path d="M97 0V186" stroke="black" stroke-linecap="round" stroke-linejoin="round"/>
<g opacity="0.2">
<path d="M141 111C140.639 110.521 139.347 110.309 139 110C138.864 109.879 139.09 110.094 139 110C138.923 109.924 128.866 96.4628 128 95C127.743 94.5661 127.338 94.7023 127 94C126.057 92.0407 124.641 90.2863 124 90C123.955 89.9776 121.482 88.9394 119 88C120.561 87.3827 121.325 86.1114 121 84C120.765 82.4701 120.735 81.0333 120 80C119.102 78.7341 118.422 77.3778 119 76C119.392 75.0606 119.431 74.7068 120 74C121.015 72.7519 122.158 71.4156 122 69C121.783 65.739 119.454 57.7913 115 55C110.857 52.401 100.564 52.0089 99.9998 52C99.4717 51.9463 95.9701 51.5999 94.9998 53C94.7877 53.3042 94.1577 53.7003 93.9998 54C92.7632 53.7942 90.8618 53.8325 89.9998 55C88.9437 56.4315 90.9076 58.6356 91.9998 60C91.7064 60.4831 91.2706 61.5348 90.9998 62C89.4337 64.6974 89.6793 64.4587 89.9998 65C90.2254 65.3937 89.9501 66.7316 89.9998 67C89.0475 68.1139 87.3473 69.8032 86.9998 70C86.8012 70.1118 87.0133 69.8837 86.9998 70C86.9366 70.4563 87.3544 71.3558 87.9998 72H88.9998C89.0765 72.4608 89.6748 75.157 89.9998 77C89.9772 76.9821 90.0269 77.0134 89.9998 77C89.6478 76.7898 89.1397 76.8747 88.9998 77C88.1062 77.8097 86.1623 81.1053 85.9998 82C85.8915 82.6039 86.0088 84.9309 85.9998 86C85.7786 86.2863 85.1803 86.754 84.9998 87C80.0579 88.2123 75.0991 89.3111 74.9998 90C74.8373 91.1362 74.5846 104.769 74.9998 111C75.2029 114.046 75.1307 116.358 74.9998 118C74.8644 119.713 74.5575 120.208 74.9998 121C75.3292 121.586 76.1829 122.248 76.9998 123C77.8798 124.552 80.4021 127.806 81.9998 129C81.9682 129.081 81.0359 128.919 80.9998 129C80.9998 128.996 80.9998 129.004 80.9998 129C79.2622 133.424 76.5368 142.868 75.9998 151C75.2777 161.969 81.9276 185.763 81.9998 186C81.905 186 82.0269 186.089 81.9998 186H96.9998C97.1216 186 97.9998 186.121 97.9998 186V157C97.9998 156.749 97.747 156 97.9998 156C98.2525 156 98.9998 156.749 98.9998 157V186C98.8779 186 98.9998 186.121 98.9998 186H114C113.964 186.081 114.086 186 114 186C114.095 185.785 123.864 164.746 122 151C121.485 147.202 120.704 142.997 120 140C120.392 140.076 120.774 141.027 121 141C121.758 140.915 122.562 139.604 123 139C123.379 138.472 123.91 137.219 124 137L134 126C134.803 126.403 134.81 126 135 126C134.973 126.04 135.135 126 135 126C135.058 125.915 135.81 126.259 136 126C138.559 122.457 138.18 122.237 138 122C137.941 121.924 137.654 121.313 137 121C137.839 119.765 140.585 116.382 141 115C141.514 113.3 141.537 111.711 141 111ZM127 117V118C127 118 127.004 117.982 127 118L126 121C125.982 121.085 125.928 121.951 126 122C126.108 122.072 126.891 121.928 127 122L121 134C120.508 133.468 119.329 132.389 119 132C118.788 131.754 118.767 131.011 118 130C117.77 129.696 117.18 129.541 117 129C116.734 128.195 116.401 127.134 116 127C115.923 126.973 116.126 126.955 116 127C115.95 126.436 115.176 125.778 115 125C114.851 124.356 115.031 124.349 115 124C114.923 123.141 116.004 118.004 116 118L120 105L129 115C128.557 115.022 127.234 114.714 127 115C126.896 115.125 126.955 115.839 127 116C127.086 116.331 127.833 116.49 128 117C127.955 117.018 127.022 116.951 127 117ZM89.9998 79C90.2029 79.8857 91.3679 80.9553 91.9998 81C92.4285 81.0313 93.4356 80.0403 93.9998 80C94.0584 80.2818 94.8328 81.2216 94.9998 82C94.5755 82.2102 93.3383 83.1411 92.9998 84C92.5304 83.5929 92.5368 82.4071 91.9998 82C91.905 80.8861 91.3473 80.2729 90.9998 80C90.8283 79.8658 90.2164 79.9463 89.9998 80C89.553 80.1029 90.1397 80.4587 89.9998 81C89.7922 80.9866 89.09 80.9016 88.9998 81C88.9456 81.0537 89.0043 81.9418 88.9998 82C88.7922 82.2416 88.433 82.49 87.9998 83V82C88.2931 81.5392 89.8508 78.5815 89.9998 78C89.9772 78.1253 90.0088 77.9732 89.9998 78C90.081 78.4384 89.9637 78.8434 89.9998 79Z" fill="black"/>
</g>
<path d="M116 150C114.073 135.685 110 126 110 126L75.9997 125C75.9997 125 69.7472 138.571 68.9997 150C68.2522 161.429 74.9997 186 74.9997 186H90.9997V156C90.9997 155.618 91.6171 155 91.9997 155C92.3824 155 92.9997 155.618 92.9997 156V186H108C108 186 117.926 164.315 116 150Z" fill="black"/>
<path d="M116 150C114.073 135.685 110 126 110 126L75.9997 125C75.9997 125 69.7472 138.571 68.9997 150C68.2522 161.429 74.9997 186 74.9997 186H90.9997V156C90.9997 155.618 91.6171 155 91.9997 155C92.3824 155 92.9997 155.618 92.9997 156V186H108C108 186 117.926 164.315 116 150Z" stroke="black" stroke-linecap="round" stroke-linejoin="round"/>
<path d="M111 126L76 125C76 125 75.6446 126.373 75 128C76.9791 128.764 82.3543 130.119 92 131C101.609 131.881 108.109 128.636 111 127C110.773 126.42 111 126 111 126Z" fill="#999999"/>
<path d="M111 126L76 125C76 125 75.6446 126.373 75 128C76.9791 128.764 82.3543 130.119 92 131C101.609 131.881 108.109 128.636 111 127C110.773 126.42 111 126 111 126Z" stroke="black" stroke-linecap="round" stroke-linejoin="round"/>
<path d="M93.0001 131C93.0001 131 99.9643 133.327 101 133C102.036 132.673 101.977 130.659 101 130C100.023 129.345 94.0001 128 94.0001 128C94.0001 128 91.6289 127.289 91.0001 128C90.3669 128.711 91.4845 130.617 92.0001 131C92.5158 131.383 93.0001 131 93.0001 131Z" fill="#999999"/>
<path d="M93.0001 131C93.0001 131 99.9643 133.327 101 133C102.036 132.673 101.977 130.659 101 130C100.023 129.345 94.0001 128 94.0001 128C94.0001 128 91.6289 127.289 91.0001 128C90.3669 128.711 91.4845 130.617 92.0001 131C92.5158 131.383 93.0001 131 93.0001 131Z" stroke="black" stroke-linecap="round" stroke-linejoin="round"/>
<path d="M93 132C92.0554 132 91 130.926 91 130C91 129.074 92.0554 128 93 128C92.9125 127.987 93.0918 128 93 128C92.7114 127.844 92.3542 128 92 128C90.8805 128 90 128.9 90 130C90 131.1 90.8805 132 92 132C92.5248 132 92.6414 132.317 93 132C93.2274 132 92.7988 132.08 93 132Z" fill="#FFD5D5"/>
<path d="M93 132C92.0554 132 91 130.926 91 130C91 129.074 92.0554 128 93 128C93.0918 128 92.9125 127.987 93 128C92.7114 127.844 92.3542 128 92 128C90.8805 128 90 128.9 90 130C90 131.1 90.8805 132 92 132C92.5248 132 92.6414 132.317 93 132C92.7988 132.08 93.2274 132 93 132V132Z" stroke="black" stroke-linecap="round" stroke-linejoin="round"/>
<path d="M87.9998 81C87.9998 81 68.1704 85.8167 67.9998 87C67.8291 88.1789 67.573 101.594 67.9998 108C68.4265 114.402 67.1508 117.483 67.9998 119C68.8487 120.517 72.4922 123.577 72.9998 124C73.5073 124.423 75.9998 126 75.9998 126C75.9998 126 80.363 127.99 90.9998 129C101.632 130.01 109.914 126.841 110 126C110.085 125.159 109.081 122.925 109 122C108.914 121.075 110 116 110 116L115 102L124 113C124 113 121.829 112.324 122 113C122.17 113.676 123 116 123 116L132 119C132 119 135.488 113.686 136 112C136.512 110.314 136.512 109.672 136 109C135.488 108.324 134.341 107.338 134 107C133.658 106.662 122.853 93.4324 122 92C121.146 90.5675 119.939 87.4226 119 87C118.065 86.5774 111.19 84.0845 110 84C108.809 83.9155 101.66 79.5586 87.9998 81Z" fill="#00812A"/>
<path d="M87.9998 81C87.9998 81 68.1704 85.8167 67.9998 87C67.8291 88.1789 67.573 101.594 67.9998 108C68.4265 114.402 67.1508 117.483 67.9998 119C68.8487 120.517 72.4922 123.577 72.9998 124C73.5073 124.423 75.9998 126 75.9998 126C75.9998 126 80.363 127.99 90.9998 129C101.632 130.01 109.914 126.841 110 126C110.085 125.159 109.081 122.925 109 122C108.914 121.075 110 116 110 116L115 102L124 113C124 113 121.829 112.324 122 113C122.17 113.676 123 116 123 116L132 119C132 119 135.488 113.686 136 112C136.512 110.314 136.512 109.672 136 109C135.488 108.324 134.341 107.338 134 107C133.658 106.662 122.853 93.4324 122 92C121.146 90.5675 119.939 87.4226 119 87C118.065 86.5774 111.19 84.0845 110 84C108.809 83.9155 101.66 79.5586 87.9998 81Z" stroke="black" stroke-linecap="round" stroke-linejoin="round"/>
<path d="M77 95V94" stroke="black" stroke-linecap="round" stroke-linejoin="round"/>
<path d="M78 105L77 97" stroke="black" stroke-linecap="round" stroke-linejoin="round"/>
<path d="M115 102L117 95" stroke="black" stroke-linecap="round" stroke-linejoin="round"/>
<path d="M118 95L119 94" stroke="black" stroke-linecap="round" stroke-linejoin="round"/>
<path d="M116 101L118 97" stroke="black" stroke-linecap="round" stroke-linejoin="round"/>
<path d="M92.0002 121C91.5642 123.669 90.8241 125.81 91.0002 126C91.2392 126.251 92.0002 127 92.0002 127" stroke="black" stroke-linecap="round" stroke-linejoin="round"/>
<path d="M91.9998 100C91.9998 100 92.1715 113.899 91.9998 118C91.9772 118.587 92.0676 119.445 91.9998 120" stroke="black" stroke-linecap="round" stroke-linejoin="round"/>
<path d="M101 107C99.4167 106.933 99 107 99 107" stroke="black" stroke-linecap="round" stroke-linejoin="round"/>
<path d="M99 103C99 103 103.592 104 105 104C106.408 104 112 103 112 103V106C112 106 105.816 107 103 107" stroke="black" stroke-linecap="round" stroke-linejoin="round"/>
<path d="M109 113C110.483 112.46 111 108 111 108" stroke="black" stroke-linecap="round" stroke-linejoin="round"/>
<path d="M98.0001 108C98.0001 108 97.6604 113.591 98.0001 114C98.2548 114.306 102.984 114.177 106 114" stroke="black" stroke-linecap="round" stroke-linejoin="round"/>
<path d="M86 102H89V105H85" stroke="black" stroke-linecap="round" stroke-linejoin="round"/>
<path d="M89 108C89.1729 110.235 88.6865 113.823 88 114C86.9727 114.265 84 114 84 114" stroke="black" stroke-linecap="round" stroke-linejoin="round"/>
<path d="M87.9999 106C87.9999 106 87.9321 106.407 87.9999 107" stroke="black" stroke-linecap="round" stroke-linejoin="round"/>
<path d="M133 112C133.385 112.036 133.728 111.924 134 112" stroke="black" stroke-linecap="round" stroke-linejoin="round"/>
<path d="M125 112C125 112 128.332 111.946 131 112" stroke="black" stroke-linecap="round" stroke-linejoin="round"/>
<path d="M131 109C131 109 127.317 109.386 125 111" stroke="black" stroke-linecap="round" stroke-linejoin="round"/>
<path d="M90 50C90 50 85.5587 48.0797 84 50C82.4414 51.9203 87 56 87 56L93 49L90 50Z" fill="black"/>
<path d="M90 50C90 50 85.5587 48.0797 84 50C82.4414 51.9203 87 56 87 56L93 49L90 50Z" stroke="black" stroke-linecap="round" stroke-linejoin="round"/>
<path d="M88.9996 78C88.9996 78 87.3475 78.5968 86.9996 80C86.6471 81.4032 87.264 91.0172 86.9996 93C86.7352 94.9828 88.9996 93 88.9996 93L90.9996 90C90.9996 90 93.4477 94.1961 93.9996 94C94.5563 93.8039 96.6471 90.6732 96.9996 91C97.3522 91.3312 99.7352 95.2268 99.9996 93C100.264 90.7731 102.964 86.3709 102 82C101.035 77.6247 99.9996 78 99.9996 78H88.9996Z" fill="#00812A"/>
<path d="M88.9996 78C88.9996 78 87.3475 78.5968 86.9996 80C86.6471 81.4032 87.264 91.0172 86.9996 93C86.7352 94.9828 88.9996 93 88.9996 93L90.9996 90C90.9996 90 93.4477 94.1961 93.9996 94C94.5563 93.8039 96.6471 90.6732 96.9996 91C97.3522 91.3312 99.7352 95.2268 99.9996 93C100.264 90.7731 102.964 86.3709 102 82C101.035 77.6247 99.9996 78 99.9996 78H88.9996Z" stroke="black" stroke-linecap="round" stroke-linejoin="round"/>
<path d="M88.9998 50C88.9998 50 86.6966 54.0829 84.9998 57C83.3076 59.9171 83.6876 59.4569 83.9998 60C84.312 60.543 83.9998 62 83.9998 62C83.9998 62 81.5473 64.6903 80.9998 65C80.4524 65.3096 81.3438 66.3448 81.9998 67L82.9998 68C82.9998 68 83.8008 74.1204 83.9998 75C84.1989 75.8796 85.475 75.9641 85.9998 76C86.5247 76.0359 87.9998 76 87.9998 76C87.9998 76 90.2578 84.0723 91.9998 89C93.7418 93.9321 93.4795 94.4353 93.9998 94C94.5247 93.5691 97.819 88.5628 99.9998 80C102.181 71.4371 103 71 103 71C103 71 103.746 61.4385 101 57C98.2534 52.5615 92.3572 48.2407 88.9998 50Z" fill="#FFD5D5"/>
<path d="M88.9998 50C88.9998 50 86.6966 54.0829 84.9998 57C83.3076 59.9171 83.6876 59.4569 83.9998 60C84.312 60.543 83.9998 62 83.9998 62C83.9998 62 81.5473 64.6903 80.9998 65C80.4524 65.3096 81.3438 66.3448 81.9998 67L82.9998 68C82.9998 68 83.8008 74.1204 83.9998 75C84.1989 75.8796 85.475 75.9641 85.9998 76C86.5247 76.0359 87.9998 76 87.9998 76C87.9998 76 90.2578 84.0723 91.9998 89C93.7418 93.9321 93.4795 94.4353 93.9998 94C94.5247 93.5691 97.819 88.5628 99.9998 80C102.181 71.4371 103 71 103 71C103 71 103.746 61.4385 101 57C98.2534 52.5615 92.3572 48.2407 88.9998 50Z" stroke="black" stroke-linecap="round" stroke-linejoin="round"/>
<path d="M90 61C90 61.5504 89.5529 62 89 62C88.4471 62 88 61.5504 88 61C88 60.4496 88.4471 60 89 60C89.5529 60 90 60.4496 90 61Z" fill="black"/>
<path d="M92 59C89.3593 54.8314 87 58 87 58" stroke="black" stroke-linecap="round" stroke-linejoin="round"/>
<path d="M84 62C84 62 84.9116 61.8477 85 61V60" stroke="black" stroke-linecap="round" stroke-linejoin="round"/>
<path d="M88 76H93L90 82L88 76Z" fill="black"/>
<path d="M88 76H93L90 82L88 76Z" stroke="black" stroke-linecap="round" stroke-linejoin="round"/>
<path d="M85 68H86" stroke="black" stroke-linecap="round" stroke-linejoin="round"/>
<path d="M94.9999 47C94.9999 47 89.9708 46.6085 88.9999 48C88.029 49.3871 86.8594 50.2274 88.9999 52C91.1404 53.7726 94.1083 55.4667 93.9999 57C93.8915 58.5333 95.8077 60.5746 96.9999 61C98.192 61.4254 99.6998 59.567 98.9999 62C98.2999 64.4329 94.2006 64.5212 94.9999 68C95.7992 71.4788 98.2011 73.0516 96.9999 74C95.7987 74.9439 92.2999 76.9894 92.9999 81C93.6953 85.015 98.6095 88.2052 97.9999 90C97.3903 91.7948 92.0902 92.3499 91.9999 95C91.9141 97.6501 94.9994 100.575 96.9999 101C99.0004 101.425 101 101 101 101C101 101 99.1329 97.4254 99.9999 97C100.871 96.5746 105.171 96.4535 109 95C112.829 93.5464 112.781 88.5377 112 87C111.219 85.4622 110.219 85.0281 111 84C111.781 82.9763 116.537 83.4611 116 80C115.463 76.5389 111.844 74.7476 113 72C114.156 69.2524 117.253 67.7846 117 64C116.747 60.2154 114.344 52.6944 110 50C105.656 47.3056 94.9999 47 94.9999 47Z" fill="black"/>
<path d="M94.9999 47C94.9999 47 89.9708 46.6085 88.9999 48C88.029 49.3871 86.8594 50.2274 88.9999 52C91.1404 53.7726 94.1083 55.4667 93.9999 57C93.8915 58.5333 95.8077 60.5746 96.9999 61C98.192 61.4254 99.6998 59.567 98.9999 62C98.2999 64.4329 94.2006 64.5212 94.9999 68C95.7992 71.4788 98.2011 73.0516 96.9999 74C95.7987 74.9439 92.2999 76.9894 92.9999 81C93.6953 85.015 98.6095 88.2052 97.9999 90C97.3903 91.7948 92.0902 92.3499 91.9999 95C91.9141 97.6501 94.9994 100.575 96.9999 101C99.0004 101.425 101 101 101 101C101 101 99.1329 97.4254 99.9999 97C100.871 96.5746 105.171 96.4535 109 95C112.829 93.5464 112.781 88.5377 112 87C111.219 85.4622 110.219 85.0281 111 84C111.781 82.9763 116.537 83.4611 116 80C115.463 76.5389 111.844 74.7476 113 72C114.156 69.2524 117.253 67.7846 117 64C116.747 60.2154 114.344 52.6944 110 50C105.656 47.3056 94.9999 47 94.9999 47Z" stroke="black" stroke-linecap="round" stroke-linejoin="round"/>
<path d="M73 113C73 113 69.6552 119.003 70 120C70.3449 120.997 74.0263 127.501 76 127C77.9738 126.499 81.4011 123.497 82 122C82.6035 120.503 83 116 83 116C83 116 78.2025 117.351 77 117C75.7976 116.649 73 113 73 113Z" fill="#00812A"/>
<path d="M73 113C73 113 69.6552 119.003 70 120C70.3449 120.997 74.0263 127.501 76 127C77.9738 126.499 81.4011 123.497 82 122C82.6035 120.503 83 116 83 116C83 116 78.2025 117.351 77 117C75.7976 116.649 73 113 73 113Z" stroke="black" stroke-linecap="round" stroke-linejoin="round"/>
<path d="M86.0004 89C86.0004 89 85.5488 87.4861 85.0004 86C84.452 84.5184 85.0004 81.6538 85.0004 80C85.0004 78.3462 84.9319 75.7735 84.0004 76C83.069 76.2265 82.8394 78.9171 83.0004 80C83.1615 81.0829 82.2442 83.71 82.0004 84C81.7567 84.29 82.0004 85 82.0004 85C82.0004 85 84.1778 89.2026 85.0004 90C85.8231 90.7974 86.0004 89 86.0004 89Z" fill="#FFD5D5"/>
<path d="M86.0004 89C86.0004 89 85.5488 87.4861 85.0004 86C84.452 84.5184 85.0004 81.6538 85.0004 80C85.0004 78.3462 84.9319 75.7735 84.0004 76C83.069 76.2265 82.8394 78.9171 83.0004 80C83.1615 81.0829 82.2442 83.71 82.0004 84C81.7567 84.29 82.0004 85 82.0004 85C82.0004 85 84.1778 89.2026 85.0004 90C85.8231 90.7974 86.0004 89 86.0004 89Z" stroke="black" stroke-linecap="round" stroke-linejoin="round"/>
<path d="M79.0002 83C79.0002 83 78.8515 78.8622 79.0002 78C79.1489 77.1332 81.0947 73.8668 82.0002 73C82.9057 72.1332 83.1533 73.3704 83.0002 74C82.8515 74.6295 81.0002 78 81.0002 78V81L79.0002 83Z" fill="#FFD5D5"/>
<path d="M79.0002 83C79.0002 83 78.8515 78.8622 79.0002 78C79.1489 77.1332 81.0947 73.8668 82.0002 73C82.9057 72.1332 83.1533 73.3704 83.0002 74C82.8515 74.6295 81.0002 78 81.0002 78V81L79.0002 83Z" stroke="black" stroke-linecap="round" stroke-linejoin="round"/>
<path d="M83 78C83 78 78.0767 83.3161 78 84C77.9233 84.6838 82.9188 92.775 83 93C83.0767 93.2294 77 106 77 106L74 112C74 112 75.9892 115.782 77 117C78.0108 118.218 79.2238 118.379 80 118C80.7762 117.621 83 115 83 115L86 93C86 93 87 90.9132 87 90C87 89.0867 83 85 83 85L84 84C84 84 88.4585 85.3794 89 85C89.546 84.6206 89 84 89 84L87 83C87 83 89 83.4897 89 83C89 82.7794 88 82 88 82C88 82 88.3881 81.4544 88 81C87.6119 80.5456 84.8529 78.2294 84 78C83.1426 77.7706 83 78 83 78Z" fill="#FFD5D5"/>
<path d="M83 78C83 78 78.0767 83.3161 78 84C77.9233 84.6838 82.9188 92.775 83 93C83.0767 93.2294 77 106 77 106L74 112C74 112 75.9892 115.782 77 117C78.0108 118.218 79.2238 118.379 80 118C80.7762 117.621 83 115 83 115L86 93C86 93 87 90.9132 87 90C87 89.0867 83 85 83 85L84 84C84 84 88.4585 85.3794 89 85C89.546 84.6206 89 84 89 84L87 83C87 83 89 83.4897 89 83C89 82.7794 88 82 88 82C88 82 88.3881 81.4544 88 81C87.6119 80.5456 84.8529 78.2294 84 78C83.1426 77.7706 83 78 83 78Z" stroke="black" stroke-linecap="round" stroke-linejoin="round"/>
<path d="M88 82C88 82 84.5816 79.5203 84 79C83.4184 78.4797 81.3736 80.5165 81 81" fill="#FFD5D5"/>
<path d="M88 82C88 82 84.5816 79.5203 84 79C83.4184 78.4797 81.3736 80.5165 81 81" stroke="black" stroke-linecap="round" stroke-linejoin="round"/>
<path d="M87 83C87 83 84.7962 81.6233 84 81C83.208 80.3767 82.2086 80.8086 82 81C81.7914 81.1914 80 84 80 84" fill="#FFD5D5"/>
<path d="M87 83C87 83 84.7962 81.6233 84 81C83.208 80.3767 82.2086 80.8086 82 81C81.7914 81.1914 80 84 80 84" stroke="black" stroke-linecap="round" stroke-linejoin="round"/>
<path d="M73.9998 109C73.9998 109 76.9765 116 77.9998 116C79.0232 116 82.9998 113 82.9998 113C82.9998 113 84.2568 116.382 83.9998 117C83.7428 117.618 78.1088 121 76.9998 121C75.8908 121 70.2334 114.408 70.9998 113C71.7662 111.592 73.4859 108.647 73.9998 109Z" fill="#00812A"/>
<path d="M73.9998 109C73.9998 109 76.9765 116 77.9998 116C79.0232 116 82.9998 113 82.9998 113C82.9998 113 84.2568 116.382 83.9998 117C83.7428 117.618 78.1088 121 76.9998 121C75.8908 121 70.2334 114.408 70.9998 113C71.7662 111.592 73.4859 108.647 73.9998 109Z" stroke="black" stroke-linecap="round" stroke-linejoin="round"/>
<path d="M116 133C116 133 114.563 131.65 114 131C113.812 130.783 112.902 130.165 112 129C111.334 128.138 111.764 125.493 111 126C110.24 126.507 109.687 128.459 110 129C110.312 129.541 110.964 129.753 111 130C111.035 130.247 112 132 112 132C112 132 114.785 135.689 115 135C115.214 134.316 116 133 116 133Z" fill="#FFD5D5"/>
<path d="M116 133C116 133 114.563 131.65 114 131C113.812 130.783 112.902 130.165 112 129C111.334 128.138 111.764 125.493 111 126C110.24 126.507 109.687 128.459 110 129C110.312 129.541 110.964 129.753 111 130C111.035 130.247 112 132 112 132C112 132 114.785 135.689 115 135C115.214 134.316 116 133 116 133Z" stroke="black" stroke-linecap="round" stroke-linejoin="round"/>
<path d="M123 119L115 134C115 134 108.332 130 108 130C107.668 130 104.577 131.588 104 132C103.418 132.412 102.164 135.253 102 136C101.832 136.747 102.418 137.416 103 137C103.582 136.588 105 134 105 134L107 132C107 132 105.086 135.67 105 136C104.918 136.33 103 139.507 103 140C103 140.493 104 140 104 140C104 140 103.586 142 104 142C104.414 142 106.418 140.498 107 140C107.582 139.502 108 138 108 138L110 137C110 137 108.332 139.588 108 140C107.668 140.412 106.168 142.833 107 143C107.832 143.167 110 141 110 141L112 139C112 139 114.25 140.086 115 140C115.75 139.919 117.582 138.579 118 138C118.414 137.421 119 136 119 136L130 123L123 119Z" fill="#FFD5D5"/>
<path d="M123 119L115 134C115 134 108.332 130 108 130C107.668 130 104.577 131.588 104 132C103.418 132.412 102.164 135.253 102 136C101.832 136.747 102.418 137.416 103 137C103.582 136.588 105 134 105 134L107 132C107 132 105.086 135.67 105 136C104.918 136.33 103 139.507 103 140C103 140.493 104 140 104 140C104 140 103.586 142 104 142C104.414 142 106.418 140.498 107 140C107.582 139.502 108 138 108 138L110 137C110 137 108.332 139.588 108 140C107.668 140.412 106.168 142.833 107 143C107.832 143.167 110 141 110 141L112 139C112 139 114.25 140.086 115 140C115.75 139.919 117.582 138.579 118 138C118.414 137.421 119 136 119 136L130 123L123 119Z" stroke="black" stroke-linecap="round" stroke-linejoin="round"/>
<path d="M104 140L108 136C108 136 109.615 134.773 111 135" fill="#FFD5D5"/>
<path d="M104 140L108 136C108 136 109.615 134.773 111 135" stroke="black" stroke-linecap="round" stroke-linejoin="round"/>
<path d="M107 133C107 133 108.141 132 109 132L107 133Z" fill="#FFD5D5"/>
<path d="M107 133C107 133 108.141 132 109 132" stroke="black" stroke-linecap="round" stroke-linejoin="round"/>
<path d="M122 116L121 120C121 120 129.665 125.517 130 125C130.335 124.483 133.252 120.343 133 120C132.748 119.657 122 115 122 115V116Z" fill="#00812A"/>
<path d="M122 116L121 120C121 120 129.665 125.517 130 125C130.335 124.483 133.252 120.343 133 120C132.748 119.657 122 115 122 115V116Z" stroke="black" stroke-linecap="round" stroke-linejoin="round"/>
</g>
<defs>
<clipPath id="clip0_163_9057">
<rect width="189" height="188" fill="white"/>
</clipPath>
</defs>
</svg>
