<svg width="198" height="147" viewBox="0 0 198 147" fill="none" xmlns="http://www.w3.org/2000/svg">
<g clip-path="url(#clip0_163_9280)">
<path d="M98.5 147C140.75 147 175.5 145.485 175.5 143C175.5 140.515 140.75 138 98.5 138C56.2502 138 22.5 140.515 22.5 143C22.5 145.485 56.2502 147 98.5 147Z" fill="#F5F5F5"/>
<path d="M94.5 112H17.5C16.2524 112 15.5 111.247 15.5 110V2C15.5 0.752696 16.2524 0 17.5 0H94.5C95.7476 0 96.5 0.752696 96.5 2V110C96.5 111.247 95.7476 112 94.5 112ZM17.5 0C16.3079 0 15.5 0.808132 15.5 2V110C15.5 111.192 16.3079 112 17.5 112H94.5C95.6921 112 96.5 111.192 96.5 110V2C96.5 0.808132 95.6921 0 94.5 0H17.5Z" fill="#EBEBEB"/>
<path d="M179.5 112H102.5C101.252 112 100.5 111.247 100.5 110V2C100.5 0.752696 101.252 0 102.5 0H179.5C180.748 0 181.5 0.752696 181.5 2V110C181.5 111.247 180.748 112 179.5 112ZM102.5 0C101.308 0 100.5 0.808132 100.5 2V110C100.5 111.192 101.308 112 102.5 112H179.5C180.692 112 181.5 111.192 181.5 110V2C181.5 0.808132 180.692 0 179.5 0H102.5Z" fill="#EBEBEB"/>
<path d="M168 14.5V75.5H111V14.5L168 14.5Z" fill="white" stroke="black"/>
<path d="M104.5 12H171.5C171.816 12 172.5 12.7245 172.5 13C172.5 13.2755 171.816 13 171.5 13H104.5C104.184 13 103.5 13.2755 103.5 13C103.5 12.7245 104.184 12 104.5 12Z" fill="white"/>
<path d="M171.437 12.4917C171.437 12.4917 171.438 12.4919 171.44 12.4925C171.438 12.492 171.437 12.4917 171.437 12.4917ZM172.009 13.0724C172.01 13.0747 172.011 13.0758 172.011 13.0758C172.011 13.0758 172.01 13.0746 172.009 13.0724ZM103.989 13.0758C103.989 13.0758 103.99 13.0747 103.991 13.0724C103.99 13.0746 103.989 13.0758 103.989 13.0758ZM104.56 12.4925C104.562 12.4919 104.563 12.4917 104.563 12.4917C104.563 12.4917 104.562 12.492 104.56 12.4925Z" stroke="black"/>
<path d="M167 14.5V75.5L109 75.5V14.5L167 14.5Z" fill="#F0F0F0" stroke="black"/>
<path d="M168 76.5V77.5H111V76.5H168Z" fill="white" stroke="black"/>
<path d="M162 76.5V77.5L104 77.5V76.5L162 76.5Z" fill="#F0F0F0" stroke="black"/>
<path d="M112 17.5L163 17.5V71.5H112V17.5Z" fill="#FAFAFA" stroke="black"/>
<path d="M151.5 72L131.5 17H121.5L141.5 72H151.5Z" fill="white"/>
<path d="M122.214 17.5H131.15L150.786 71.5H141.85L122.214 17.5Z" stroke="black"/>
<path d="M140.5 72L120.5 17H116.5L136.5 72H140.5Z" fill="white"/>
<path d="M117.214 17.5H120.15L139.786 71.5H136.85L117.214 17.5Z" stroke="black"/>
<path d="M111.5 17V72V72V17V17Z" stroke="black"/>
<g opacity="0.6">
<path d="M125.5 67H105.5L106.5 11H126.5L125.5 67Z" fill="#F0F0F0"/>
<path d="M125.991 11.5L125.009 66.5H106.009L106.991 11.5H125.991Z" stroke="black"/>
<path d="M132.5 67H117.5L118.5 11H133.5L132.5 67Z" fill="white"/>
<path d="M132.991 11.5L132.009 66.5H118.009L118.991 11.5H132.991Z" stroke="black"/>
<path d="M145.5 67H125.5L126.5 11H146.5L145.5 67Z" fill="#F0F0F0"/>
<path d="M145.991 11.5L145.009 66.5H126.009L126.991 11.5H145.991Z" stroke="black"/>
<path d="M152.5 67H137.5L138.5 11H153.5L152.5 67Z" fill="white"/>
<path d="M152.991 11.5L152.009 66.5H138.009L138.991 11.5H152.991Z" stroke="black"/>
<path d="M164.5 67H144.5L145.5 11H165.5L164.5 67Z" fill="#F0F0F0"/>
<path d="M164.991 11.5L164.009 66.5H145.009L145.991 11.5H164.991Z" stroke="black"/>
</g>
<path d="M35 8.5L88 8.5V66.5H35L35 8.5Z" fill="#EBEBEB" stroke="black"/>
<path d="M88.5 8V67V67V8V8Z" stroke="black"/>
<path d="M84 12.5V62.5L39 62.5L39 12.5L84 12.5Z" fill="#F5F5F5" stroke="black"/>
<path d="M75 47.5V64.5H63V47.5H75Z" fill="white" stroke="#00812A"/>
<path d="M47.5 67H60.5L61.5 49H48.5L47.5 67Z" fill="white"/>
<path d="M60.9715 49.5L60.027 66.5H48.0285L48.973 49.5H60.9715Z" stroke="#00812A"/>
<path d="M36.5 45H49.5L50.5 27H37.5L36.5 45Z" fill="white"/>
<path d="M49.9715 27.5L49.027 44.5H37.0285L37.973 27.5H49.9715Z" stroke="#00812A"/>
<path d="M85.599 15.4916L85.0226 28.4789L76.0311 28.0895L76.6074 15.1023L85.599 15.4916Z" fill="white" stroke="#00812A"/>
<path d="M46.599 9.49165L46.0226 22.4789L37.0311 22.0895L37.6074 9.10232L46.599 9.49165Z" fill="white" stroke="#00812A"/>
<path d="M75.8187 44.5053L75.9932 31.5065L84.9925 31.6244L84.8179 44.6232L75.8187 44.5053Z" fill="white" stroke="#00812A"/>
<path d="M72.1644 14.5266L72.9855 42.5145L52.9937 43.0868L52.1726 15.0988L72.1644 14.5266Z" fill="white" stroke="#00812A"/>
<path d="M26 74.5H47V128.5H26L26 74.5Z" fill="#F0F0F0" stroke="black"/>
<path d="M27 75.5H46V90.5H27V75.5Z" fill="white" stroke="black"/>
<path d="M27 93.5H46V108.5H27V93.5Z" fill="white" stroke="black"/>
<path d="M27 111.5H46V126.5H27V111.5Z" fill="white" stroke="black"/>
<path d="M27 75.5H34V90.5H27V75.5Z" fill="#E0E0E0" stroke="black"/>
<path d="M27 93.5H34V108.5H27V93.5Z" fill="#E0E0E0" stroke="black"/>
<path d="M27 111.5H34V126.5H27V111.5Z" fill="#E0E0E0" stroke="black"/>
<path d="M48 74.5H53V128.5H48V74.5Z" fill="#F5F5F5" stroke="black"/>
<path d="M49 74.5H70V128.5H49V74.5Z" fill="#F0F0F0" stroke="black"/>
<path d="M50 75.5H69V90.5H50V75.5Z" fill="white" stroke="black"/>
<path d="M50 93.5H69V108.5H50V93.5Z" fill="white" stroke="black"/>
<path d="M50 111.5H69V126.5H50V111.5Z" fill="white" stroke="black"/>
<path d="M50 75.5H57V90.5H50V75.5Z" fill="#E0E0E0" stroke="black"/>
<path d="M50 93.5H57V108.5H50V93.5Z" fill="#E0E0E0" stroke="black"/>
<path d="M50 111.5H57V126.5H50V111.5Z" fill="#E0E0E0" stroke="black"/>
<path d="M71 74.5H76V128.5H71V74.5Z" fill="#F5F5F5" stroke="black"/>
<path d="M42.5 106C42.5 107.658 40.2625 109 37.5 109C34.7375 109 32.5 107.658 32.5 106H42.5Z" fill="#F0F0F0"/>
<path d="M41.9039 106.5C41.741 106.922 41.3697 107.338 40.7787 107.693C39.9641 108.182 38.8063 108.5 37.5 108.5C36.1937 108.5 35.0359 108.182 34.2213 107.693C33.6303 107.338 33.259 106.922 33.0961 106.5H41.9039Z" stroke="black"/>
<path d="M42.5 104C42.5 105.658 40.2625 107 37.5 107C34.7375 107 32.5 105.658 32.5 104H42.5Z" fill="#F0F0F0"/>
<path d="M41.9039 104.5C41.741 104.922 41.3697 105.338 40.7787 105.693C39.9641 106.182 38.8063 106.5 37.5 106.5C36.1937 106.5 35.0359 106.182 34.2213 105.693C33.6303 105.338 33.259 104.922 33.0961 104.5H41.9039Z" stroke="black"/>
<path d="M67.5 88C67.5 89.6575 64.0921 91 60.5 91C56.9079 91 54.5 89.6575 54.5 88H67.5Z" fill="#FAFAFA"/>
<path d="M66.8289 88.5C66.7633 88.5982 66.6769 88.7005 66.5659 88.8065C66.2496 89.1089 65.771 89.4029 65.1545 89.6601C63.924 90.1735 62.241 90.5 60.5 90.5C58.7591 90.5 57.3434 90.1736 56.3824 89.6773C55.6924 89.321 55.2867 88.9085 55.1084 88.5H66.8289Z" stroke="black"/>
<path d="M67.5 86C67.5 87.6575 64.0921 89 60.5 89C56.9079 89 54.5 87.6575 54.5 86H67.5Z" fill="#FAFAFA"/>
<path d="M66.8289 86.5C66.7633 86.5982 66.6769 86.7005 66.5659 86.8065C66.2496 87.1089 65.771 87.4029 65.1545 87.6601C63.924 88.1735 62.241 88.5 60.5 88.5C58.7591 88.5 57.3434 88.1736 56.3824 87.6773C55.6924 87.321 55.2867 86.9085 55.1084 86.5H66.8289Z" stroke="black"/>
<path d="M67 113.5V126.5H52V113.5H67Z" fill="#F0F0F0" stroke="black"/>
<path d="M68 126.5V113.5H69V126.5H68Z" fill="#E0E0E0" stroke="black"/>
<path d="M43 78.5V91.5H28V78.5H43Z" fill="#F0F0F0" stroke="black"/>
<path d="M44 91.5V78.5H45V91.5H44Z" fill="#E0E0E0" stroke="black"/>
<path d="M108 100.5V128.5H106V100.5H108Z" fill="white" stroke="black"/>
<path d="M106 100.5V128.5H105V100.5H106Z" fill="#F0F0F0" stroke="black"/>
<path d="M105 102.5V100.5H147V102.5H105Z" fill="#F0F0F0" stroke="black"/>
<path d="M169 100.5V128.5H167V100.5H169Z" fill="white" stroke="black"/>
<path d="M168 100.5V128.5H167V100.5H168Z" fill="#F0F0F0" stroke="black"/>
<path d="M149 102.5V100.5H170V102.5H149Z" fill="white" stroke="black"/>
<path d="M150 100.5V128.5H148V100.5H150Z" fill="white" stroke="black"/>
<path d="M148 100.5V128.5H147V100.5H148Z" fill="#F0F0F0" stroke="black"/>
<path d="M118.5 137H112.5V105H107.5V137H101.5V139H118.5V137Z" fill="#263238"/>
<g opacity="0.4">
<path d="M118.5 137H112.5V105H107.5V137H101.5V139H118.5V137Z" fill="#00812A"/>
</g>
<path d="M108.5 62C116.715 62 125.286 62 133.5 62C129.275 75.2493 127.492 88.7468 127.5 102C119.286 102 110.715 102 102.5 102C102.492 88.7507 104.275 75.2532 108.5 62Z" fill="#00812A"/>
<g opacity="0.3">
<path d="M108.5 62C116.715 62 125.286 62 133.5 62C129.275 75.2493 127.492 88.7468 127.5 102C119.286 102 110.715 102 102.5 102C102.492 88.7507 104.275 75.2532 108.5 62Z" fill="black"/>
</g>
<path d="M106.5 62C114.715 62 123.286 62 131.5 62C127.275 75.2493 125.492 88.7468 125.5 102C117.286 102 108.715 102 100.5 102C100.492 88.7507 102.275 75.2532 106.5 62Z" fill="#00812A"/>
<path d="M121.5 106H86.5C87.9717 102.9 90.6075 101 93.5 101H119.5L121.5 106Z" fill="#00812A"/>
<path d="M128.5 106H111.5C112.974 102.9 115.604 101 118.5 101H124.5C127.396 101 128.94 102.619 128.5 106Z" fill="#00812A"/>
<g opacity="0.3">
<path d="M128.5 106H111.5C112.974 102.9 115.604 101 118.5 101H124.5C127.396 101 128.94 102.619 128.5 106Z" fill="black"/>
</g>
<path d="M93.5 137H90.5L88.5 129H91.5L93.5 137Z" fill="#FFC3BD"/>
<path d="M90.5 136L94.5 135C94.4756 134.862 94.6344 134.983 94.5 135L95.5 138C95.557 138.318 94.8096 138.961 94.5 139C93.2131 139.155 93.121 138.772 91.5 139C90.5022 139.138 86.8888 139.991 85.5 140C84.1398 140.009 83.9136 138.133 84.5 138C87.1391 137.394 89.6692 136.895 90.5 136C90.6507 135.837 90.3045 136.03 90.5 136Z" fill="#263238"/>
<g opacity="0.2">
<path d="M91.5 129H88.5L89.5 133H92.5L91.5 129Z" fill="black"/>
</g>
<path d="M104.5 90C104.5 90 79.502 91.9311 80.4998 101C81.9359 114.038 87.4998 131 87.4998 131L93.4998 130C93.4998 130 90.7794 114.157 89.4998 104C95.6746 101.44 112.532 104.335 114.5 99C116.108 94.6358 115.5 90 115.5 90H104.5Z" fill="#263238"/>
<g opacity="0.3">
<path d="M92.5 98C92.5 98 93.0546 100.948 93.5 104C93.4831 104.004 93.517 103.996 93.5 104C93.2667 104.033 92.7207 103.963 92.5 104C92.3855 104.024 92.6104 103.98 92.5 104C92.3643 104.02 92.6316 103.976 92.5 104C91.9273 104.11 90.9879 104.849 90.5 105C90.3728 105.037 90.6146 104.963 90.5 105C90.3431 105.049 89.6443 104.939 89.5 105C89.657 106.212 90.4958 107.605 90.5 109C84.5308 102.215 89.3521 98 92.5 98Z" fill="black"/>
</g>
<path d="M94.5 132L87.5 133L86.5 131L93.5 129L94.5 132Z" fill="#00812A"/>
<path d="M89.4998 137C89.8541 136.949 90.2317 137.106 90.4998 137C90.4998 137.041 90.5333 136.985 90.4998 137C90.4998 136.959 90.5285 137.02 90.4998 137C90.3657 136.924 88.945 135.737 88.4998 136C88.3945 136.061 88.5141 135.863 88.4998 136C88.4806 136.223 88.3609 136.889 88.4998 137C88.6721 137.142 89.1982 137.041 89.4998 137ZM90.4998 137C89.8295 137.243 88.7056 137.162 88.4998 137C88.4136 136.934 88.4854 136.152 88.4998 136C88.4519 136.03 88.5046 135.929 88.4998 136C88.7392 135.858 90.0114 136.762 90.4998 137Z" fill="#00812A"/>
<path d="M90.4997 136C90.4916 136.006 90.4997 136 90.4997 136C90.4997 136.017 90.5198 135.989 90.4997 136C90.4997 135.971 90.8662 135.194 90.4997 135C90.399 134.949 89.6205 134.98 89.4997 135C89.3506 135.026 89.5118 134.906 89.4997 135C89.4715 135.257 90.1492 135.894 90.4997 136C90.5118 136.003 90.4876 136.003 90.4997 136ZM89.4997 135C89.4473 134.974 89.5641 134.994 89.4997 135C89.7212 135.114 90.4674 135.78 90.4997 136C90.1855 135.857 89.4795 135.171 89.4997 135C89.4997 134.969 89.3909 135.02 89.4997 135C89.5118 135 89.4876 135.003 89.4997 135Z" fill="#00812A"/>
<path d="M107.5 65C107.22 66.2131 106.836 67.841 106.5 69C106.153 70.1474 105.907 70.8642 105.5 72C105.097 73.1358 104.974 73.8796 104.5 75C104.03 76.1242 103.065 77.8951 102.5 79C102.074 79.5911 101.899 79.7064 101.5 80C101.097 80.2898 99.883 80.7991 99.5 81C98.7419 81.4018 98.2423 81.7373 97.5 82C96.7538 82.255 96.2502 82.8184 95.5 83C94.7459 83.1777 94.2897 82.8957 93.5 83L92.5 81L94.5 80C95.1199 79.6562 95.9156 79.3593 96.5 79C97.0883 78.6523 97.0143 78.3632 97.5 78C97.7409 77.8184 98.3381 77.1739 98.5 77C98.5197 77.0155 98.6619 76.8339 98.5 77C98.9264 75.9723 99.117 75.0663 99.5 74C99.8712 72.9298 100.156 72.0895 100.5 71C100.836 69.9067 101.18 68.1011 101.5 67C101.828 65.9105 102.204 65.0624 102.5 64L107.5 65Z" fill="#FFC3BD"/>
<path d="M102.5 64C99.9718 67.0966 98.5 72 98.5 72L105.5 76C107.409 73.5195 109.404 67.2153 109.5 65C109.649 61.5975 105.223 60.6668 102.5 64Z" fill="#00812A"/>
<g opacity="0.5">
<path d="M102.5 64C99.9718 67.0966 98.5 72 98.5 72L105.5 76C107.409 73.5195 109.404 67.2153 109.5 65C109.649 61.5975 105.223 60.6668 102.5 64Z" fill="white"/>
</g>
<g opacity="0.5">
<path d="M105.5 67C104.02 68.3126 102.959 71.3542 102.5 74L105.5 76C106.47 74.7537 107.632 72.2401 108.5 70C107.805 67.7765 106.808 65.8406 105.5 67Z" fill="#00812A"/>
</g>
<path d="M104.5 138H101.5L99.4995 131H102.5L104.5 138Z" fill="#FFC3BD"/>
<path d="M101.5 137H105.5C105.492 136.857 105.633 137 105.5 137V140C105.52 140.324 104.807 141.004 104.5 141C103.215 140.978 103.123 141 101.5 141C100.502 141 96.8809 141 95.4996 141C94.1183 141 93.914 139.134 94.4996 139C97.1167 138.408 99.5747 137.778 100.5 137C100.665 136.862 101.302 137 101.5 137Z" fill="#263238"/>
<g opacity="0.2">
<path d="M102.5 131H99.4995L100.5 135H103.5L102.5 131Z" fill="black"/>
</g>
<path d="M111.5 90C111.5 90 89.9766 91.7433 90.4996 101C91.0702 111.14 99.4996 134 99.4996 134H105.5C105.5 134 102.795 113.323 101.5 103C107.487 103 119.507 104.418 121.5 99C123.128 94.5646 122.5 90 122.5 90H111.5Z" fill="#263238"/>
<path d="M105.5 134H98.4995L97.4995 131H105.5V134Z" fill="#00812A"/>
<path d="M100.5 138C100.864 138 101.213 138.068 101.5 138C101.495 138.034 101.534 137.99 101.5 138C101.505 137.966 101.529 138.019 101.5 138C101.373 137.913 99.9811 136.811 99.4998 137C99.3879 137.044 99.5289 136.874 99.4998 137C99.4511 137.209 99.3734 137.879 99.4998 138C99.6553 138.155 100.193 138 100.5 138ZM101.5 138C100.795 138.141 99.6797 138.179 99.4998 138C99.422 137.922 99.4657 137.145 99.4998 137C99.4463 137.024 99.5144 136.932 99.4998 137C99.7575 136.898 101.043 137.709 101.5 138Z" fill="#00812A"/>
<path d="M101.5 137C101.486 137.005 101.5 137 101.5 137C101.5 137.016 101.527 136.992 101.5 137C101.5 136.973 101.879 136.215 101.5 136C101.398 135.943 100.643 135.989 100.5 136C100.328 136.011 100.532 135.913 100.5 136C100.412 136.242 101.124 136.867 101.5 137C101.514 137.005 101.481 137 101.5 137ZM100.5 136C100.574 136 101.444 135.967 101.5 136C101.727 136.128 101.514 136.791 101.5 137C101.171 136.837 100.444 136.158 100.5 136C100.509 135.97 100.375 136.011 100.5 136C100.514 136 100.486 136 100.5 136Z" fill="#00812A"/>
<path d="M93.5 81L90.5 80V84C90.5 84 94.1964 84.0988 94.5 83L93.5 81Z" fill="#FFC3BD"/>
<path d="M88.5 82L89.5 84H91.5V80L88.5 82Z" fill="#FFC3BD"/>
<path d="M104.5 90H121.5C121.621 88.4543 121.238 83.4058 121.5 77C121.676 72.6976 122.441 67.9039 123.5 63C123.578 62.6494 123.418 62.3506 123.5 62C123.5 62 122.735 61.1832 121.5 61C120.476 60.8486 118.762 61.0597 117.5 61C115.331 60.8964 112.411 60.8247 110.5 61C109.39 61.1036 108.367 61.8327 107.5 62C106.394 62.2271 105.5 62 105.5 62C105.5 62 101.557 71.7865 104.5 90Z" fill="#00812A"/>
<g opacity="0.5">
<path d="M104.5 90H121.5C121.621 88.4543 121.238 83.4058 121.5 77C121.676 72.6976 122.441 67.9039 123.5 63C123.578 62.6494 123.418 62.3506 123.5 62C123.5 62 122.735 61.1832 121.5 61C120.476 60.8486 118.762 61.0597 117.5 61C115.331 60.8964 112.411 60.8247 110.5 61C109.39 61.1036 108.367 61.8327 107.5 62C106.394 62.2271 105.5 62 105.5 62C105.5 62 101.557 71.7865 104.5 90Z" fill="white"/>
</g>
<g opacity="0.5">
<path d="M121.5 77C121.697 72.7449 122.316 67.8501 123.5 63C122.228 62.9015 119.863 63.1482 119.5 65C119.111 66.9857 119.171 71.5196 121.5 77Z" fill="#00812A"/>
</g>
<path d="M124.5 65C124.658 65.298 124.373 65.7407 124.5 66C124.623 66.2515 124.388 66.7485 124.5 67C124.724 67.5031 125.299 67.4892 125.5 68C125.898 69.0255 126.211 69.9281 126.5 71C126.793 72.0719 127.342 72.8739 127.5 74C127.662 75.1261 127.539 76.8198 127.5 78C127.492 78.1548 127.527 78.8491 127.5 79C127.438 79.3018 127.62 79.7523 127.5 80C127.261 80.5069 126.801 80.6982 126.5 81C125.894 81.5998 125.067 81.702 124.5 82C123.365 82.5804 122.577 82.7214 121.5 83C120.423 83.2593 119.561 83.8646 118.5 84C117.431 84.1277 115.6 83.9845 114.5 84V82C116.407 81.435 118.725 80.7275 120.5 80C121.384 79.644 121.84 79.4411 122.5 79C122.828 78.7833 123.4 78.1548 123.5 78C123.527 77.969 123.55 77.9265 123.5 78C123.488 78.0155 123.512 77.9536 123.5 78C123.488 78.0232 123.508 77.9729 123.5 78C123.5 78.0077 123.5 78.0155 123.5 78C123.392 76.2238 123.071 74.8187 122.5 73C122.207 72.0906 121.859 70.8978 121.5 70C121.322 69.5511 120.693 68.4373 120.5 68L119.5 67L124.5 65Z" fill="#FFC3BD"/>
<path d="M123.5 62C120.539 61.0133 118.68 63.6702 119.5 68C120.32 72.3337 121.5 74 121.5 74L128.5 73C127.931 68.7531 126.536 63.0104 123.5 62Z" fill="#00812A"/>
<g opacity="0.5">
<path d="M123.5 62C120.539 61.0133 118.68 63.6702 119.5 68C120.32 72.3337 121.5 74 121.5 74L128.5 73C127.931 68.7531 126.536 63.0104 123.5 62Z" fill="white"/>
</g>
<path d="M118.5 53L116.5 55L113.5 57C113.581 57.3534 113.467 57.6544 113.5 58C113.647 59.4173 113.687 60.503 111.5 61C111.5 61 109.194 62.9418 113.5 63C117.806 63.0582 118.5 61 118.5 61C116.862 59.4584 117.942 55.3104 118.5 53Z" fill="#FFC3BD"/>
<path d="M117.5 60C117.5 60 115.223 62.1981 112.5 63C113.551 63.1885 114.481 64.0761 114.5 65C116.456 64.4272 118.564 61.5395 118.5 61C117.909 60.5972 117.5 60 117.5 60Z" fill="white"/>
<path d="M111.5 61C111.5 61 109.735 62.2388 112.5 63C111.433 63.1797 110.864 63.911 110.5 65C109 63.3401 110.169 61.4159 110.5 61C111.229 60.9436 111.5 61 111.5 61Z" fill="white"/>
<g opacity="0.2">
<path d="M113.5 57C113.588 57.3281 113.464 57.6791 113.5 58C114.612 57.8197 116.345 56.9267 116.5 56C116.557 55.6538 116.526 55.2416 116.5 55L113.5 57Z" fill="black"/>
</g>
<path d="M110.5 46C109.336 47.0327 109.388 51.3694 110.5 51C111.612 50.6306 112.412 44.3002 110.5 46Z" fill="#263238"/>
<path d="M118.5 50C117.794 53.0055 117.417 54.6321 115.5 56C112.617 58.0632 108.783 56.1081 108.5 53C108.249 50.2035 109.083 45.8511 112.5 45C115.863 44.1603 119.206 46.9945 118.5 50Z" fill="#FFC3BD"/>
<path d="M117.5 52C116.983 51.3908 116.133 49.4967 116.5 49C115.947 48.5731 116.072 47.5316 116.5 47C115.418 46.9302 109.618 47.865 108.5 44C109.081 44.1785 110.5 44 110.5 44C110.5 44 109.481 42.5433 111.5 42C111.795 42.9236 114.293 43.0466 115.5 43C117.979 42.9069 120.643 44.1529 119.5 46C121.321 46.7567 121.683 49.8425 117.5 52Z" fill="#263238"/>
<path d="M118.5 46C118.5 46 119.66 45.8468 119.5 44C120.176 45.0155 119.412 47.3131 118.5 46Z" fill="#263238"/>
<path d="M119.5 53C119.035 53.6137 118.093 53.895 117.5 54C116.602 54.1575 116.107 53.8074 116.5 53C116.856 52.2733 117.67 50.7901 118.5 51C119.317 51.2019 120.029 52.2975 119.5 53Z" fill="#FFC3BD"/>
<path d="M116.5 51C116.5 51 116.559 52.6954 115.5 54C114.44 55.3046 113.639 56.0207 112.5 56C111.361 55.9793 111.5 54 111.5 54H110.5C110.5 54 110.611 55.8532 109.5 55C109.258 54.8136 108.651 54.468 108.5 54C108.385 53.6397 108.52 53.3769 108.5 53C108.23 53.4473 108.087 55.0557 108.5 56C108.79 56.6626 109.79 57.7681 110.5 58C111.686 58.3893 113.234 58.5218 114.5 58C116.528 57.1634 117.428 55.1596 117.5 54C117.571 52.8404 117.5 51 117.5 51H116.5Z" fill="#263238"/>
<path d="M113.5 51C113.437 51.2758 112.765 51.0212 112.5 51C112.228 50.9788 112.437 50.2758 112.5 50C112.563 49.7242 113.234 49.9788 113.5 50C113.765 50.0212 113.563 50.7242 113.5 51Z" fill="#263238"/>
<path d="M110.5 50C110.437 50.2758 109.765 50.0212 109.5 50C109.228 49.9788 109.437 49.2758 109.5 49C109.563 48.7242 110.234 48.9788 110.5 49C110.771 49.0212 110.563 49.7242 110.5 50Z" fill="#263238"/>
<path d="M110.5 50C110.5 50 109.998 51.4468 109.5 52C109.796 52.3651 110.5 52 110.5 52V50Z" fill="#ED847E"/>
<path d="M110.5 54C111.476 54.2329 112.473 53.0399 112.5 53C112.526 53.0532 112.53 52.9534 112.5 53C112.473 52.9468 112.53 52.9534 112.5 53C112.492 53.0133 111.564 54.4857 110.5 54C110.507 53.9268 110.462 53.98 110.5 54C110.488 54.0665 110.458 53.9867 110.5 54C110.599 54.0466 110.408 53.98 110.5 54Z" fill="#263238"/>
<path d="M114.5 49C114.486 49.0256 114.516 48.9949 114.5 49C114.538 49.082 114.543 48.9283 114.5 49C114.117 48.1954 113.521 47.9898 113.5 48C113.445 48.0051 113.489 47.8873 113.5 48C113.445 48.0205 113.511 48.1076 113.5 48C113.519 47.9949 114.199 48.3645 114.5 49C114.527 49.0564 114.464 49.0154 114.5 49Z" fill="#263238"/>
<path d="M109.5 48C109.448 48.0481 109.562 48.018 109.5 48C110.2 47.3266 111.495 47 111.5 47C111.474 47.1263 111.609 47.0361 111.5 47C111.531 46.8798 111.604 47.0301 111.5 47C111.464 46.988 110.356 47.1763 109.5 48C109.427 47.9038 109.417 48.0842 109.5 48C109.526 48.0361 109.464 47.988 109.5 48Z" fill="#263238"/>
<path d="M115.5 81H112.5L113.5 84C113.5 84 116.639 84.4268 116.5 83L115.5 81Z" fill="#FFC3BD"/>
<path d="M109.5 83L110.5 85L113.5 84L112.5 81L109.5 83Z" fill="#FFC3BD"/>
<path d="M137.5 142H138.5V87H137.5V142Z" fill="#00812A"/>
<path d="M145.5 142H146.5V87H145.5V142Z" fill="#00812A"/>
<path opacity="0.2" d="M145.5 142H146.5V87H145.5V142Z" fill="black"/>
<path d="M54.5 142H55.5L55.5 87H54.5L54.5 142Z" fill="#00812A"/>
<g opacity="0.2">
<path d="M54.5 87H55.5V124L54.5 121V87Z" fill="black"/>
</g>
<path d="M46.5 142H47.5L47.5 87H46.5L46.5 142Z" fill="#00812A"/>
<path d="M46.5 119L138.5 119V87L46.5 87V119Z" fill="#00812A"/>
<path d="M45.5 87L138.5 87V85L45.5 85V87Z" fill="#00812A"/>
<path d="M146.5 87H138.5V119H146.5V87Z" fill="#00812A"/>
<path opacity="0.2" d="M146.5 87H138.5V119H146.5V87Z" fill="black"/>
<path d="M147.5 85H138.5V87H147.5V85Z" fill="#00812A"/>
<path opacity="0.2" d="M147.5 85H138.5V87H147.5V85Z" fill="black"/>
<path opacity="0.2" d="M46.5 89L146.5 89V87L46.5 87V89Z" fill="black"/>
<path d="M104.5 79H69.4999C68.1933 79 67.5594 78.3223 67.4999 77L66.4999 56C66.4403 54.6777 67.1933 54 68.4999 54H103.5C104.806 54 105.44 54.6777 105.5 56L106.5 77C106.559 78.3223 105.806 79 104.5 79Z" fill="#00812A"/>
<path d="M104.5 79H69.4999C68.1933 79 67.5594 78.3223 67.4999 77L66.4999 56C66.4403 54.6777 67.1933 54 68.4999 54H103.5C104.806 54 105.44 54.6777 105.5 56L106.5 77C106.559 78.3223 105.806 79 104.5 79Z" fill="#00812A"/>
<g opacity="0.2">
<path d="M104.5 79H69.4999C68.1933 79 67.5594 78.3223 67.4999 77L66.4999 56C66.4403 54.6777 67.1933 54 68.4999 54H103.5C104.806 54 105.44 54.6777 105.5 56L106.5 77C106.559 78.3223 105.806 79 104.5 79Z" fill="white"/>
</g>
<path d="M89.5 67H83.5V79H89.5V67Z" fill="#00812A"/>
<path d="M83.5 65L80.5 85H87.5L90.5 65H83.5ZM87.5 71V75C87.4284 75.4963 86.993 75 86.5 75H85.5C84.8917 75 84.4125 74.6092 84.5 74V71C84.5716 70.5037 85.007 70 85.5 70H86.5C87.1083 70 87.5875 70.3908 87.5 71Z" fill="#00812A"/>
<g opacity="0.2">
<path d="M83.5 65L80.5 85H87.5L90.5 65H83.5ZM87.5 71V75C87.4284 75.4963 86.993 75 86.5 75H85.5C84.8917 75 84.4125 74.6092 84.5 74V71C84.5716 70.5037 85.007 70 85.5 70H86.5C87.1083 70 87.5875 70.3908 87.5 71Z" fill="white"/>
</g>
<path d="M91.5 84H79.5L77.5 85H94.5L91.5 84Z" fill="#00812A"/>
<g opacity="0.2">
<path d="M91.5 84H79.5L77.5 85H94.5L91.5 84Z" fill="white"/>
</g>
<path d="M54.4998 80C53.8259 79.6132 54.205 76.193 54.4998 74C54.8598 71.3485 56.0956 66.5997 59.4998 64C61.1235 62.76 63.228 61.3357 63.4998 60C63.9976 61.1842 66.5359 69.1962 62.4998 73C59.0841 76.2177 55.9856 75.9729 54.4998 80Z" fill="#00812A"/>
<path d="M54.4998 80C53.8259 79.6132 54.205 76.193 54.4998 74C54.8598 71.3485 56.0956 66.5997 59.4998 64C61.1235 62.76 63.228 61.3357 63.4998 60C63.9976 61.1842 66.5359 69.1962 62.4998 73C59.0841 76.2177 55.9856 75.9729 54.4998 80Z" fill="black"/>
<path d="M55.5 78C56.2799 77.5441 55.2118 73.5291 54.5 71C53.6405 67.9397 51.1342 61.9573 46.5 59C44.2889 57.5888 42.0452 56.5421 41.5 55C41.0684 56.3756 39.8927 67.6553 45.5 72C50.244 75.6748 53.0276 73.3699 55.5 78Z" fill="#00812A"/>
<path d="M54.4998 77C54.4557 77 54.5109 77.0477 54.4998 77C54.4888 76.9563 53.4748 72.3103 50.4998 66C47.7347 60.1384 43.5367 59.0079 43.4998 59C43.4446 58.9881 43.4888 59.0596 43.4998 59C43.4409 58.9881 43.5109 58.9404 43.4998 59C43.5367 59.0079 47.6869 60.0431 50.4998 66C53.4859 72.3302 54.4888 76.9563 54.4998 77C54.5551 76.9841 54.5146 77.0596 54.4998 77C54.5109 77 54.4888 77 54.4998 77Z" fill="white"/>
<path d="M42.5001 64C42.4757 64 42.5175 64.0304 42.5001 64C42.4618 63.9493 42.4653 64.0557 42.5001 64C42.5209 63.9696 44.6445 60.9525 47.5001 63C47.5244 62.929 47.5488 63.0355 47.5001 63C47.4757 63.0709 47.5488 63.0355 47.5001 63C44.7731 61.0437 42.5209 63.9696 42.5001 64C42.5244 64 42.4827 64.0304 42.5001 64Z" fill="white"/>
<path d="M46.4998 71C46.4998 71 46.5157 71.0128 46.4998 71C46.448 70.966 46.4719 71.0596 46.4998 71C46.5197 70.966 48.5924 67.1363 51.4998 68C51.5157 67.9362 51.5595 68.017 51.4998 68C51.4838 68.0638 51.5555 68.017 51.4998 68C48.7477 67.1873 46.5157 70.966 46.4998 71C46.5396 71 46.4798 71.0383 46.4998 71Z" fill="white"/>
<path d="M49.4999 65C49.4446 65 49.5137 65.0601 49.4999 65C49.4906 64.965 49.173 63.5657 49.4999 63C49.6425 62.7497 50.2053 63.0601 50.4999 63C50.486 62.9249 50.5735 62.985 50.4999 63C50.5137 63.0751 50.5643 62.985 50.4999 63C50.2743 63.0501 49.6057 63.8148 49.4999 64C49.2329 64.4656 49.4953 64.995 49.4999 65C49.5643 64.98 49.5183 65.0751 49.4999 65C49.5091 65 49.4906 65 49.4999 65Z" fill="white"/>
<path d="M61.5 76H51.5L52.5 85H60.5L61.5 76Z" fill="#00812A"/>
<g opacity="0.7">
<path d="M61.5 76H51.5L52.5 85H60.5L61.5 76Z" fill="white"/>
</g>
<path d="M139.5 77V76C139.5 75.7557 139.749 76 139.5 76H133.5C133.251 76 133.5 75.7557 133.5 76V85H139.5V84C140.91 84 142.5 81.967 142.5 80C142.5 78.033 140.91 77 139.5 77ZM139.5 83V78C140.371 78 141.5 78.5828 141.5 80C141.5 81.4172 140.371 83 139.5 83Z" fill="#00812A"/>
<g opacity="0.2">
<path d="M139.5 77V76C139.5 75.7557 139.749 76 139.5 76H133.5C133.251 76 133.5 75.7557 133.5 76V85H139.5V84C140.91 84 142.5 81.967 142.5 80C142.5 78.033 140.91 77 139.5 77ZM139.5 83V78C140.371 78 141.5 78.5828 141.5 80C141.5 81.4172 140.371 83 139.5 83Z" fill="white"/>
</g>
<g opacity="0.3">
<path d="M140.5 78H139.5L140.5 80V78Z" fill="black"/>
</g>
</g>
<defs>
<clipPath id="clip0_163_9280">
<rect width="197" height="147" fill="white" transform="translate(0.5)"/>
</clipPath>
</defs>
</svg>
