<svg width="168" height="146" viewBox="0 0 168 146" fill="none" xmlns="http://www.w3.org/2000/svg">
<g clip-path="url(#clip0_163_8764)">
<path d="M24.9999 133C57.8033 149.791 110.197 149.791 143 133C175.803 116.209 175.803 89.7949 143 73C110.197 56.2087 57.8033 56.2087 24.9999 73C-7.80337 89.7913 -7.80337 116.205 24.9999 133Z" fill="#F5F5F5"/>
<path d="M140 88C140.04 85.7547 142.625 79.878 145 77C147.375 74.1256 150.423 72.0636 153 73C155.404 73.8714 155.97 76.9464 153 79C150.03 81.0573 145.352 84.3808 144 88L141 92L140 88Z" fill="#00812A"/>
<g opacity="0.1">
<path d="M140 88C140.04 85.7547 142.625 79.878 145 77C147.375 74.1256 150.423 72.0636 153 73C155.404 73.8714 155.97 76.9464 153 79C150.03 81.0573 145.352 84.3808 144 88L141 92L140 88Z" fill="black"/>
</g>
<path d="M140 91C139.982 91.0745 140.072 90.9963 140 91C141.622 83.1283 148.302 76.3523 152 75C152.029 75.0894 152.086 74.9702 152 75C151.971 74.9106 152.086 74.9665 152 75C148.231 76.3784 141.647 83.0053 140 91C139.982 91.0894 139.911 90.9814 140 91C140.014 91 139.986 91.0037 140 91Z" fill="white"/>
<path d="M142 95C142.401 93.7795 143.354 91.6321 146 90C148.922 88.1956 153.129 87.4281 154 86C155.045 84.2835 152.975 82.7081 150 83C147.025 83.2955 141.939 87.3474 141 93L142 95Z" fill="#00812A"/>
<path d="M141 94C140.973 94.0586 141.066 93.9965 141 94C143.631 87.7756 149.516 85.2481 152 85C152.012 85.0862 152.096 84.9896 152 85C151.988 84.9138 152.1 84.9896 152 85C149.253 85.2757 143.685 87.648 141 94C140.965 94.0793 140.911 93.969 141 94C141.023 94.0069 140.977 94 141 94Z" fill="white"/>
<path d="M30.0002 109L33.0002 107C33.0002 107 35.0205 100.203 34.0002 94C32.5619 85.2742 26.2517 82.1303 24.0002 83C21.7486 83.8661 20.9376 86.9587 25.0002 92C27.3986 94.9736 30.0792 100.902 30.0002 109Z" fill="#00812A"/>
<path d="M30.0002 109L33.0002 107C33.0002 107 35.0205 100.203 34.0002 94C32.5619 85.2742 26.2517 82.1303 24.0002 83C21.7486 83.8661 20.9376 86.9587 25.0002 92C27.3986 94.9736 30.0792 100.902 30.0002 109Z" fill="black"/>
<path d="M32 105C32 105 32.0077 105 32 105C31.8838 104.986 30.9845 105.107 31 105C32.2123 96.9391 28.9585 87.5569 25 84C24.9148 84.0748 24.9186 83.9252 25 84C24.9186 83.9217 25.0813 83.9252 25 84C29.0321 87.6245 33.2278 96.8216 32 105C32.1007 105 31.9845 105.096 32 105Z" fill="white"/>
<path d="M23 114C22.5428 114.25 21.362 113.231 21 113C20.3828 112.609 20.3315 112.629 20 112C19.6152 111.27 18.8781 110.806 19 110C19.061 109.581 19.8781 108.409 20 108C20.1219 107.599 19.8819 107.401 20 107C20.1181 106.606 20.0533 106.405 20 106C19.8895 105.179 19.6972 104.495 19 104C18.2304 103.45 16.9962 102.987 17 102C17 101.237 17.5009 100.6 18 100C18.4991 99.4034 18.5504 98.6328 19 98C19.3239 97.5444 20.0533 96.546 20 96C19.9657 95.6601 20.1715 95.3001 20 95C19.6343 94.3564 19.2515 93.6907 19 93C18.7486 92.3094 18.4323 91.4954 19 91C19.4648 90.595 20.3676 90.9602 21 91C21.5829 91.0362 21.4895 91.7288 22 92C23.6497 92.8715 25.2474 94.3274 27 95C27.6744 95.2604 28.2952 94.8228 29 95C29.7049 95.1772 30.6723 96.3817 31 97C31.6439 98.2186 29.5504 99.7055 30 101C30.4001 102.146 32.3409 101.969 33 103C33.2896 103.452 33.0457 104.472 33 105C32.92 105.89 32.4496 106.009 32 107C31.6266 107.817 31 110 31 110C30.9733 110.025 23.0686 113.964 23 114Z" fill="#00812A"/>
<path d="M27.9998 111C27.8782 110.996 27.992 111.107 27.9998 111C28.3489 103.381 23.8785 94.4424 20.9998 92C20.9135 91.9289 20.9214 92.0782 20.9998 92C20.9135 91.9289 21.0782 91.9218 20.9998 92C23.9374 94.4922 28.3528 103.278 27.9998 111C28.1135 111 27.9959 111.103 27.9998 111Z" fill="white"/>
<path d="M25.9998 102C25.9819 102 26.0177 102.006 25.9998 102C23.537 101.41 20.0321 101.003 19.9998 101C19.8924 100.997 19.9963 101.083 19.9998 101C19.8853 100.997 20.0034 100.917 19.9998 101C20.0321 101 23.4868 101.399 25.9998 102C26.1001 102.025 26.0285 101.922 25.9998 102C26.0857 102 25.9748 102.064 25.9998 102Z" fill="white"/>
<path d="M23.9999 111L62.9999 134C63.867 134.503 65.1328 134.503 65.9999 134L141 90C141.867 89.4972 141.867 88.5027 141 88L102 65C101.133 64.4972 99.867 64.4972 98.9999 65L23.9999 109C23.1328 109.503 23.1328 110.497 23.9999 111Z" fill="#37474F"/>
<path d="M44.9999 121C46.171 121.782 47.8288 121.782 48.9999 121C50.171 120.218 50.171 119.778 48.9999 119C47.8288 118.222 46.171 118.218 44.9999 119C43.8288 119.782 43.8288 120.222 44.9999 121Z" fill="black"/>
<path d="M63 134L24 111C23.2188 110.554 22.3831 109.501 23 109C22.2444 109.57 22 111.096 22 112V113C22 114.002 23.1276 115.499 24 116L63 139C63.438 139.25 64.4269 139 65 139V134C64.4269 134 63.438 134.25 63 134Z" fill="#455A64"/>
<path d="M141 95C141.866 94.4936 143 93.0129 143 92V91C143 90.0825 142.75 88.5762 142 88C142.612 88.5064 141.775 89.5449 141 90L67 133C66.5652 133.253 65.5688 134 65 134V139C65.5688 139 66.5652 139.253 67 139L141 95Z" fill="black"/>
<path d="M69.9998 129L31.9998 107C31.4786 106.697 31.4786 106.303 31.9998 106L93.9998 70C94.5248 69.6969 95.4749 69.6969 95.9998 70L134 92C134.521 92.303 134.521 92.6969 134 93L71.9998 129C71.4786 129.303 70.5248 129.303 69.9998 129Z" fill="#FAFAFA"/>
<path d="M60.0002 100L82.0002 113L68.0002 121C67.5611 121.25 66.4393 121.25 66.0002 121L45.0002 109C44.5611 108.75 44.5611 108.25 45.0002 108L60.0002 100Z" fill="#E6E6E6"/>
<path d="M82 113L79 102C78.9386 101.749 79.195 102.163 79 102C78.8014 101.826 78.2564 102.022 78 102L60 100L82 113Z" fill="#E0E0E0"/>
<path d="M82 113L62 112C61.5126 111.982 61.0578 111.495 61 111L60 100L82 113Z" fill="#E0E0E0"/>
<path d="M82 113L62 112C61.5126 111.982 61.0578 111.495 61 111L60 100L62 111C62.0433 111.2 62.7978 110.982 63 111L82 113Z" fill="#FAFAFA"/>
<path d="M64 112L67 121H68L64 112Z" fill="#FAFAFA"/>
<path d="M45 108H46L61 110L45 108Z" fill="#FAFAFA"/>
<path d="M72.0001 95L90.0001 105C90.4377 105.252 91.5625 105.252 92.0001 105L117 90C117.438 89.7481 117.438 89.2518 117 89L99.0001 79C98.5625 78.7481 97.4377 78.7481 97.0001 79L72.0001 94C71.5625 94.2518 71.5625 94.7481 72.0001 95Z" fill="#E6E6E6"/>
<path d="M86.0003 93C85.5657 92.2618 85.668 91.7308 86.0003 91C86.329 90.2655 86.901 88.6295 88.0003 88C89.2567 87.2836 90.6417 87.1917 92.0003 87C93.3553 86.8046 94.6526 86.7105 96.0003 87C97.348 87.2894 98.7439 88.2836 100 89C101.173 89.6693 102.573 90.2872 103 91C103.428 91.7091 103.322 92.3234 103 93C102.679 93.6766 102.027 94.4102 101 95C99.9083 95.6223 99.0595 95.9276 98.0003 96C96.9411 96.0687 95.7709 95.4378 95.0003 95C94.6241 94.7865 94.0514 95.246 94.0003 95C93.9492 94.7503 93.7739 94.2279 94.0003 94C93.405 94.047 93.5774 94.1266 93.0003 94C92.4232 93.8733 91.4934 93.2822 91.0003 93C90.1566 92.5079 90.0368 92.5572 90.0003 92C89.9638 91.4428 90.1566 90.4812 91.0003 90C92.0449 89.403 92.7987 88.9746 94.0003 89C95.2019 89.0253 96.9192 89.3812 98.0003 90C98.4678 90.2677 98.7118 90.6526 99.0003 91C99.2888 91.3473 98.9711 91.6888 99.0003 92L96.0003 94C95.7337 94.1519 96.0259 93.8806 96.0003 94C95.9784 94.1194 95.7921 94.8806 96.0003 95C96.3582 95.2026 96.3904 95.123 97.0003 95C97.6102 94.8769 98.2589 94.4233 99.0003 94C99.8257 93.5296 100.781 92.5318 101 92C101.219 91.4645 101.333 91.5282 101 91C100.664 90.4717 99.8075 89.4631 99.0003 89C97.5248 88.1569 95.6 88.0615 94.0003 88C92.4006 87.9385 91.5306 88.1244 90.0003 89C89.1018 89.5137 88.256 90.4283 88.0003 91C87.7447 91.5716 87.6643 92.4536 88.0003 93C88.3363 93.5463 89.1749 93.526 90.0003 94C90.4495 94.2569 90.4744 94.8263 91.0003 95C91.5262 95.1773 92.5401 94.9602 93.0003 95C92.9747 94.9855 93.0734 95.0108 93.0003 95C93.0295 94.9529 93.0295 95.0144 93.0003 95L92.0003 96C91.9638 96.0434 92.0113 95.9927 92.0003 96C91.9565 96.0253 92.0989 96.0181 92.0003 96C91.4415 95.9312 90.6212 96.2062 90.0003 96C89.3831 95.7937 89.5299 95.3039 89.0003 95C87.8718 94.3559 86.4386 93.7381 86.0003 93ZM94.0003 93C94.5737 93.0506 94.5949 93.2315 95.0003 93L97.0003 92C96.8542 91.696 96.4934 91.2822 96.0003 91C95.3758 90.6418 94.7162 90.0108 94.0003 90C93.2845 89.9891 92.6212 90.6454 92.0003 91C91.4671 91.3039 91.9894 91.7033 92.0003 92C92.0149 92.2967 91.4415 92.6816 92.0003 93C92.4386 93.2532 93.4269 92.9493 94.0003 93Z" fill="#FAFAFA"/>
<path d="M118 79C118.195 79.1944 118.805 79.1944 119 79C119.195 78.8055 119.195 78.1944 119 78C118.805 77.8055 118.195 77.8055 118 78C117.805 78.1944 117.805 78.8055 118 79Z" fill="black"/>
<path d="M120 84C120.587 84.3921 122.413 84.3921 123 84C123.587 83.6078 123.587 82.3875 123 82C122.413 81.6078 120.587 81.6078 120 82C119.413 82.3921 119.413 83.6124 120 84Z" fill="black"/>
<path d="M119 82C119.346 81.7856 119.371 81.2297 119 81L113 77C112.633 76.7703 111.346 76.7856 111 77C110.654 77.2144 110.633 77.7703 111 78L117 82C117.368 82.2297 118.654 82.2144 119 82Z" fill="black"/>
<path d="M126 73.0001C126.179 72.6054 126.502 72.3112 127 72.0001C128.564 71.0247 131.437 71.0247 133 72.0001C133.498 72.3112 133.818 72.6016 134 73.0001C134.014 73.649 133.796 74.5029 133 75.0001C131.437 75.9754 128.564 75.9754 127 75.0001C126.215 74.5105 125.997 73.6414 126 73.0001Z" fill="black"/>
<path d="M133 72.0001C131.437 71.0247 128.563 71.0247 127 72.0001C125.437 72.9754 125.437 74.0247 127 75.0001C128.563 75.9754 131.437 75.9754 133 75.0001C134.563 74.0247 134.563 72.9754 133 72.0001Z" fill="#455A64"/>
<path d="M131 48V72C131 72.1547 131.194 72.8813 131 73C130.609 73.2375 129.388 73.2375 129 73C128.806 72.8813 129 72.1547 129 72V48H131Z" fill="#37474F"/>
<path d="M129 51V52L131 53V52L129 51Z" fill="black"/>
<path d="M143 42L141 46L140 48L137 54L136 55C135.978 55 136.023 55 136 55C135.869 55 136.101 55.0549 136 55L121 47C120.798 46.8867 121 46.2268 121 46V41C121 38.2864 122.738 35.2727 125 34C126.073 33.3966 127.269 32.6014 128 33L143 42Z" fill="#455A64"/>
<path d="M140 42C139.084 42.3308 136 44.7696 136 49C136 52.5578 136 54.6692 136 55C135.955 55 136.046 55.0074 136 55C135.978 55 136.023 55 136 55L137 54L140 48L141 46L140 42Z" fill="#37474F"/>
<path d="M144 50C143.974 50.049 144.071 50.951 144 51C143.989 51.0075 144.011 50.9925 144 51L136 55C135.918 55.049 136.109 54.9925 136 55C135.978 55 136.023 55 136 55V49C136 47.9937 136.593 47.0251 137 46L140 48L144 50C144 50 143.884 49.9359 144 50C144.064 50.0377 144.038 49.9359 144 50Z" fill="#37474F"/>
<path d="M143 41C142.293 40.643 141.023 40.4274 140 41C138.85 41.6363 137.73 43.6745 137 45C136.832 45.3075 137.136 45.6784 137 46C136.601 46.9615 136 47.0563 136 48V54C135.978 54 136.022 54 136 54C135.92 54.046 136.107 53.993 136 54L144 50C143.989 50.0071 144 50 144 50C143.956 50.053 144.055 49.9647 144 50C144.103 49.8728 144 49.1414 144 49V44C144 42.5968 143.818 41.4136 143 41ZM143 49L137 53C136.942 53.0318 136 53.0672 136 53V48C136 47.1552 136.619 46.9296 137 46C136.993 46.0177 137.008 45.9824 137 46C137.143 45.6572 136.817 45.3181 137 45C137.708 43.7382 138.971 42.5726 140 42C140.532 41.7031 141.542 41 142 41C142.29 41 141.769 41.8834 142 42C142.697 42.357 144 42.7841 144 44V49C144 49.0672 143.059 48.9682 143 49Z" fill="#455A64"/>
<path d="M144 45.0001V50.0001L137 46.0001C136.992 46.0176 137 46.0001 137 46.0001C137.751 44.3044 138.627 42.7142 140 42.0001C140.564 41.7045 141.514 42.0001 142 42.0001C143.237 42.0001 144 43.3888 144 45.0001Z" fill="black"/>
<path d="M131 47H132C132.242 46.8928 132.634 46.8284 133 47C133.742 47.3433 134 48.3136 134 49C134 49.3433 134.242 49.8892 134 50H133C132.879 49.9786 132.134 50.0608 132 50C131.258 49.6568 131 48.6865 131 48C130.978 48.0859 131 47.8999 131 48V47Z" fill="#E0E0E0"/>
<path d="M132 47C132.553 47.3715 133 48.257 133 49C133 49.7392 132.553 50.3715 132 50C131.447 49.6285 131 48.743 131 48C131 47.2609 131.447 46.6285 132 47Z" fill="#FAFAFA"/>
<path d="M132 49C131.724 49 132 49.164 132 49V40C131.724 40 132 39.836 132 40C132.276 40 133 39.836 133 40V49C133 49.164 132.276 49 132 49Z" fill="#EBEBEB"/>
<path d="M132 41L129 39L130 41H129L132 43V41Z" fill="#00812A"/>
<path d="M144 45C144 43.3643 143.137 42 142 42C141.554 42 141.519 41.7 141 42C139.739 42.725 138.69 44.2786 138 46C137.993 46.0179 138.008 45.9822 138 46C137.629 46.9429 137 48.1465 137 49V55L144 51V45Z" fill="black"/>
<path d="M142 46C142 45.9116 142.082 46.046 142 46L135 42C134.923 41.9576 134.078 41.9576 134 42C133.923 42.0425 134 41.9116 134 42V48C133.919 47.9576 134 48.085 134 48L141 52C141.078 52.0425 141.923 52.0425 142 52C142 52.0885 142.078 51.9576 142 52V46Z" fill="#F0F0F0"/>
<path d="M142 46.0001L134 42.0001C133.963 42.0194 134.026 41.9613 134 42.0001C134.079 41.9613 134.922 41.9613 135 42.0001L142 46.0001C142.041 46.0194 141.974 45.9613 142 46.0001Z" fill="#FAFAFA"/>
<path d="M142 46.0001V52.0001C142 52.091 142.146 51.9564 142 52.0001H141C141 52.0001 141.027 51.9928 141 52.0001C140.967 52.0073 141.04 51.9964 141 52.0001C140.934 52.0037 141.06 52.0037 141 52.0001C140.98 52.0001 141.014 52.0037 141 52.0001C140.987 52.0001 141.014 52.0037 141 52.0001C140.967 52.0073 141.047 52.011 141 52.0001C141 52.0437 141.047 51.9855 141 52.0001V46.0001C141 45.9419 141.08 46.0182 141 46.0001H142C142.047 46.0437 142 45.9564 142 46.0001Z" fill="#E0E0E0"/>
<path d="M142 46.0001L138 48.0001C137.747 48.087 138.149 47.2102 138 47.0001L137 46.0001L134 42.0001L137 47.0001L134 48.0001C133.973 47.9566 134 48.0435 134 48.0001L137 47.0001L138 48.0001C137.735 48.1088 138.153 48.2283 138 48.0001H139L142 52.0001C142 52.0435 142.028 51.9856 142 52.0001L139 48.0001L142 46.0001Z" fill="#E0E0E0"/>
<path d="M148 45L147 46C146.843 46.2386 147.275 46.682 147 47L144 49V50L139 53L137 55C137 55 136.007 55 136 55C135.932 55.0109 136.057 55.0326 136 55C136 55 136 55.0037 136 55C135.922 54.9494 135.939 55.0723 136 55C136 55 136.004 55 136 55L138 53C138.336 52.6061 138.618 51.4446 139 51C140.6 49.1244 143.851 47.2577 146 46C147.007 45.4146 146.775 44.8591 147 45H148C148 45.0037 147.997 45 148 45Z" fill="#455A64"/>
<path d="M147 47L146 49C146 49 146.015 48.9851 146 49L144 50C143.934 50.0783 144.089 49.9478 144 50L136 55C135.974 55.0149 136.03 54.9963 136 55C135.993 55.0038 136.008 55 136 55C136.248 54.7092 137.601 53.6294 139 52C138.949 52.0634 139.048 51.9404 139 52C140.654 50.0686 143.778 47.2976 146 46C147.016 45.4072 147.753 44.877 148 45C147.997 45 148 45.0038 148 45C148.281 45.1566 147.894 45.9598 147 47Z" fill="#37474F"/>
<path d="M37 35C37 34.2878 37.3812 33.3579 38 33L95 -2.46167e-05C95.6188 -0.357902 97.3812 -0.357902 98 -2.46167e-05L99 0.999975C99.6188 1.35785 100 2.28422 100 2.99998V47C100 47.7085 99.6152 48.6457 99 49L42 82C41.3848 82.3542 39.6188 82.3542 39 82L38 81C37.3848 80.6457 37 79.7121 37 79V35Z" fill="#00812A"/>
<g opacity="0.4">
<path d="M37 34L40 36L99 1.99997C98.7985 1.64885 98.3059 1.18096 98 0.999973L97 -2.72989e-05C96.3882 -0.358389 95.6082 -0.358389 95 -2.72989e-05L38 33C37.6905 33.181 37.1979 33.6525 37 34Z" fill="white"/>
</g>
<g opacity="0.1">
<path d="M37.0001 35V79C37.0001 79.7177 37.4358 80.6412 38.0001 81L39.0001 82C38.8978 81.9638 39.0859 82.0544 39.0001 82C39.1321 82.0471 39.8516 81.9783 40.0001 82C40.2641 82.0362 40.7394 82.058 41.0001 82C40.9374 82.0217 41.0661 81.9855 41.0001 82C40.9605 82.0217 41.043 81.9855 41.0001 82C40.812 82.0725 41.1354 82.0761 41.0001 82C40.8054 81.8876 40.0001 81.3697 40.0001 81V37C40.0001 36.5397 40.68 36.1414 41.0001 36H40.0001L37.0001 34C36.8153 34.3516 37.0001 34.6448 37.0001 35Z" fill="black"/>
</g>
<g opacity="0.2">
<path d="M41.0004 36L67.0004 46C68.8736 46.7039 70.9094 45.6821 72.0004 44L77.0004 38L100 2L77.0004 38L100 47C99.9968 47.3574 100.212 47.6463 100 48L77.0004 38L72.0004 46C70.8699 47.812 68.9418 48.8663 67.0004 48L64.0004 46L41.0004 82C40.7886 81.8881 41.0004 81.3682 41.0004 81L64.0004 46L41.0004 36Z" fill="black"/>
</g>
</g>
<defs>
<clipPath id="clip0_163_8764">
<rect width="168" height="146" fill="white"/>
</clipPath>
</defs>
</svg>
