<svg width="168" height="168" viewBox="0 0 168 168" fill="none" xmlns="http://www.w3.org/2000/svg">
<g clip-path="url(#clip0_163_8842)">
<path d="M121.697 121.105L109.957 123.586C109.027 123.783 108.217 125.015 108.419 125.956L113.863 151.379C114.065 152.32 115.31 153.118 116.239 152.921L127.98 150.44C128.909 150.244 129.719 149.012 129.518 148.071L124.073 122.647C123.872 121.706 122.627 120.909 121.697 121.105Z" stroke="black" stroke-linecap="round" stroke-linejoin="round"/>
<path d="M118 124L123 123L128 148L114 151L109 126L116 124" stroke="black" stroke-linecap="round" stroke-linejoin="round"/>
<path d="M142.697 116.105L130.957 118.586C130.027 118.783 129.217 120.015 129.419 120.956L134.863 146.379C135.065 147.32 136.31 148.118 137.239 147.921L148.98 145.44C149.909 145.244 150.719 144.012 150.518 143.071L145.073 117.647C144.872 116.706 143.627 115.909 142.697 116.105Z" stroke="black" stroke-linecap="round" stroke-linejoin="round"/>
<path d="M144 145L135 147L130 122L144 119L149 144L145 145" stroke="black" stroke-linecap="round" stroke-linejoin="round"/>
<path d="M135 116L134 111L132 113C129.789 111.644 127.542 110.454 125 111C120.264 112.013 116.938 116.139 117 121C117.006 121.359 117.642 122.007 118 122C117.961 122.007 118.042 122 118 122C118.296 121.938 118.003 121.317 118 121C117.945 116.763 120.868 113.882 125 113C127.165 112.536 130.105 111.909 132 113L130 115L135 116Z" fill="black"/>
<path d="M123 154L124 159L126 157C128.21 158.356 130.458 159.546 133 159C137.736 157.987 141.062 153.861 141 149C140.993 148.641 140.358 147.993 140 148C139.958 148 140.039 147.993 140 148C139.704 148.062 139.997 148.683 140 149C140.055 153.237 137.132 156.118 133 157C130.835 157.464 127.895 158.091 126 157L128 155L123 154Z" fill="black"/>
<path d="M113.893 127.208L111 128L111.489 130.96L114.383 130.167L113.893 127.208Z" stroke="black" stroke-linecap="round" stroke-linejoin="round"/>
<path d="M117.893 126.208L115 127L115.489 129.96L118.383 129.167L117.893 126.208Z" stroke="black" stroke-linecap="round" stroke-linejoin="round"/>
<path d="M122.893 126.208L120 127L120.489 129.96L123.383 129.167L122.893 126.208Z" stroke="black" stroke-linecap="round" stroke-linejoin="round"/>
<path d="M114.894 131.208L112 132L112.489 134.96L115.383 134.168L114.894 131.208Z" stroke="black" stroke-linecap="round" stroke-linejoin="round"/>
<path d="M118.894 130.208L116 131L116.489 133.96L119.383 133.168L118.894 130.208Z" stroke="black" stroke-linecap="round" stroke-linejoin="round"/>
<path d="M123.894 130.208L121 131L121.489 133.96L124.383 133.168L123.894 130.208Z" stroke="black" stroke-linecap="round" stroke-linejoin="round"/>
<path d="M115.893 136.208L113 137L113.489 139.96L116.383 139.168L115.893 136.208Z" stroke="black" stroke-linecap="round" stroke-linejoin="round"/>
<path d="M119.893 135.208L117 136L117.489 138.96L120.383 138.168L119.893 135.208Z" stroke="black" stroke-linecap="round" stroke-linejoin="round"/>
<path d="M124.893 135.208L122 136L122.489 138.96L125.383 138.168L124.893 135.208Z" stroke="black" stroke-linecap="round" stroke-linejoin="round"/>
<path d="M134.893 122.208L132 123L132.489 125.96L135.383 125.167L134.893 122.208Z" stroke="black" stroke-linecap="round" stroke-linejoin="round"/>
<path d="M138.893 121.208L136 122L136.489 124.96L139.383 124.167L138.893 121.208Z" stroke="black" stroke-linecap="round" stroke-linejoin="round"/>
<path d="M143.893 121.208L141 122L141.489 124.96L144.383 124.167L143.893 121.208Z" stroke="black" stroke-linecap="round" stroke-linejoin="round"/>
<path d="M135.893 126.208L133 127L133.489 129.96L136.383 129.168L135.893 126.208Z" stroke="black" stroke-linecap="round" stroke-linejoin="round"/>
<path d="M139.893 125.208L137 126L137.489 128.96L140.383 128.168L139.893 125.208Z" stroke="black" stroke-linecap="round" stroke-linejoin="round"/>
<path d="M144.893 125.208L142 126L142.489 128.96L145.383 128.168L144.893 125.208Z" stroke="black" stroke-linecap="round" stroke-linejoin="round"/>
<path d="M136.893 131.208L134 132L134.489 134.96L137.383 134.168L136.893 131.208Z" stroke="black" stroke-linecap="round" stroke-linejoin="round"/>
<path d="M140.893 130.208L138 131L138.489 133.96L141.383 133.168L140.893 130.208Z" stroke="black" stroke-linecap="round" stroke-linejoin="round"/>
<path d="M145.893 130.208L143 131L143.489 133.96L146.383 133.168L145.893 130.208Z" stroke="black" stroke-linecap="round" stroke-linejoin="round"/>
<path d="M8 68H11L16 82H28" stroke="black" stroke-width="2" stroke-linecap="round" stroke-linejoin="round"/>
<path d="M13 71H31L29 79H15" stroke="black" stroke-width="2" stroke-linecap="round" stroke-linejoin="round"/>
<path d="M19 71L20 79" stroke="black" stroke-width="2" stroke-linecap="round" stroke-linejoin="round"/>
<path d="M25 71L24 79" stroke="black" stroke-width="2" stroke-linecap="round" stroke-linejoin="round"/>
<path d="M28 86C29.1046 86 30 85.1046 30 84C30 82.8954 29.1046 82 28 82C26.8954 82 26 82.8954 26 84C26 85.1046 26.8954 86 28 86Z" stroke="black" stroke-width="2" stroke-linecap="round" stroke-linejoin="round"/>
<path d="M17 86C18.1046 86 19 85.1046 19 84C19 82.8954 18.1046 82 17 82C15.8954 82 15 82.8954 15 84C15 85.1046 15.8954 86 17 86Z" stroke="black" stroke-width="2" stroke-linecap="round" stroke-linejoin="round"/>
<path d="M14 76H30" stroke="black" stroke-width="2" stroke-linecap="round" stroke-linejoin="round"/>
<path d="M33 77C36.866 77 40 74.5899 40 71C40 67.4101 36.866 64 33 64C29.134 64 26 67.4101 26 71C26 74.5899 29.134 77 33 77Z" fill="black"/>
<path d="M31 70L32 72L37 68" stroke="white" stroke-width="3" stroke-linecap="round" stroke-linejoin="round"/>
<path d="M149 73L151 70H150C149.827 68.0391 148.394 66.3015 147 65C144.407 62.5785 140.726 62.7565 138 65C137.797 65.1675 137.846 64.7837 138 65C137.977 64.9791 138.019 65.0279 138 65C138.163 65.15 138.823 65.1465 139 65C141.377 63.0461 144.74 63.889 147 66C148.185 67.1061 148.81 68.3531 149 70H148L149 73Z" fill="black"/>
<path d="M127 76L125 79H126C126.173 80.9609 127.606 82.6985 129 84C131.593 86.4215 135.273 86.2435 138 84C138.153 84.2163 138.202 83.8325 138 84C137.98 83.9721 138.023 84.0209 138 84C137.837 83.85 137.176 83.8535 137 84C134.623 85.9539 131.26 85.111 129 83C127.815 81.8939 127.189 80.6469 127 79H128L127 76Z" fill="black"/>
<path d="M125 64C126.453 62 128.337 61 131 61C135.418 61 139 64.5821 139 69C139 73.4179 135.418 77 131 77C126.582 77 123 73.4179 123 69C123 68.1211 122.742 66.7927 123 66" stroke="black" stroke-linecap="round" stroke-linejoin="round"/>
<path d="M136.142 73.2426C138.681 70.7042 138.681 67.2958 136.142 64.7574C133.604 62.219 129.488 61.5118 126.95 64.0503C124.411 66.5887 124.411 71.4113 126.95 73.9497C129.488 76.4882 133.604 75.7811 136.142 73.2426Z" stroke="black" stroke-linecap="round" stroke-linejoin="round"/>
<path d="M131 75V74C130.227 73.9624 130.388 73.4826 130 73C129.612 72.5208 129.029 71.9994 129 71H131C131.006 71.4073 130.941 71.7501 131 72C131.059 72.2499 130.885 71.8939 131 72C131.115 72.1095 131.836 72 132 72C132.21 72 131.934 72.1472 132 72C132.062 71.8528 132 72.1643 132 72C132 71.6098 132.174 71.2704 132 71C131.822 70.7296 131.309 70.2738 131 70L130 69C129.776 68.7878 130.181 68.2225 130 68C129.816 67.7775 129.112 68.2944 129 68C128.888 67.7091 129 67.4039 129 67C129 66.2573 129.589 65.421 130 65C130.407 64.579 130.31 64.0548 131 64V63H132V64C132.434 64.024 132.737 63.8152 133 64C133.263 64.1848 132.868 64.733 133 65C133.131 65.2704 133.951 65.6988 134 66C134.049 66.3012 133.99 66.7399 134 67H132C131.993 66.7193 132.026 66.2122 132 66C131.974 65.7878 132.079 66.1129 132 66C131.921 65.8871 132.174 65.9932 132 66C131.812 66 131.092 65.8357 131 66C130.911 66.1643 131 65.8357 131 66C131 66.3765 130.816 66.7707 131 67C131.184 67.2293 131.783 67.7981 132 68L133 69C133.253 69.243 132.786 68.7262 133 69C133.214 69.2738 133.872 69.6646 134 70C134.128 70.3354 134 70.5619 134 71C134 71.4141 134.164 72.6577 134 73C133.836 73.3423 133.309 72.7844 133 73C132.691 73.2156 132.427 73.9521 132 74V75H131V75Z" stroke="black" stroke-miterlimit="10"/>
<path d="M152.482 80.7498C153.518 76.4546 150.864 72.1832 146.554 71.2093C142.244 70.2354 137.911 72.9278 136.875 77.2229C135.84 81.5181 138.494 85.7895 142.803 86.7634C147.113 87.7373 151.446 85.0449 152.482 80.7498Z" stroke="black" stroke-linecap="round" stroke-linejoin="round"/>
<path d="M150 85C149.019 87.341 147.697 89 145 89C141.41 89 138 86.59 138 83C138 79.41 141.41 76 145 76C148.59 76 151 79.41 151 83" stroke="black" stroke-linecap="round" stroke-linejoin="round"/>
<path d="M144 88V87C143.227 86.9655 143.388 86.4424 143 86C142.612 85.5608 142.03 84.9161 142 84H144C144.006 84.3734 143.941 84.771 144 85C144.059 85.229 143.885 84.9027 144 85C144.115 85.1004 144.835 85 145 85C145.21 85 144.934 85.1349 145 85C145.062 84.8651 145 85.1506 145 85C145 84.6423 145.174 84.2479 145 84C144.822 83.7521 144.309 83.251 144 83H143C142.776 82.8055 143.181 82.2039 143 82C142.816 81.7961 142.112 81.2698 142 81C141.888 80.7333 142 80.3702 142 80C142 79.3192 142.589 79.3859 143 79C143.408 78.6141 143.309 78.0502 144 78V77H145V78C145.434 78.022 145.737 77.8306 146 78C146.263 78.1694 145.868 78.7553 146 79C146.131 79.2479 146.951 79.7239 147 80C147.049 80.2761 146.99 79.7616 147 80L145 81C144.993 80.7427 145.026 80.1945 145 80C144.974 79.8055 145.079 80.1035 145 80C144.921 79.8965 145.174 78.9937 145 79C144.812 79 144.092 79.8494 144 80C143.911 80.1506 144 79.8494 144 80C144 80.3451 143.816 80.7898 144 81C144.184 81.2102 144.783 81.8149 145 82H146C146.253 82.2228 145.786 82.749 146 83C146.214 83.251 146.872 83.6925 147 84C147.128 84.3075 147 84.5984 147 85C147 85.3796 147.164 85.6863 147 86C146.835 86.3137 146.309 86.8023 146 87C145.691 87.1977 145.428 86.9561 145 87V88H144Z" stroke="black" stroke-miterlimit="10"/>
<path d="M62.9998 42C62.9998 42 60.1069 42.4462 59.9998 45C59.8927 47.5538 59.1533 66.048 59.9998 87C60.8463 107.952 63.6819 131.769 63.9998 134C64.3177 136.234 65.3641 136.68 65.9998 137C66.6355 137.32 76.2918 138 81.9998 138C87.7078 138 97.8354 137.32 98.9998 137C100.164 136.68 100.682 133.595 101 132C101.318 130.405 101 129 101 129L102 94C102 94 103 69.9777 103 62C103 54.0223 103.425 45.7025 103 44C102.578 42.2975 99.9998 41 99.9998 41C99.9998 41 98.6895 40.3197 96.9998 40C95.3068 39.6804 93.9998 40 93.9998 40H69.9998C69.9998 40 69.375 39.788 67.9998 40C66.6246 40.212 64.8463 40.5727 63.9998 41C63.1533 41.424 62.9998 42 62.9998 42Z" fill="#757575"/>
<path d="M62.9998 42C62.9998 42 60.1069 42.4462 59.9998 45C59.8927 47.5538 59.1533 66.048 59.9998 87C60.8463 107.952 63.6819 131.769 63.9998 134C64.3177 136.234 65.3641 136.68 65.9998 137C66.6355 137.32 76.2918 138 81.9998 138C87.7078 138 97.8354 137.32 98.9998 137C100.164 136.68 100.682 133.595 101 132C101.318 130.405 101 129 101 129L102 94C102 94 103 69.9777 103 62C103 54.0223 103.425 45.7025 103 44C102.578 42.2975 99.9998 41 99.9998 41C99.9998 41 98.6895 40.3197 96.9998 40C95.3068 39.6804 93.9998 40 93.9998 40H69.9998C69.9998 40 69.375 39.788 67.9998 40C66.6246 40.212 64.8463 40.5727 63.9998 41C63.1533 41.424 62.9998 42 62.9998 42Z" stroke="black" stroke-linecap="round" stroke-linejoin="round"/>
<path d="M64 56L65 83C65 83 64.5779 94.6265 65 96C65.4221 97.3735 67.0487 97.7895 68 98C68.9513 98.2105 74.7395 99.1036 83 99C91.2572 98.8931 96.4122 98.3735 98 97C99.5878 95.6265 100 94.3735 100 93C100 91.6265 100 56 100 56H64Z" fill="black"/>
<path d="M64 56L65 83C65 83 64.5779 94.6265 65 96C65.4221 97.3735 67.0487 97.7895 68 98C68.9513 98.2105 74.7395 99.1036 83 99C91.2572 98.8931 96.4122 98.3735 98 97C99.5878 95.6265 100 94.3735 100 93C100 91.6265 100 56 100 56H64Z" stroke="black" stroke-linecap="round" stroke-linejoin="round"/>
<path d="M98 66H67V90H98V66Z" fill="white" stroke="black" stroke-linecap="round" stroke-linejoin="round"/>
<path d="M66.9997 42L63.9997 51C63.8718 51.3579 63.8718 51.6454 63.9997 52C64.2555 52.7092 65.2257 53.0131 65.9997 53C70.388 52.9179 75.9529 52.9967 82.9997 53C89.6258 53 94.7989 52.7899 96.9997 53C98.053 53.0985 99.6161 51.962 99.9997 51V52C100.192 51.5207 100.151 50.4958 99.9997 50C99.3368 47.8463 97.5247 42.4268 96.9997 42C96.3603 41.4813 95.316 41 94.9997 41C94.6834 41 71.4905 40.7932 69.9997 41C68.5089 41.2068 67.9588 40.8575 66.9997 42Z" fill="#919191"/>
<path d="M66.9997 42L63.9997 51C63.8718 51.3579 63.8718 51.6454 63.9997 52C64.2555 52.7092 65.2257 53.0131 65.9997 53C70.388 52.9179 75.9529 52.9967 82.9997 53C89.6258 53 94.7989 52.7899 96.9997 53C98.053 53.0985 99.6161 51.962 99.9997 51V52C100.192 51.5207 100.151 50.4958 99.9997 50C99.3368 47.8463 97.5247 42.4268 96.9997 42C96.3603 41.4813 95.316 41 94.9997 41C94.6834 41 71.4905 40.7932 69.9997 41C68.5089 41.2068 67.9588 40.8575 66.9997 42Z" stroke="black" stroke-linecap="round" stroke-linejoin="round"/>
<path d="M90 92C90 92 90.7159 94.3906 91 95C91.2841 95.6094 92.5738 96 93 96C93.4262 96 96.577 95.4084 97 95C97.423 94.5916 97.1388 93.6775 97 93C96.8579 92.3225 96.6361 92 96 92C95.3639 92 90 92 90 92Z" fill="white"/>
<path d="M90 92C90 92 90.7159 94.3906 91 95C91.2841 95.6094 92.5738 96 93 96C93.4262 96 96.577 95.4084 97 95C97.423 94.5916 97.1388 93.6775 97 93C96.8579 92.3225 96.6361 92 96 92C95.3639 92 90 92 90 92Z" stroke="black" stroke-linecap="round" stroke-linejoin="round"/>
<path d="M65 92C65 92 65.1542 95.3817 66 96C66.8458 96.6183 72.0708 97.3887 72 97C71.9292 96.6113 70.5628 92.1555 70 92C69.4372 91.8445 65 92 65 92Z" fill="white"/>
<path d="M65 92C65 92 65.1542 95.3817 66 96C66.8458 96.6183 72.0708 97.3887 72 97C71.9292 96.6113 70.5628 92.1555 70 92C69.4372 91.8445 65 92 65 92Z" stroke="black" stroke-linecap="round" stroke-linejoin="round"/>
<path d="M73 92C73 92 74.2862 95.4891 75 96C75.7138 96.5109 76.4981 97 77 97C77.5019 97 84.6441 97 86 97C87.3559 97 89 96.2204 89 96C89 95.7796 87.3585 92.2905 87 92C86.6415 91.7062 86.2836 92 86 92C85.7164 92 74.3585 92.0734 74 92C73.6415 91.9265 73 91.5626 73 92Z" fill="white"/>
<path d="M73 92C73 92 74.2862 95.4891 75 96C75.7138 96.5109 76.4981 97 77 97C77.5019 97 84.6441 97 86 97C87.3559 97 89 96.2204 89 96C89 95.7796 87.3585 92.2905 87 92C86.6415 91.7062 86.2836 92 86 92C85.7164 92 74.3585 92.0734 74 92C73.6415 91.9265 73 91.5626 73 92Z" stroke="black" stroke-linecap="round" stroke-linejoin="round"/>
<path d="M79 96L83 92" stroke="black" stroke-linecap="round" stroke-linejoin="round"/>
<path d="M86 93L85 94H87L86 93Z" fill="black"/>
<path d="M86 93L85 94H87L86 93Z" stroke="black" stroke-linecap="round" stroke-linejoin="round"/>
<path d="M76 95L77 96L78 95H76Z" fill="black"/>
<path d="M76 95L77 96L78 95H76Z" stroke="black" stroke-linecap="round" stroke-linejoin="round"/>
<path d="M95 94H92V95H95V94Z" fill="black"/>
<path d="M69 94H66V95H69V94Z" fill="black"/>
<path d="M66.9997 101C66.9997 101 67.2841 101 66.9997 101C66.5395 100.996 65.3448 101.565 64.9997 102C64.4404 102.702 64.6482 105.465 64.9997 106C65.5909 106.906 72.4372 107.153 72.9997 107C73.5589 106.843 73.9294 106.859 73.9997 106C74.07 105.141 74.6324 102.624 73.9997 102C73.3701 101.376 66.9997 101 66.9997 101V101Z" stroke="black" stroke-linecap="round" stroke-linejoin="round"/>
<path d="M67.9996 102C67.9996 102 68.2506 102.004 67.9996 102C67.5913 101.996 66.3075 101.638 65.9996 102C65.5009 102.586 65.6883 105.551 65.9996 106C66.525 106.756 72.5009 107.13 72.9996 107C73.4983 106.87 73.9393 106.716 73.9996 106C74.0632 105.284 74.5585 103.52 73.9996 103C73.4407 102.48 67.9996 102 67.9996 102Z" fill="black"/>
<path d="M67.9996 102C67.9996 102 68.2506 102.004 67.9996 102C67.5913 101.996 66.3075 101.638 65.9996 102C65.5009 102.586 65.6883 105.551 65.9996 106C66.525 106.756 72.5009 107.13 72.9996 107C73.4983 106.87 73.9393 106.716 73.9996 106C74.0632 105.284 74.5585 103.52 73.9996 103C73.4407 102.48 67.9996 102 67.9996 102Z" stroke="black" stroke-linecap="round" stroke-linejoin="round"/>
<path d="M66.9997 108C66.9997 108 67.2841 108 66.9997 108C66.5395 107.996 65.3448 108.565 64.9997 109C64.4404 109.702 64.6482 112.465 64.9997 113C65.5909 113.906 72.4372 114.153 72.9997 114C73.5589 113.843 73.9294 113.859 73.9997 113C74.07 112.141 74.6324 109.624 73.9997 109C73.3701 108.376 66.9997 108 66.9997 108V108Z" stroke="black" stroke-linecap="round" stroke-linejoin="round"/>
<path d="M67.9996 109C67.9996 109 68.2506 109.004 67.9996 109C67.5913 108.996 66.3075 108.638 65.9996 109C65.5009 109.586 65.6883 112.551 65.9996 113C66.525 113.756 72.5009 114.13 72.9996 114C73.4983 113.87 73.9393 113.716 73.9996 113C74.0632 112.284 74.5585 110.52 73.9996 110C73.4407 109.48 67.9996 109 67.9996 109Z" fill="black"/>
<path d="M67.9996 109C67.9996 109 68.2506 109.004 67.9996 109C67.5913 108.996 66.3075 108.638 65.9996 109C65.5009 109.586 65.6883 112.551 65.9996 113C66.525 113.756 72.5009 114.13 72.9996 114C73.4983 113.87 73.9393 113.716 73.9996 113C74.0632 112.284 74.5585 110.52 73.9996 110C73.4407 109.48 67.9996 109 67.9996 109Z" stroke="black" stroke-linecap="round" stroke-linejoin="round"/>
<path d="M67.9997 114C67.9997 114 68.2841 114 67.9997 114C67.5395 113.996 66.3448 114.565 65.9997 115C65.4404 115.702 65.6482 118.465 65.9997 119C66.5909 119.906 73.4372 120.153 73.9997 120C74.5589 119.843 74.9294 119.859 74.9997 119C75.07 118.141 75.6324 115.624 74.9997 115C74.3701 114.376 67.9997 114 67.9997 114V114Z" stroke="black" stroke-linecap="round" stroke-linejoin="round"/>
<path d="M68.9996 115C68.9996 115 69.2506 115.004 68.9996 115C68.5913 114.996 67.3075 114.638 66.9996 115C66.5009 115.586 66.6883 118.551 66.9996 119C67.525 119.756 73.5009 120.13 73.9996 120C74.4983 119.87 74.9393 119.716 74.9996 119C75.0632 118.284 75.5585 116.52 74.9996 116C74.4407 115.48 68.9996 115 68.9996 115Z" fill="black"/>
<path d="M68.9996 115C68.9996 115 69.2506 115.004 68.9996 115C68.5913 114.996 67.3075 114.638 66.9996 115C66.5009 115.586 66.6883 118.551 66.9996 119C67.525 119.756 73.5009 120.13 73.9996 120C74.4983 119.87 74.9393 119.716 74.9996 119C75.0632 118.284 75.5585 116.52 74.9996 116C74.4407 115.48 68.9996 115 68.9996 115Z" stroke="black" stroke-linecap="round" stroke-linejoin="round"/>
<path d="M67.9997 121C67.9997 121 68.2841 121 67.9997 121C67.5395 120.996 66.3448 121.565 65.9997 122C65.4404 122.702 65.6482 125.465 65.9997 126C66.5909 126.906 73.4372 127.153 73.9997 127C74.5589 126.843 74.9294 126.859 74.9997 126C75.07 125.141 75.6324 122.624 74.9997 122C74.3701 121.376 67.9997 121 67.9997 121V121Z" stroke="black" stroke-linecap="round" stroke-linejoin="round"/>
<path d="M68.9996 122C68.9996 122 69.2506 122.004 68.9996 122C68.5913 121.996 67.3075 121.638 66.9996 122C66.5009 122.586 66.6883 125.551 66.9996 126C67.525 126.756 73.5009 127.13 73.9996 127C74.4983 126.87 74.9393 126.716 74.9996 126C75.0632 125.284 75.5585 123.52 74.9996 123C74.4407 122.48 68.9996 122 68.9996 122Z" fill="black"/>
<path d="M68.9996 122C68.9996 122 69.2506 122.004 68.9996 122C68.5913 121.996 67.3075 121.638 66.9996 122C66.5009 122.586 66.6883 125.551 66.9996 126C67.525 126.756 73.5009 127.13 73.9996 127C74.4983 126.87 74.9393 126.716 74.9996 126C75.0632 125.284 75.5585 123.52 74.9996 123C74.4407 122.48 68.9996 122 68.9996 122Z" stroke="black" stroke-linecap="round" stroke-linejoin="round"/>
<path d="M94.9996 101C94.9996 101 94.7152 101 94.9996 101C95.4598 100.996 96.6545 101.565 96.9996 102C97.5589 102.702 97.3512 105.465 96.9996 106C96.4085 106.906 89.5621 107.153 88.9996 107C88.4404 106.843 88.07 106.859 87.9996 106C87.9293 105.141 87.3669 102.624 87.9996 102C88.6292 101.376 94.9996 101 94.9996 101V101Z" stroke="black" stroke-linecap="round" stroke-linejoin="round"/>
<path d="M94.9995 102C94.7451 102.004 94.9995 102 94.9995 102C95.4078 101.996 96.6916 101.638 96.9995 102C97.4982 102.586 97.3107 105.551 96.9995 106C96.474 106.756 90.4982 107.13 89.9995 107C89.5008 106.87 89.0597 106.716 88.9995 106C88.9359 105.284 88.4406 103.52 88.9995 103C89.5584 102.48 94.9995 102 94.9995 102Z" fill="black"/>
<path d="M94.9995 102C94.7451 102.004 94.9995 102 94.9995 102C95.4078 101.996 96.6916 101.638 96.9995 102C97.4982 102.586 97.3107 105.551 96.9995 106C96.474 106.756 90.4982 107.13 89.9995 107C89.5008 106.87 89.0597 106.716 88.9995 106C88.9359 105.284 88.4406 103.52 88.9995 103C89.5584 102.48 94.9995 102 94.9995 102Z" stroke="black" stroke-linecap="round" stroke-linejoin="round"/>
<path d="M94.9996 108C94.9996 108 94.7152 108 94.9996 108C95.4598 107.996 96.6545 108.565 96.9996 109C97.5589 109.702 97.3512 112.465 96.9996 113C96.4085 113.906 89.5621 114.153 88.9996 114C88.4404 113.843 88.07 113.859 87.9996 113C87.9293 112.141 87.3669 109.624 87.9996 109C88.6292 108.376 94.9996 108 94.9996 108V108Z" stroke="black" stroke-linecap="round" stroke-linejoin="round"/>
<path d="M94.9995 109C94.7451 109.004 94.9995 109 94.9995 109C95.4078 108.996 96.6916 108.638 96.9995 109C97.4982 109.586 97.3107 112.551 96.9995 113C96.474 113.756 90.4982 114.13 89.9995 114C89.5008 113.87 89.0597 113.716 88.9995 113C88.9359 112.284 88.4406 110.52 88.9995 110C89.5584 109.48 94.9995 109 94.9995 109Z" fill="black"/>
<path d="M94.9995 109C94.7451 109.004 94.9995 109 94.9995 109C95.4078 108.996 96.6916 108.638 96.9995 109C97.4982 109.586 97.3107 112.551 96.9995 113C96.474 113.756 90.4982 114.13 89.9995 114C89.5008 113.87 89.0597 113.716 88.9995 113C88.9359 112.284 88.4406 110.52 88.9995 110C89.5584 109.48 94.9995 109 94.9995 109Z" stroke="black" stroke-linecap="round" stroke-linejoin="round"/>
<path d="M94.9996 114C94.9996 114 94.7152 114 94.9996 114C95.4598 113.996 96.6545 114.565 96.9996 115C97.5589 115.702 97.3512 118.465 96.9996 119C96.4085 119.906 89.5621 120.153 88.9996 120C88.4404 119.843 88.07 119.859 87.9996 119C87.9293 118.141 87.3669 115.624 87.9996 115C88.6292 114.376 94.9996 114 94.9996 114V114Z" stroke="black" stroke-linecap="round" stroke-linejoin="round"/>
<path d="M94.9995 115C94.7485 115.004 94.9995 115 94.9995 115C95.4078 114.996 96.6916 114.638 96.9995 115C97.4982 115.586 97.3107 118.551 96.9995 119C96.474 119.756 90.4982 120.13 89.9995 120C89.5008 119.87 89.0597 119.716 88.9995 119C88.9359 118.284 88.4406 116.52 88.9995 116C89.5584 115.48 94.9995 115 94.9995 115Z" fill="black"/>
<path d="M94.9995 115C94.7485 115.004 94.9995 115 94.9995 115C95.4078 114.996 96.6916 114.638 96.9995 115C97.4982 115.586 97.3107 118.551 96.9995 119C96.474 119.756 90.4982 120.13 89.9995 120C89.5008 119.87 89.0597 119.716 88.9995 119C88.9359 118.284 88.4406 116.52 88.9995 116C89.5584 115.48 94.9995 115 94.9995 115Z" stroke="black" stroke-linecap="round" stroke-linejoin="round"/>
<path d="M94.9996 121C94.9996 121 94.7152 121 94.9996 121C95.4598 120.996 96.6545 121.565 96.9996 122C97.5589 122.702 97.3512 125.465 96.9996 126C96.4085 126.906 89.5621 127.153 88.9996 127C88.4404 126.843 88.07 126.859 87.9996 126C87.9293 125.141 87.3669 122.624 87.9996 122C88.6292 121.376 94.9996 121 94.9996 121V121Z" stroke="black" stroke-linecap="round" stroke-linejoin="round"/>
<path d="M94.9995 122C94.7485 122.004 94.9995 122 94.9995 122C95.4078 121.996 96.6916 121.638 96.9995 122C97.4982 122.586 97.3107 125.551 96.9995 126C96.474 126.756 90.4982 127.13 89.9995 127C89.5008 126.87 89.0597 126.716 88.9995 126C88.9359 125.284 88.4406 123.52 88.9995 123C89.5584 122.48 94.9995 122 94.9995 122Z" fill="black"/>
<path d="M94.9995 122C94.7485 122.004 94.9995 122 94.9995 122C95.4078 121.996 96.6916 121.638 96.9995 122C97.4982 122.586 97.3107 125.551 96.9995 126C96.474 126.756 90.4982 127.13 89.9995 127C89.5008 126.87 89.0597 126.716 88.9995 126C88.9359 125.284 88.4406 123.52 88.9995 123C89.5584 122.48 94.9995 122 94.9995 122Z" stroke="black" stroke-linecap="round" stroke-linejoin="round"/>
<path d="M79.9999 102C79.9999 102 78.469 101.819 77.9999 102C77.5307 102.177 76.9544 102.686 76.9999 103C77.0454 103.314 76.9509 105.301 76.9999 106C77.0489 106.719 77.4607 106.95 77.9999 107C78.4305 107.04 85.2016 107.268 85.9999 107C86.7981 106.732 86.9999 105.358 86.9999 105C86.9999 104.642 87.2345 103.448 86.9999 103C86.7653 102.552 85.3745 101.957 84.9999 102C84.6253 102.043 80.7946 101.91 79.9999 102V102Z" stroke="black" stroke-linecap="round" stroke-linejoin="round"/>
<path d="M85.9998 108C85.9998 108 78.6552 107.831 77.9998 108C77.3444 108.169 76.9507 108.36 76.9998 109C77.0489 109.64 76.6739 111.49 76.9998 112C77.3292 112.51 77.5792 112.873 77.9998 113C78.4204 113.127 85.5302 113.21 85.9998 113C86.4694 112.787 86.9052 112.554 86.9998 112C87.0944 111.446 87.2802 109.554 86.9998 109C86.7194 108.446 85.9998 108 85.9998 108Z" stroke="black" stroke-linecap="round" stroke-linejoin="round"/>
<path d="M85 109C85 109 78.7793 109 78 109C77.2206 109 77.0453 109.276 77 110C76.9579 110.724 76.654 112.856 77 113C77.346 113.144 80.3572 113 82 113C83.6428 113 84.7413 113.241 85 113C85.2587 112.759 85 110.771 85 110C85 109.229 85.388 108.856 85 109Z" fill="black"/>
<path d="M85 109C85 109 78.7793 109 78 109C77.2206 109 77.0453 109.276 77 110C76.9579 110.724 76.654 112.856 77 113C77.346 113.144 80.3572 113 82 113C83.6428 113 84.7413 113.241 85 113C85.2587 112.759 85 110.771 85 110C85 109.229 85.388 108.856 85 109Z" stroke="black" stroke-linecap="round" stroke-linejoin="round"/>
<path d="M84.9998 102C84.9998 102 78.779 102 77.9998 102C77.2206 102 77.045 102.276 76.9998 103C76.9545 103.724 76.6538 105.856 76.9998 106C77.3457 106.144 80.3573 106 81.9998 106C83.6423 106 84.7411 106.241 84.9998 106C85.2584 105.759 84.9998 103.771 84.9998 103C84.9998 102.229 85.3878 101.856 84.9998 102Z" fill="black"/>
<path d="M84.9998 102C84.9998 102 78.779 102 77.9998 102C77.2206 102 77.045 102.276 76.9998 103C76.9545 103.724 76.6538 105.856 76.9998 106C77.3457 106.144 80.3573 106 81.9998 106C83.6423 106 84.7411 106.241 84.9998 106C85.2584 105.759 84.9998 103.771 84.9998 103C84.9998 102.229 85.3878 101.856 84.9998 102Z" stroke="black" stroke-linecap="round" stroke-linejoin="round"/>
<path d="M86 115C86 115 78.6528 114.828 78 115C77.3471 115.169 76.9511 115.358 77 116C77.0454 116.642 76.6753 118.489 77 119C77.3247 119.511 77.581 119.872 78 120C78.4189 120.128 85.5321 120.211 86 120C86.4678 119.786 86.9057 119.555 87 119C87.0942 118.445 87.2793 116.555 87 116C86.7207 115.445 86 115 86 115Z" stroke="black" stroke-linecap="round" stroke-linejoin="round"/>
<path d="M84.9998 116C84.9998 116 78.779 116 77.9998 116C77.2206 116 77.045 116.276 76.9998 117C76.9545 117.724 76.6538 119.856 76.9998 120C77.3457 120.144 80.3573 120 81.9998 120C83.6423 120 84.7411 120.241 84.9998 120C85.2584 119.759 84.9998 117.771 84.9998 117C84.9998 116.229 85.3878 115.856 84.9998 116Z" fill="black"/>
<path d="M84.9998 116C84.9998 116 78.779 116 77.9998 116C77.2206 116 77.045 116.276 76.9998 117C76.9545 117.724 76.6538 119.856 76.9998 120C77.3457 120.144 80.3573 120 81.9998 120C83.6423 120 84.7411 120.241 84.9998 120C85.2584 119.759 84.9998 117.771 84.9998 117C84.9998 116.229 85.3878 115.856 84.9998 116Z" stroke="black" stroke-linecap="round" stroke-linejoin="round"/>
<path d="M84.9997 122C84.9997 122 78.593 121.831 77.9997 122C77.4064 122.169 76.9553 122.359 76.9997 123C77.0442 123.641 76.7047 125.49 76.9997 126C77.298 126.51 77.619 126.872 77.9997 127C78.3805 127.128 84.5746 127.211 84.9997 127C85.4249 126.786 85.9141 126.555 85.9997 126C86.0854 125.445 86.2536 123.555 85.9997 123C85.7459 122.445 84.9997 122 84.9997 122Z" stroke="black" stroke-linecap="round" stroke-linejoin="round"/>
<path d="M84.9998 123C84.9998 123 78.779 123 77.9998 123C77.2206 123 77.045 123.276 76.9998 124C76.9545 124.724 76.6538 126.856 76.9998 127C77.3457 127.144 80.3573 127 81.9998 127C83.6423 127 84.7411 127.241 84.9998 127C85.2584 126.759 84.9998 124.771 84.9998 124C84.9998 123.229 85.3878 122.856 84.9998 123Z" fill="black"/>
<path d="M84.9998 123C84.9998 123 78.779 123 77.9998 123C77.2206 123 77.045 123.276 76.9998 124C76.9545 124.724 76.6538 126.856 76.9998 127C77.3457 127.144 80.3573 127 81.9998 127C83.6423 127 84.7411 127.241 84.9998 127C85.2584 126.759 84.9998 124.771 84.9998 124C84.9998 123.229 85.3878 122.856 84.9998 123Z" stroke="black" stroke-linecap="round" stroke-linejoin="round"/>
<path d="M73.9997 129C73.9997 129 68.7537 128.056 67.9997 128C67.2458 127.944 66.9429 128.428 66.9997 129C67.0565 129.569 66.6495 131.487 66.9997 132C67.3499 132.513 69.1416 132.886 70.9997 133C72.8578 133.114 73.536 133.284 73.9997 133C74.4634 132.716 74.9429 132.683 74.9997 132C75.0565 131.317 75.1133 129.457 74.9997 129C74.8861 128.543 73.9997 129 73.9997 129Z" fill="#666666"/>
<path d="M73.9997 129C73.9997 129 68.7537 128.056 67.9997 128C67.2458 127.944 66.9429 128.428 66.9997 129C67.0565 129.569 66.6495 131.487 66.9997 132C67.3499 132.513 69.1416 132.886 70.9997 133C72.8578 133.114 73.536 133.284 73.9997 133C74.4634 132.716 74.9429 132.683 74.9997 132C75.0565 131.317 75.1133 129.457 74.9997 129C74.8861 128.543 73.9997 129 73.9997 129Z" stroke="black" stroke-linecap="round" stroke-linejoin="round"/>
<path d="M88.9997 129C88.9997 129 94.2457 128.056 94.9997 128C95.7536 127.944 96.0564 128.428 95.9997 129C95.9429 129.572 96.3498 131.487 95.9997 132C95.6495 132.513 93.8577 132.886 91.9997 133C90.1416 133.114 89.4634 133.284 88.9997 133C88.5359 132.716 88.0564 132.683 87.9997 132C87.9429 131.317 87.8861 129.457 87.9997 129C88.1164 128.546 88.9997 129 88.9997 129Z" fill="#00812A"/>
<path d="M88.9997 129C88.9997 129 94.2457 128.056 94.9997 128C95.7536 127.944 96.0564 128.428 95.9997 129C95.9429 129.572 96.3498 131.487 95.9997 132C95.6495 132.513 93.8577 132.886 91.9997 133C90.1416 133.114 89.4634 133.284 88.9997 133C88.5359 132.716 88.0564 132.683 87.9997 132C87.9429 131.317 87.8861 129.457 87.9997 129C88.1164 128.546 88.9997 129 88.9997 129Z" stroke="black" stroke-linecap="round" stroke-linejoin="round"/>
<path d="M76.9999 129C76.9999 129 76.7068 131.485 76.9999 132C77.293 132.515 77.4137 132.953 77.9999 133C78.586 133.047 84.1695 133.234 84.9999 133C85.8303 132.766 85.951 132.328 85.9999 132C86.0487 131.672 86.0976 129.374 85.9999 129C85.9022 128.625 85.6349 128.047 84.9999 128C84.3649 127.953 79.7326 128 78.9999 128C78.2672 128 77.1255 128.529 76.9999 129Z" fill="#BABABA"/>
<path d="M76.9999 129C76.9999 129 76.7068 131.485 76.9999 132C77.293 132.515 77.4137 132.953 77.9999 133C78.586 133.047 84.1695 133.234 84.9999 133C85.8303 132.766 85.951 132.328 85.9999 132C86.0487 131.672 86.0976 129.374 85.9999 129C85.9022 128.625 85.6349 128.047 84.9999 128C84.3649 127.953 79.7326 128 78.9999 128C78.2672 128 77.1255 128.529 76.9999 129Z" stroke="black" stroke-linecap="round" stroke-linejoin="round"/>
<path d="M65 136L66 135C66 135 73.8498 136.142 82 136C90.1502 135.858 96 135 96 135C96 135 97.3979 135.829 98 136" stroke="black" stroke-linecap="round" stroke-linejoin="round"/>
<path d="M87.9999 77L84.9999 75C84.7471 74.8624 84.1308 74.7377 83.9999 75C83.8841 75.2303 83.808 75.8337 83.9999 76L86.9999 78C86.9999 78 87.4608 79.8976 87.9999 80C88.5389 80.1023 88.9999 80 88.9999 80" stroke="black" stroke-linecap="round" stroke-linejoin="round"/>
<path d="M86 76V75C86.0623 74.6959 86.298 74.0629 86 74H84C83.6985 73.9371 83.0623 73.6994 83 74V76C82.9376 76.3041 82.702 76.9371 83 77H85C85 77 84.7089 77.7448 85 78C85.291 78.2552 85.6015 78.7798 86 79C86.3984 79.2202 87 79 87 79" stroke="black" stroke-linecap="round" stroke-linejoin="round"/>
<path d="M86 75C86 75 87.6614 74.7507 88 75C88.3386 75.2493 91 79 91 79" stroke="black" stroke-linecap="round" stroke-linejoin="round"/>
<path d="M84.9999 78C84.9999 78 84.7541 78.8158 84.9999 79C85.2456 79.1842 85.5083 78.894 85.9999 79C86.4914 79.106 86.8477 79.053 86.9999 79C87.152 78.947 86.9999 79 86.9999 79" stroke="black" stroke-linecap="round" stroke-linejoin="round"/>
<path d="M86 79C84.6588 80.5737 82.7497 82 80 82C75.7872 82 72 80.0376 72 77C72 73.9624 75.7872 71 80 71C83.5358 71 86.1369 72.6475 87 75" stroke="black" stroke-linecap="round" stroke-linejoin="round"/>
<path d="M80 80C79.9346 80 80.0571 80.0278 80 80C79.8366 79.9197 79.8938 80.1266 80 80C80.8044 79.0644 81 77.1209 81 76C81 74.8791 80.7391 73.9078 80 73C79.8325 73.0772 79.8979 72.8734 80 73C80.1674 72.9228 80.8979 72.8703 81 73C81.8085 73.9912 82 74.8297 82 76C82 77.1703 81.882 78.9779 81 80C80.9306 80.0803 80.1143 80 80 80Z" fill="black"/>
<path d="M79.0002 80C78.9613 80 79.0346 80.0366 79.0002 80C78.9108 79.9069 78.9383 80.1297 79.0002 80C79.3716 79.2287 80.0002 77.9442 80.0002 77C80.0002 76.119 79.3281 74.738 79.0002 74C78.9085 74.0898 78.9406 73.867 79.0002 74C78.9383 73.867 79.0942 73.9136 79.0002 74C79.3693 74.8311 80.0002 76.006 80.0002 77C80.0002 78.0638 79.4198 79.129 79.0002 80C79.0644 80 78.9613 80.0798 79.0002 80Z" fill="black"/>
<path d="M77.0002 78C76.9507 78 77.0419 78.0381 77.0002 78C76.9013 77.9121 76.9221 78.1113 77.0002 78C77.3257 77.5431 78.0002 76.5858 78.0002 76C78.0002 75.4142 77.3153 74.454 77.0002 74C76.9013 74.0849 76.9221 73.8887 77.0002 74C76.9247 73.8887 77.0992 73.9121 77.0002 74C77.3804 74.5448 78.0002 75.3058 78.0002 76C78.0002 76.6942 77.383 77.4581 77.0002 78C77.0653 78 76.956 78.0644 77.0002 78Z" fill="black"/>
<path d="M76.0001 78C75.9308 78 76.0422 78.0772 76.0001 78C75.9035 78.0834 75.9333 77.8764 76.0001 78C76.2972 77.7497 77.0001 76.448 77.0001 76C77.0001 75.6477 76.1957 75.2534 76.0001 75C75.9134 75.102 75.9159 74.8919 76.0001 75C76.0868 74.8949 76.9184 74.8919 77.0001 75C77.2749 75.3523 77.0001 75.5087 77.0001 76C77.0001 76.6273 76.4186 77.6508 76.0001 78C76.0422 78 75.963 78.0309 76.0001 78Z" fill="black"/>
<path d="M68.9996 105V103C68.972 103.014 69.0341 102.982 68.9996 103C68.9651 103.014 69.0375 102.986 68.9996 103C68.9617 103.018 69.0341 102.986 68.9996 103C68.9651 103.014 69.0306 102.982 68.9996 103V102C68.9513 102.025 69.0272 101.986 68.9996 102C68.9444 102.032 69.0479 101.975 68.9996 102C68.9513 102.035 69.0548 101.968 68.9996 102C69.0479 101.968 69.9755 102.025 69.9996 102V105H68.9996Z" fill="white"/>
<path d="M79.9996 106L80.9996 104C80.9439 104.077 81.0638 103.92 80.9996 104C80.9653 104.077 81.0595 103.923 80.9996 104C80.9996 104.084 81.0381 103.923 80.9996 104C80.9996 103.916 81.0424 104.038 80.9996 104C80.9567 103.958 81.0724 104 80.9996 104C80.9182 104 81.0467 103.962 80.9996 104C80.9567 104.035 81.0124 103.937 80.9996 104C80.9824 104.059 80.9996 103.923 80.9996 104H79.9996C79.9996 103.825 79.931 103.136 79.9996 103C79.8497 103.077 80.0681 102.864 79.9996 103C80.1495 102.92 80.7597 103 80.9996 103C81.325 103 81.8325 102.864 81.9996 103C82.1666 103.136 81.9996 103.752 81.9996 104C81.9996 104.119 82.0467 103.899 81.9996 104C81.9525 104.101 82.0767 103.906 81.9996 104C81.9225 104.098 82.0852 104.895 81.9996 105L80.9996 106H81.9996H79.9996Z" fill="white"/>
<path d="M92.9996 105C92.7469 105 92.1452 105.075 91.9996 105C91.854 104.925 92.0595 105.137 91.9996 105C91.9396 104.863 91.9996 104.182 91.9996 104H92.9996C92.9867 103.942 92.9996 104.096 92.9996 104C92.961 103.973 93.0124 104.058 92.9996 104C92.9311 104 93.0381 104.027 92.9996 104C92.9653 104.031 93.0681 104 92.9996 104C92.9867 104.058 93.0338 103.973 92.9996 104C92.9996 104.086 93.0124 103.942 92.9996 104C92.9996 103.856 93.0467 104.075 92.9996 104C92.9525 103.925 93.158 104.003 92.9996 104V103C92.9482 103.069 93.158 103 92.9996 103C92.9996 103.144 93.0552 102.932 92.9996 103C92.9996 102.887 93.0381 103.058 92.9996 103C92.961 102.942 93.1024 102 92.9996 102C92.8968 102 93.0338 102.935 92.9996 103C92.9696 103.065 92.9996 102.897 92.9996 103H91.9996C91.9996 102.825 91.9182 102.12 91.9996 102C91.854 102.062 92.0767 101.88 91.9996 102C92.1495 101.938 92.794 102 92.9996 102C93.2051 102 93.8497 101.942 93.9996 102C93.9182 101.884 94.1495 102.058 93.9996 102C94.0809 102.116 93.9996 102.829 93.9996 103C93.9996 103.171 94.0852 102.884 93.9996 103C93.9139 103.113 94.1195 102.973 93.9996 103C94.0809 103.024 93.9311 103.949 93.9996 104C93.961 103.911 94.0681 104.051 93.9996 104C93.9996 103.86 94.0381 104.089 93.9996 104C93.9996 104.178 94.0638 104.863 93.9996 105C93.9353 105.137 94.1452 104.921 93.9996 105C93.854 105.079 93.2394 105 92.9996 105Z" fill="white"/>
<path d="M69.9995 112V111H68.9995L69.9995 109H70.9995V111V112H69.9995ZM69.9995 111V110V111Z" fill="white"/>
<path d="M81.9995 113C81.7263 113 81.1404 113.076 80.9995 113C80.8585 112.924 81.0479 113.139 80.9995 113C80.951 112.861 80.9995 112.181 80.9995 112H81.9995C81.9863 111.931 81.9995 112.111 81.9995 112C82.0127 112.069 81.9598 112.972 81.9995 113C82.0391 113.031 81.9246 113.003 81.9995 113C82.0788 113 81.9642 112.049 81.9995 112C81.9907 112.09 82.0347 111.951 81.9995 112C81.9995 112.128 82.0083 111.91 81.9995 112C81.9995 111.903 82.0127 112.073 81.9995 112C81.9863 111.924 82.0435 111.045 81.9995 111C81.9598 110.955 82.0788 111 81.9995 111C81.9246 111 82.0479 110.955 81.9995 111C81.951 111.045 82.0215 111.906 81.9995 112H80.9995V110H82.9995V111H81.9995C81.9114 111.028 82.0303 110.965 81.9995 111C81.8981 111.007 82.0832 110.976 81.9995 111C82.1889 110.983 82.8717 110.927 82.9995 111C82.9334 110.854 83.1316 111.073 82.9995 111C83.0655 111.146 82.9995 111.788 82.9995 112C82.9995 112.156 83.0215 111.868 82.9995 112C82.973 112.132 83.07 112.906 82.9995 113C82.929 113.097 83.136 112.948 82.9995 113C82.8629 113.052 82.2153 113 81.9995 113Z" fill="white"/>
<path d="M92.9994 112C92.7634 112 92.1453 112.083 91.9994 112C91.8535 111.917 92.0681 112.145 91.9994 112C91.9307 111.856 91.9994 111.182 91.9994 111V110C91.9994 109.811 91.9436 109.151 91.9994 109C91.8535 109.086 92.0552 108.852 91.9994 109C92.1453 108.914 92.7333 109 92.9994 109C93.2312 109 93.8621 108.942 93.9994 109C93.9436 108.89 94.1325 109.059 93.9994 109C94.0552 109.11 93.9994 109.838 93.9994 110C93.9994 109.99 93.9994 110.01 93.9994 110C93.9994 109.993 93.9994 110.007 93.9994 110H92.9994C92.9994 109.883 93.0209 110.059 92.9994 110C92.978 109.945 93.0981 109 92.9994 109C92.9307 109 93.0337 109.966 92.9994 110C92.9651 110.034 93.0123 109.917 92.9994 110C92.9865 110.083 92.9994 109.849 92.9994 110C92.9179 110.028 93.0337 109.948 92.9994 110C92.8964 110.003 93.081 109.973 92.9994 110C93.1925 109.997 93.8835 109.928 93.9994 110C94.1153 110.076 93.9479 110.873 93.9994 111C93.9994 110.842 94.0509 111.127 93.9994 111C93.9994 111.203 94.0595 111.845 93.9994 112C93.9393 112.155 94.141 111.914 93.9994 112C93.8578 112.086 93.2526 112 92.9994 112ZM92.9994 112C92.9694 112.038 93.0681 112 92.9994 112C93.0295 111.962 92.9865 111.072 92.9994 111C92.9994 111.107 93.008 110.928 92.9994 111C92.9994 110.904 93.0123 111.069 92.9994 111C92.9908 110.931 93.0337 111.041 92.9994 111C92.9651 110.959 93.0767 111 92.9994 111C92.9651 111 93.0337 110.99 92.9994 111C92.9651 111.01 93.0252 110.983 92.9994 111C92.9737 111.017 93.0123 110.983 92.9994 111C92.9865 110.945 92.9994 111.065 92.9994 111C93.0123 111.059 92.9608 111.966 92.9994 112C93.038 112.034 92.935 112 92.9994 112Z" fill="white"/>
<path d="M68.9995 119L69.9995 116H68.9995H69.9995V119H68.9995Z" fill="white"/>
<path d="M80.9996 119C80.753 119 80.1468 119.079 79.9996 119C79.8525 118.921 80.0602 119.137 79.9996 119C79.9347 118.863 79.9996 118.178 79.9996 118C79.9823 118.069 79.9996 117.928 79.9996 118C79.965 118.062 80.017 117.931 79.9996 118C79.9477 118.045 80.0343 117.942 79.9996 118C80.0516 117.955 79.9304 117.027 79.9996 117C79.9044 116.945 80.0732 117.106 79.9996 117C79.9261 116.897 80.004 117.161 79.9996 117C79.9996 116.839 79.9304 116.117 79.9996 116C79.8568 116.065 80.0689 115.883 79.9996 116C80.1425 115.935 80.7919 116 80.9996 116C81.2074 116 81.8568 115.935 81.9996 116C81.9304 115.883 82.1381 116.062 81.9996 116C82.0689 116.117 82.004 116.835 81.9996 117C81.9996 117.165 82.0689 116.894 81.9996 117C81.9304 117.103 82.0992 116.945 81.9996 117C82.0732 117.027 81.9477 117.955 81.9996 118C81.965 117.942 82.0516 118.045 81.9996 118C81.9823 117.931 82.0343 118.058 81.9996 118C81.9996 117.928 82.017 118.069 81.9996 118C82.004 118.178 82.0646 118.859 81.9996 119C81.9347 119.137 82.1468 118.925 81.9996 119C81.8525 119.079 81.2507 119 80.9996 119ZM80.9996 119C81.0819 119 80.9607 118.048 80.9996 118C80.991 118.065 81.0343 117.952 80.9996 118C80.9996 118.055 81.0083 117.935 80.9996 118C80.9996 117.925 81.0126 118.072 80.9996 118C80.991 117.931 81.0343 118.045 80.9996 118C80.965 117.955 81.0819 118 80.9996 118C80.9174 118 81.0386 117.955 80.9996 118C80.965 118.045 81.0083 117.931 80.9996 118C80.991 118.069 80.9996 117.925 80.9996 118C80.991 117.935 80.9996 118.055 80.9996 118C80.9607 117.952 81.0083 118.069 80.9996 118C81.0386 118.048 80.9217 119 80.9996 119ZM80.9996 117C80.9694 117.031 81.0516 117 80.9996 117C80.9823 117.062 81.0343 116.969 80.9996 117C81.017 116.935 80.9996 117.096 80.9996 117C81.0386 117.058 80.9996 116.904 80.9996 117C80.9607 116.942 81.0732 116 80.9996 116C80.9261 116 81.0386 116.942 80.9996 117C80.9996 116.904 80.9607 117.058 80.9996 117C80.9996 117.096 80.9823 116.931 80.9996 117C81.017 117.065 80.965 116.969 80.9996 117C81.0343 117.031 80.9477 117 80.9996 117Z" fill="white"/>
<path d="M92.9996 119C92.7673 119 92.1372 119.059 91.9996 119C91.8663 118.942 92.0555 119.114 91.9996 119C91.9437 118.89 91.9996 118.165 91.9996 118H92.9996C92.9738 117.942 92.9996 118.117 92.9996 118C93.0254 118.055 92.9007 119 92.9996 119C93.0684 119 92.9652 118.034 92.9996 118C92.991 118.086 93.034 117.966 92.9996 118C92.9996 118.148 93.0082 117.914 92.9996 118C92.9609 118.052 93.077 117.976 92.9996 118C92.9222 118.028 93.0985 117.993 92.9996 118C92.8061 118 92.1157 118.079 91.9996 118C91.8835 117.921 92.0512 117.134 91.9996 117C91.948 116.866 91.9996 117.158 91.9996 117C91.9996 116.797 91.9351 116.148 91.9996 116C91.8534 116.083 92.0641 115.852 91.9996 116C92.1458 115.917 92.7587 116 92.9996 116C93.2405 116 93.8534 115.924 93.9996 116C93.9308 115.862 94.1458 116.076 93.9996 116C94.0684 116.138 93.9996 116.811 93.9996 117V118C93.9996 118.189 94.0555 118.849 93.9996 119C93.9437 119.148 94.1458 118.914 93.9996 119C93.8577 119.086 93.2663 119 92.9996 119ZM92.9996 117C92.9652 117.024 93.0598 117 92.9996 117C92.9781 117.024 93.034 116.973 92.9996 117C93.0125 117.059 92.9996 116.931 92.9996 117C92.9867 116.945 93.034 116.034 92.9996 116C92.9652 115.966 93.0727 116 92.9996 116C92.9265 116 93.0297 115.962 92.9996 116C92.9652 116.038 93.0082 116.928 92.9996 117C92.9996 116.893 92.991 117.072 92.9996 117C92.9996 117.093 92.9867 116.928 92.9996 117C93.0082 117.072 92.9652 116.962 92.9996 117C93.034 117.041 92.9222 117 92.9996 117Z" fill="white"/>
<path d="M68.9995 125V122H69.9995V123V124V125H68.9995Z" fill="white"/>
<path d="M81.9998 126C81.779 126 81.1469 126.072 80.9998 126C80.8526 125.928 81.0733 126.123 80.9998 126C80.9262 125.877 80.9998 125.168 80.9998 125V124C80.9998 123.829 80.9262 123.127 80.9998 123C80.8526 123.072 81.069 122.873 80.9998 123C81.1469 122.928 81.7703 123 81.9998 123C82.2292 123 82.8526 122.928 82.9998 123C82.9305 122.873 83.1469 123.072 82.9998 123C83.069 123.127 82.9998 123.832 82.9998 124V125C82.9998 125.161 83.0733 125.873 82.9998 126C82.9262 126.127 83.1469 125.928 82.9998 126C82.8526 126.072 82.2205 126 81.9998 126ZM81.9998 125C81.9695 125.038 82.0733 125 81.9998 125C81.9911 125.051 82.0301 124.962 81.9998 125C82.0084 124.952 81.9998 125.034 81.9998 125V124C81.9998 123.959 82.0084 124.051 81.9998 124C81.9954 123.949 82.0301 124.041 81.9998 124C81.9695 123.962 82.0733 124 81.9998 124C81.9262 124 82.0301 123.962 81.9998 124C81.9695 124.038 82.0041 123.949 81.9998 124C81.9954 124.051 81.9998 123.959 81.9998 124V125C81.9998 125.034 81.9911 124.952 81.9998 125C82.0084 125.048 81.9695 124.962 81.9998 125C82.0301 125.038 81.9305 125 81.9998 125Z" fill="white"/>
<path d="M90.9995 125V124H91.9995V125H90.9995Z" fill="white"/>
<path d="M91.9995 125V124V123L92.9995 122V123V122H93.9995V123V124L92.9995 125V124V125H91.9995ZM92.9995 124V123V124Z" fill="white"/>
<path d="M93.9995 123V122H94.9995V123H93.9995Z" fill="white"/>
<path d="M61 111C58.9649 110.823 56 113 56 113L33 114C33 114 33.0644 110.705 32 110C30.9389 109.291 30.3289 111.027 29 112C27.6711 112.973 22 116 22 116C22 116 14.6837 121.763 13 123C11.3163 124.237 7 131 7 131C7 131 3.79664 136.258 3 139C2.20336 141.742 2 145 2 145L0 146V168H10L19 161C19 161 20.9615 160.886 23 160C25.0351 159.114 29.3975 156.564 34 154C38.6058 151.436 43 148 43 148C43 148 48.7841 142.213 51 140C53.2125 137.79 55.2904 133.474 56 131C56.7096 128.523 57 122 57 122C57 122 57.8485 120.682 59 119C60.1515 117.318 62.2034 116.033 63 114C63.7966 111.967 63.0385 111.174 61 111Z" fill="#FFECEC"/>
<path d="M61 111C58.9649 110.823 56 113 56 113L33 114C33 114 33.0644 110.705 32 110C30.9389 109.291 30.3289 111.027 29 112C27.6711 112.973 22 116 22 116C22 116 14.6837 121.763 13 123C11.3163 124.237 7 131 7 131C7 131 3.79664 136.258 3 139C2.20336 141.742 2 145 2 145L0 146V168H10L19 161C19 161 20.9615 160.886 23 160C25.0351 159.114 29.3975 156.564 34 154C38.6058 151.436 43 148 43 148C43 148 48.7841 142.213 51 140C53.2125 137.79 55.2904 133.474 56 131C56.7096 128.523 57 122 57 122C57 122 57.8485 120.682 59 119C60.1515 117.318 62.2034 116.033 63 114C63.7966 111.967 63.0385 111.174 61 111Z" stroke="black" stroke-linecap="round" stroke-linejoin="round"/>
<path d="M58 113C57.313 113.472 57 114 57 114H33C32.9831 114.34 33 114 33 114C32.2758 116.11 30.6583 120.387 29 121C26.8307 121.802 26 124 26 124L23 126C23 126 25.0693 125.939 26 126C26.9307 126.061 27.7089 127.569 30 128C32.2945 128.431 41 132 41 132C41 132 43.4416 133.469 44 136C44.5584 138.531 44 141 44 141L55 136C55.7242 134.527 55.692 133.065 56 132C56.1794 131.38 56.8003 129.994 57 129V128C57 128 55.8782 121.592 56 119C56.088 117.129 57.2352 114.527 58 113Z" fill="black"/>
<path d="M58 113C57.313 113.472 57 114 57 114H33C32.9831 114.34 33 114 33 114C32.2758 116.11 30.6583 120.387 29 121C26.8307 121.802 26 124 26 124L23 126C23 126 25.0693 125.939 26 126C26.9307 126.061 27.7089 127.569 30 128C32.2945 128.431 41 132 41 132C41 132 43.4416 133.469 44 136C44.5584 138.531 44 141 44 141L55 136C55.7242 134.527 55.692 133.065 56 132C56.1794 131.38 56.8003 129.994 57 129V128C57 128 55.8782 121.592 56 119C56.088 117.129 57.2352 114.527 58 113Z" stroke="black" stroke-linecap="round" stroke-linejoin="round"/>
<path d="M53 138C53 138 57.3368 131.825 58 130C58.6599 128.175 58.2409 126.461 58 125C57.7591 123.539 57.7193 120.668 57 120C56.2807 119.332 54.8381 119.359 54 121C53.1586 122.644 52.7591 124.479 53 126C53.2409 127.521 54 128 54 128C54 128 52 129.816 52 130" fill="#FFECEC"/>
<path d="M53 138C53 138 57.3368 131.825 58 130C58.6599 128.175 58.2409 126.461 58 125C57.7591 123.539 57.7193 120.668 57 120C56.2807 119.332 54.8381 119.359 54 121C53.1586 122.644 52.7591 124.479 53 126C53.2409 127.521 54 128 54 128C54 128 52 129.816 52 130" stroke="black" stroke-linecap="round" stroke-linejoin="round"/>
<path d="M43 148C43 148 50.1275 141.61 51 140C51.8725 138.39 52.9393 135.858 53 134C53.0607 132.142 52.2333 130.055 52 129C51.7667 127.949 49.9908 127.761 49 129C48.0124 130.239 47.9425 132.381 48 133C48.0575 133.619 48 134 48 134C48 134 47.3484 136.194 47 137C46.6516 137.806 46 138 46 138C46 138 44.7543 139.442 44 140C43.2425 140.558 42 142 42 142" fill="#FFECEC"/>
<path d="M43 148C43 148 50.1275 141.61 51 140C51.8725 138.39 52.9393 135.858 53 134C53.0607 132.142 52.2333 130.055 52 129C51.7667 127.949 49.9908 127.761 49 129C48.0124 130.239 47.9425 132.381 48 133C48.0575 133.619 48 134 48 134C48 134 47.3484 136.194 47 137C46.6516 137.806 46 138 46 138C46 138 44.7543 139.442 44 140C43.2425 140.558 42 142 42 142" stroke="black" stroke-linecap="round" stroke-linejoin="round"/>
<path d="M50 134C50 134 50.578 135.733 52 136" stroke="black" stroke-linecap="round" stroke-linejoin="round"/>
<path d="M47.0001 138C47.0001 138 46.4557 140.232 49.0001 141" stroke="black" stroke-linecap="round" stroke-linejoin="round"/>
<path d="M54 129C54 129 53.8598 131.465 57 131" stroke="black" stroke-linecap="round" stroke-linejoin="round"/>
<path d="M42 134C42 134 42.8931 135.667 43 138" stroke="black" stroke-linecap="round" stroke-linejoin="round"/>
<path d="M27 121C27 121 24.4229 123.511 24 124C23.5771 124.493 22 126 22 126C22 126 21.5461 127.079 21 128" stroke="black" stroke-linecap="round" stroke-linejoin="round"/>
<path d="M26 130C26 130 25.685 135.274 23 139" stroke="black" stroke-linecap="round" stroke-linejoin="round"/>
<path d="M32.9998 132C32.9998 132 30.8382 135.172 32.9998 140C35.1614 144.828 35.9998 148 35.9998 148" stroke="black" stroke-linecap="round" stroke-linejoin="round"/>
<path d="M45.9999 87L24.9999 125C24.0055 126.845 24.9745 128.529 26.9999 129L43.9999 133C45.4134 133.326 46.3514 132.311 46.9999 131L66.9999 92C67.5985 90.7833 66.3302 89.2017 64.9999 89L47.9999 86C47.1784 85.8756 46.399 86.2605 45.9999 87Z" fill="#FFECEC"/>
<path d="M45.9999 87L24.9999 125C24.0055 126.845 24.9745 128.529 26.9999 129L43.9999 133C45.4134 133.326 46.3514 132.311 46.9999 131L66.9999 92C67.5985 90.7833 66.3302 89.2017 64.9999 89L47.9999 86C47.1784 85.8756 46.399 86.2605 45.9999 87Z" stroke="black" stroke-linecap="round" stroke-linejoin="round"/>
<path d="M45 90L27 123L48 128L65 94L45 90Z" fill="#00812A"/>
<path d="M45 90L27 123L48 128L65 94L45 90Z" stroke="black" stroke-linecap="round" stroke-linejoin="round"/>
<path d="M68 91C67.9899 90.9798 68.0101 91.0202 68 91L67 90C67.1115 90.4416 67.2265 90.5483 67 91L47 131C46.3442 132.315 45.4366 133.327 44 133L27 129C25.9319 128.757 25.3752 127.91 25 127C25 127 25.4282 128.874 27 130C26.591 129.963 27 130 27 130C27.1521 130.061 27.831 129.96 28 130L44 134C45.4366 134.327 47.3409 133.315 48 132L68 92C68.3042 91.3932 68.2772 91.5393 68 91Z" fill="#919191"/>
<path d="M68 91C67.9899 90.9798 68.0101 91.0202 68 91L67 90C67.1115 90.4416 67.2265 90.5483 67 91L47 131C46.3442 132.315 45.4366 133.327 44 133L27 129C25.9319 128.757 25.3752 127.91 25 127C25 127 25.4282 128.874 27 130C26.591 129.963 27 130 27 130C27.1521 130.061 27.831 129.96 28 130L44 134C45.4366 134.327 47.3409 133.315 48 132L68 92C68.3042 91.3932 68.2772 91.5393 68 91Z" stroke="black" stroke-linecap="round" stroke-linejoin="round"/>
<path d="M58.9997 103C58.9689 103.046 59.0305 102.954 58.9997 103C58.4932 103.726 57.2837 104.649 56.9997 104C56.7293 103.379 56.4104 102.516 55.9997 102C55.2331 101.039 54.1735 100.477 52.9997 100C52.1852 99.6702 50.9374 99.0526 49.9997 99C47.6656 98.8596 45.32 99.593 42.9997 101C42.7841 101.133 43.229 100.993 42.9997 101C42.5548 101.018 42.0305 101.435 41.9997 101C41.9689 100.565 42.5685 99.2701 42.9997 99C43.5849 98.6351 43.3871 98.2842 43.9997 98C45.5397 97.2807 47.4494 97.1649 48.9997 97C50.4028 96.8526 51.7471 96.6737 52.9997 97C54.8101 97.4701 56.8395 98.6562 57.9997 100C58.5815 100.674 58.6438 101.158 58.9997 102C59.0784 102.186 59.0613 102.772 58.9997 103C58.9997 102.986 58.9963 103.018 58.9997 103C59.0305 102.926 58.9689 103.077 58.9997 103Z" fill="black"/>
<path d="M45.9999 110C45.9173 109.951 46.0711 110.064 45.9999 110C45.7065 109.747 45.7407 109.421 45.9999 109C46.2619 108.576 46.5784 107.965 46.9999 108C47.5011 108.044 48.1622 108.48 47.9999 109C47.8261 109.561 47.5324 110.009 46.9999 110C46.9885 110 47.0113 109.997 46.9999 110C46.9344 109.988 46.0654 110.012 45.9999 110Z" fill="black"/>
<path d="M49.9996 101C52.1763 101.416 54.1431 103.13 54.9996 105C55.1441 105.318 55.3019 105.679 54.9996 106C54.704 106.318 54.3557 106.082 53.9996 106C53.7746 105.951 53.087 106.196 52.9996 106C52.7813 105.515 52.3658 104.373 51.9996 104C51.442 103.427 50.8192 103.239 49.9996 103C48.5955 102.591 47.612 102.388 45.9996 103C45.5327 103.177 44.443 103.741 43.9996 104C43.7544 104.144 44.2381 104.036 43.9996 104C43.6369 103.948 42.9896 104.363 42.9996 104C43.0097 103.636 43.6268 103.223 43.9996 103C44.5472 102.676 44.4252 102.229 44.9996 102C46.2794 101.496 47.7568 100.98 48.9996 101C49.4363 101.007 49.5865 100.931 49.9996 101Z" fill="black"/>
<path d="M51.9996 107C51.7865 107.445 51.4327 107.898 50.9996 108C50.5664 108.102 50.1629 108.347 49.9996 108C49.8256 107.621 49.3156 107.255 48.9996 107C48.0125 106.187 46.395 106.146 44.9996 107C44.5025 107.306 44.2481 107.314 43.9996 107C43.6552 106.562 44.3924 105.379 44.9996 105C46.0257 104.362 46.9344 104.04 47.9996 104C49.9275 103.927 51.222 104.435 51.9996 106C52.0954 106.19 52.0493 106.752 51.9996 107C52.0173 106.934 51.9818 107.088 51.9996 107Z" fill="black"/>
<path d="M38.9999 28L32.9999 24C32.3303 23.5394 31.5423 22.6774 31.9999 22L37.9999 13C38.4576 12.326 40.327 11.5394 40.9999 12L55.9999 23C56.6695 23.4606 57.4576 24.3226 56.9999 25L50.9999 34C50.5423 34.674 48.6729 35.4606 47.9999 35L40.9999 29" stroke="black" stroke-linecap="round" stroke-linejoin="round"/>
<path d="M38.24 13.686L36 17L54.1515 29.4308L56.3915 26.1168L38.24 13.686Z" fill="black" stroke="black" stroke-linecap="round" stroke-linejoin="round"/>
<path d="M60.9998 33C60.967 32.9865 61.0292 33.0169 60.9998 33C60.5086 32.7496 60.5479 32.3214 60.9998 32C61.4385 31.6887 62.6331 31.3959 62.9998 31C63.6808 30.2658 63.6461 28.944 63.9998 28C64.2093 27.435 63.931 26.5989 63.9998 26C64.2191 24.1492 63.982 22.5665 62.9998 21C62.9146 20.8613 62.9998 21.1658 62.9998 21C62.9965 20.6752 63.6985 20.0981 63.9998 20C64.301 19.9019 64.823 19.7293 64.9998 20C65.2584 20.3959 64.8066 21.5669 64.9998 22C65.5171 23.1571 65.9768 23.7244 65.9998 25C66.0096 25.5177 66.0816 26.4891 65.9998 27C65.9998 26.9797 65.9998 27.0169 65.9998 27C65.9605 27.203 66.039 26.797 65.9998 27C65.9932 27.0237 66.0063 26.9763 65.9998 27C65.9277 27.2538 66.0783 27.7462 65.9998 28C65.7837 28.6699 65.3632 29.4011 64.9998 30C64.3351 31.0928 63.0344 32.2793 61.9998 33C61.8819 33.0812 62.1438 33 61.9998 33C61.9768 33 62.0227 33 61.9998 33C61.9474 32.9898 61.0521 33.0101 60.9998 33Z" fill="black"/>
<path d="M62.9999 26C62.6287 27.642 61.4774 29.0435 59.9999 30C59.749 30.1632 59.2438 30.16 58.9999 30C58.7593 29.8433 58.9311 29.2742 58.9999 29C58.8452 29.0979 59.0445 28.827 58.9999 29C59.3641 28.765 59.7078 28.3167 59.9999 28C60.4775 27.4809 60.7971 26.6594 60.9999 26C61.45 24.5473 61.8623 23.2764 60.9999 22C60.7662 21.6572 60.6631 21.1991 60.9999 21C61.3263 20.8041 61.7834 20.6866 61.9999 21C62.4947 21.7051 62.8383 23.1676 62.9999 24C63.127 24.6496 63.0961 25.3471 62.9999 26C63.0239 25.8564 62.9827 26.1273 62.9999 26Z" fill="black"/>
<path d="M60.9998 26C60.7651 27.0705 59.9422 28.3814 58.9998 29C58.7471 29.1668 58.267 29.146 57.9998 29C57.7362 28.8575 57.9854 28.2919 57.9998 28C57.7976 28.1321 58.0106 27.7671 57.9998 28C58.3176 27.7915 58.8085 27.3197 58.9998 27C59.5559 26.0755 59.5775 24.9141 58.9998 24C58.8879 23.8227 58.9565 24.2085 58.9998 24C59.0576 23.7185 59.7074 23.0556 59.9998 23C59.8301 22.7602 60.2923 22.9409 59.9998 23C60.4259 23.6117 60.9601 24.2667 60.9998 25C61.0179 25.3336 61.0684 25.6733 60.9998 26Z" fill="black"/>
<path d="M168 22L157 5L153 7C148.752 9.0459 142.885 9.62499 135 12C127.115 14.375 123.642 14.8625 121 17C118.355 19.1375 110.704 31.8125 110 33C109.296 34.1909 111 37 111 37C111 37 121.849 43.8371 122 44C122.151 44.1629 124.76 45.8643 126 46C127.241 46.1357 130 46 130 46C130 46 130.283 46.7727 131 47C131.721 47.2273 134 46 134 46C134 46 136.676 48.1739 138 47C139.324 45.8261 142 39 142 39C142 39 148.125 37.2393 153 35C157.875 32.7607 159.832 30.4395 163 28C164.71 26.6836 166.756 25.5971 168 25V22Z" fill="#FFECEC"/>
<path d="M168 22L157 5L153 7C148.752 9.0459 142.885 9.62499 135 12C127.115 14.375 123.642 14.8625 121 17C118.355 19.1375 110.704 31.8125 110 33C109.296 34.1909 111 37 111 37C111 37 121.849 43.8371 122 44C122.151 44.1629 124.76 45.8643 126 46C127.241 46.1357 130 46 130 46C130 46 130.283 46.7727 131 47C131.721 47.2273 134 46 134 46C134 46 136.676 48.1739 138 47C139.324 45.8261 142 39 142 39C142 39 148.125 37.2393 153 35C157.875 32.7607 159.832 30.4395 163 28C164.71 26.6836 166.756 25.5971 168 25V22Z" stroke="black" stroke-linecap="round" stroke-linejoin="round"/>
<path d="M131 44C132.319 42.1862 134.301 39.2411 135 37" stroke="black" stroke-linecap="round" stroke-linejoin="round"/>
<path d="M130 45C130 45 129.712 44.6316 130 44" stroke="black" stroke-linecap="round" stroke-linejoin="round"/>
<path d="M135 45C135 45 136.164 43.2374 138 40C139.836 36.7626 139.347 36.2581 139 36" stroke="black" stroke-linecap="round" stroke-linejoin="round"/>
<path d="M122 31C122.614 31.3731 123.28 31.7115 124 32" stroke="black" stroke-linecap="round" stroke-linejoin="round"/>
<path d="M117 25C117 25 117.938 27.7524 120 30" stroke="black" stroke-linecap="round" stroke-linejoin="round"/>
<path d="M121 21C121 21 123.523 26.9303 126 28" stroke="black" stroke-linecap="round" stroke-linejoin="round"/>
<path d="M140 36C140 36 142.084 37.5282 142 39" stroke="black" stroke-linecap="round" stroke-linejoin="round"/>
<path d="M113 33C113.848 33.1424 114.956 33.4303 116 34" stroke="black" stroke-linecap="round" stroke-linejoin="round"/>
<path d="M112 33C112 33 112.389 32.9321 113 33" stroke="black" stroke-linecap="round" stroke-linejoin="round"/>
<path d="M118.632 32.4532L87.9195 41.4384C87.0458 41.694 86.2961 43.0264 86.5544 43.9216L92.0985 63.1378C92.3568 64.0331 93.6987 64.7535 94.5724 64.4979L125.285 55.5127C126.159 55.2571 126.908 53.9247 126.65 53.0295L121.106 33.8132C120.848 32.918 119.506 32.1976 118.632 32.4532Z" fill="#00812A" stroke="black" stroke-linecap="round" stroke-linejoin="round"/>
<path d="M91.9649 48.7374L94.8596 47.9495C95.5387 47.7646 95.9155 47.9802 96.1207 48.642L97.0092 51.5074C97.2144 52.1691 97.0197 52.5403 96.3405 52.7251L93.4458 53.513C92.7667 53.6979 92.3899 53.4822 92.1847 52.8205L91.2962 49.9551C91.091 49.2934 91.2858 48.9222 91.9649 48.7374Z" fill="#FFECEC"/>
<path d="M91.9649 48.7374L94.8596 47.9495C95.5387 47.7646 95.9155 47.9802 96.1207 48.642L97.0092 51.5074C97.2144 52.1691 97.0197 52.5403 96.3405 52.7251L93.4458 53.513C92.7667 53.6979 92.3899 53.4822 92.1847 52.8205L91.2962 49.9551C91.091 49.2934 91.2858 48.9222 91.9649 48.7374Z" stroke="black" stroke-linecap="round" stroke-linejoin="round"/>
<path d="M94 54L93 49" stroke="black" stroke-linecap="round" stroke-linejoin="round"/>
<path d="M95 53L94 49H96" stroke="black" stroke-linecap="round" stroke-linejoin="round"/>
<path d="M91 50H92" stroke="black" stroke-linecap="round" stroke-linejoin="round"/>
<path d="M92 51H94" stroke="black" stroke-linecap="round" stroke-linejoin="round"/>
<path d="M92 52H93" stroke="black" stroke-linecap="round" stroke-linejoin="round"/>
<path d="M95 50H96" stroke="black" stroke-linecap="round" stroke-linejoin="round"/>
<path d="M95 51H96" stroke="black" stroke-linecap="round" stroke-linejoin="round"/>
<path d="M93 58C92.8649 57.677 92.9198 57.1914 93 57C93.0803 56.8086 93.7086 57.0598 94 57C93.7888 56.8684 94.2914 56.9402 94 57C94.2112 57.1316 94.8691 57.674 95 58C95.1352 58.323 95.0803 58.8086 95 59C94.9198 59.1914 94.2914 58.9402 94 59C93.7086 59.0598 94.2112 59.1316 94 59C93.7888 58.8684 93.1309 58.323 93 58ZM94 57C93.8775 57.0239 94.0127 57.8834 94 58C93.9071 57.7727 93.9873 58.1166 94 58C93.9704 57.9402 94.0296 58.0718 94 58V57C94.0042 57 94 57 94 57C94.1225 56.9731 93.9029 56.9073 94 57ZM94 59C93.8775 59.0269 94.0972 59.0927 94 59C94.1225 58.9761 93.9873 58.1166 94 58C94.0127 57.8834 94.0929 58.2303 94 58C93.9662 57.9133 94.038 58.0658 94 58V59C94 59 93.9873 58.991 94 59Z" fill="#FFECEC"/>
<path d="M93 58C92.8649 57.677 92.9198 57.1914 93 57C93.0803 56.8086 93.7086 57.0598 94 57C94.2914 56.9402 93.7888 56.8684 94 57C94.2112 57.1316 94.8691 57.674 95 58C95.1352 58.323 95.0803 58.8086 95 59C94.9198 59.1914 94.2914 58.9402 94 59C93.7086 59.0598 94.2112 59.1316 94 59C93.7888 58.8684 93.1309 58.323 93 58V58ZM94 57C93.8775 57.0239 94.0127 57.8834 94 58C93.9873 58.1166 93.9071 57.7727 94 58C94.0296 58.0718 93.9704 57.9402 94 58V57C94 57 94.0042 57 94 57C93.9029 56.9073 94.1225 56.9731 94 57V57ZM94 59C94.0972 59.0927 93.8775 59.0269 94 59C94.1225 58.9761 93.9873 58.1166 94 58C94.0127 57.8834 94.0929 58.2303 94 58C93.9662 57.9133 94.038 58.0658 94 58V59C94 59 93.9873 58.991 94 59Z" stroke="black" stroke-width="0.5" stroke-miterlimit="10"/>
<path d="M95 58H96V56L95 57V56H96V57H97V58H96H95Z" fill="#FFECEC"/>
<path d="M95 58H96V56L95 57V56H96V57H97V58H96H95Z" stroke="black" stroke-width="0.5" stroke-miterlimit="10"/>
<path d="M97.0001 57C96.8648 56.677 96.9198 56.1914 97.0001 56C97.0803 55.8086 97.7085 56.0598 98.0001 56C97.7888 55.8684 98.2916 55.9402 98.0001 56C98.2113 56.1316 98.8691 56.674 99.0001 57C99.1311 57.323 99.0803 57.8086 99.0001 58C98.9198 58.1914 98.2916 57.9402 98.0001 58C97.7085 58.0598 98.2113 58.1316 98.0001 58C97.7888 57.8684 97.1311 57.323 97.0001 57ZM98.0001 56C97.8775 56.0239 98.0127 56.8834 98.0001 57C97.9071 56.7727 97.9874 57.1166 98.0001 57C97.9705 56.9432 98.0296 57.0718 98.0001 57V56C98.0043 56 98.0001 56 98.0001 56C98.1226 55.9761 97.9029 55.9073 98.0001 56ZM98.0001 58C97.8775 58.0269 98.0973 58.0927 98.0001 58C98.1226 57.9761 97.9874 57.1166 98.0001 57C98.0127 56.8834 98.093 57.2303 98.0001 57C97.9663 56.9133 98.0381 57.0658 98.0001 57V58C98.0001 58 97.9874 57.991 98.0001 58Z" fill="#FFECEC"/>
<path d="M97.0001 57C96.8648 56.677 96.9198 56.1914 97.0001 56C97.0803 55.8086 97.7085 56.0598 98.0001 56C98.2916 55.9402 97.7888 55.8684 98.0001 56C98.2113 56.1316 98.8691 56.674 99.0001 57C99.1311 57.323 99.0803 57.8086 99.0001 58C98.9198 58.1914 98.2916 57.9402 98.0001 58C97.7085 58.0598 98.2113 58.1316 98.0001 58C97.7888 57.8684 97.1311 57.323 97.0001 57V57ZM98.0001 56C97.8775 56.0239 98.0127 56.8834 98.0001 57C97.9874 57.1166 97.9071 56.7727 98.0001 57C98.0296 57.0718 97.9705 56.9432 98.0001 57V56C98.0001 56 98.0043 56 98.0001 56C97.9029 55.9073 98.1226 55.9761 98.0001 56ZM98.0001 58C98.0973 58.0927 97.8775 58.0269 98.0001 58C98.1226 57.9761 97.9874 57.1166 98.0001 57C98.0127 56.8834 98.093 57.2303 98.0001 57C97.9663 56.9133 98.0381 57.0658 98.0001 57V58C98.0001 58 97.9874 57.991 98.0001 58Z" stroke="black" stroke-width="0.5" stroke-miterlimit="10"/>
<path d="M98 57H99V55L98 56V55H99V56H100V57H99H98Z" fill="#FFECEC"/>
<path d="M98 57H99V55L98 56V55H99V56H100V57H99H98Z" stroke="black" stroke-width="0.5" stroke-miterlimit="10"/>
<path d="M99.9998 56C99.8688 55.677 99.9195 55.1914 99.9998 55C100.08 54.8086 100.708 55.0598 101 55C100.788 54.8684 101.291 54.9402 101 55C101.211 55.1316 101.869 55.674 102 56C102.135 56.323 102.08 56.8086 102 57C101.919 57.1914 101.291 56.9402 101 57C100.708 57.0598 101.211 57.1316 101 57C100.788 56.8684 100.131 56.323 99.9998 56ZM101 55C100.881 55.0239 101.012 55.8834 101 56C100.907 55.7727 100.987 56.1166 101 56C100.97 55.9432 101.029 56.0718 101 56V55C101.004 55 101 55 101 55C101.122 54.9761 100.903 54.9073 101 55ZM101 57C100.877 57.0269 101.097 57.0927 101 57C101.122 56.9761 100.987 56.1166 101 56C101.012 55.8834 101.093 56.2303 101 56C100.966 55.9133 101.038 56.0658 101 56V57C101 57 100.987 56.991 101 57Z" fill="#FFECEC"/>
<path d="M99.9998 56C99.8688 55.677 99.9195 55.1914 99.9998 55C100.08 54.8086 100.708 55.0598 101 55C101.291 54.9402 100.788 54.8684 101 55C101.211 55.1316 101.869 55.674 102 56C102.135 56.323 102.08 56.8086 102 57C101.919 57.1914 101.291 56.9402 101 57C100.708 57.0598 101.211 57.1316 101 57C100.788 56.8684 100.131 56.323 99.9998 56V56ZM101 55C100.881 55.0239 101.012 55.8834 101 56C100.987 56.1166 100.907 55.7727 101 56C101.029 56.0718 100.97 55.9432 101 56V55C101 55 101.004 55 101 55C100.903 54.9073 101.122 54.9761 101 55ZM101 57C101.097 57.0927 100.877 57.0269 101 57C101.122 56.9761 100.987 56.1166 101 56C101.012 55.8834 101.093 56.2303 101 56C100.966 55.9133 101.038 56.0658 101 56V57C101 57 100.987 56.991 101 57Z" stroke="black" stroke-width="0.5" stroke-miterlimit="10"/>
<path d="M102 56H103V54L102 55V54H103V55H104V56H103H102Z" fill="#FFECEC"/>
<path d="M102 56H103V54L102 55V54H103V55H104V56H103H102Z" stroke="black" stroke-width="0.5" stroke-miterlimit="10"/>
<path d="M104 55C103.865 54.677 103.92 54.1914 104 54C104.08 53.8086 104.709 54.0598 105 54C104.789 53.8684 105.291 53.9402 105 54C105.211 54.1316 105.869 54.674 106 55C106.135 55.323 106.08 55.8086 106 56C105.92 56.1914 105.291 55.9402 105 56C104.709 56.0598 105.211 56.1316 105 56C104.789 55.8684 104.131 55.323 104 55ZM105 54C104.878 54.0239 105.013 54.8834 105 55C104.907 54.7727 104.987 55.1166 105 55C104.97 54.9432 105.03 55.0718 105 55V54C105.004 54 105 54 105 54C105.122 53.9761 104.903 53.9073 105 54ZM105 56C104.878 56.0269 105.097 56.0927 105 56C105.122 55.9761 104.987 55.1166 105 55C105.013 54.8834 105.093 55.2303 105 55C104.966 54.9133 105.038 55.0658 105 55V56C105 56 104.987 55.991 105 56Z" fill="#FFECEC"/>
<path d="M104 55C103.865 54.677 103.92 54.1914 104 54C104.08 53.8086 104.709 54.0598 105 54C105.291 53.9402 104.789 53.8684 105 54C105.211 54.1316 105.869 54.674 106 55C106.135 55.323 106.08 55.8086 106 56C105.92 56.1914 105.291 55.9402 105 56C104.709 56.0598 105.211 56.1316 105 56C104.789 55.8684 104.131 55.323 104 55V55ZM105 54C104.878 54.0239 105.013 54.8834 105 55C104.987 55.1166 104.907 54.7727 105 55C105.03 55.0718 104.97 54.9432 105 55V54C105 54 105.004 54 105 54C104.903 53.9073 105.122 53.9761 105 54ZM105 56C105.097 56.0927 104.878 56.0269 105 56C105.122 55.9761 104.987 55.1166 105 55C105.013 54.8834 105.093 55.2303 105 55C104.966 54.9133 105.038 55.0658 105 55V56C105 56 104.987 55.991 105 56Z" stroke="black" stroke-width="0.5" stroke-miterlimit="10"/>
<path d="M105 55H106V53L105 54V53H106V54H107V55H106H105Z" fill="#FFECEC"/>
<path d="M105 55H106V53L105 54V53H106V54H107V55H106H105Z" stroke="black" stroke-width="0.5" stroke-miterlimit="10"/>
<path d="M107 54C106.865 53.677 106.92 53.1914 107 53C107.08 52.8086 107.709 53.0598 108 53C107.789 52.8684 108.291 52.9402 108 53C108.211 53.1316 108.869 53.674 109 54C109.135 54.323 109.08 54.8086 109 55C108.92 55.1914 108.291 54.9402 108 55C107.709 55.0598 108.211 55.1316 108 55C107.789 54.8684 107.131 54.323 107 54ZM108 53C107.882 53.0239 108.013 53.8834 108 54C107.907 53.7727 107.987 54.1166 108 54C107.97 53.9432 108.03 54.0718 108 54V53C108.004 53 108 53 108 53C108.122 52.9761 107.903 52.9073 108 53ZM108 55C107.878 55.0269 108.097 55.0927 108 55C108.122 54.9761 107.987 54.1166 108 54C108.013 53.8834 108.093 54.2303 108 54C107.966 53.9133 108.038 54.0658 108 54V55C108 55 107.987 54.991 108 55Z" fill="#FFECEC"/>
<path d="M107 54C106.865 53.677 106.92 53.1914 107 53C107.08 52.8086 107.709 53.0598 108 53C108.291 52.9402 107.789 52.8684 108 53C108.211 53.1316 108.869 53.674 109 54C109.135 54.323 109.08 54.8086 109 55C108.92 55.1914 108.291 54.9402 108 55C107.709 55.0598 108.211 55.1316 108 55C107.789 54.8684 107.131 54.323 107 54V54ZM108 53C107.882 53.0239 108.013 53.8834 108 54C107.987 54.1166 107.907 53.7727 108 54C108.03 54.0718 107.97 53.9432 108 54V53C108 53 108.004 53 108 53C107.903 52.9073 108.122 52.9761 108 53ZM108 55C108.097 55.0927 107.878 55.0269 108 55C108.122 54.9761 107.987 54.1166 108 54C108.013 53.8834 108.093 54.2303 108 54C107.966 53.9133 108.038 54.0658 108 54V55C108 55 107.987 54.991 108 55Z" stroke="black" stroke-width="0.5" stroke-miterlimit="10"/>
<path d="M109 54H110V52L109 53V52H110V53H111V54H110H109Z" fill="#FFECEC"/>
<path d="M109 54H110V52L109 53V52H110V53H111V54H110H109Z" stroke="black" stroke-width="0.5" stroke-miterlimit="10"/>
<path d="M111 53C110.865 52.677 110.92 52.1914 111 52C111.08 51.8086 111.709 52.0598 112 52C111.789 51.8684 112.291 51.9402 112 52C112.211 52.1316 112.869 52.674 113 53C113.135 53.323 113.08 53.8086 113 54C112.92 54.1914 112.291 53.9402 112 54C111.709 54.0598 112.211 54.1316 112 54C111.789 53.8684 111.131 53.323 111 53ZM112 52C111.878 52.0239 112.013 52.8834 112 53C111.907 52.7727 111.987 53.1166 112 53C111.97 52.9432 112.03 53.0718 112 53V52C112.004 52 112 52 112 52C112.122 51.9761 111.903 51.9073 112 52ZM112 54C111.878 54.0269 112.097 54.0927 112 54C112.122 53.9761 111.987 53.1166 112 53C112.013 52.8834 112.093 53.2303 112 53C111.966 52.9133 112.038 53.0658 112 53V54C112 54 111.987 53.991 112 54Z" fill="#FFECEC"/>
<path d="M111 53C110.865 52.677 110.92 52.1914 111 52C111.08 51.8086 111.709 52.0598 112 52C112.291 51.9402 111.789 51.8684 112 52C112.211 52.1316 112.869 52.674 113 53C113.135 53.323 113.08 53.8086 113 54C112.92 54.1914 112.291 53.9402 112 54C111.709 54.0598 112.211 54.1316 112 54C111.789 53.8684 111.131 53.323 111 53V53ZM112 52C111.878 52.0239 112.013 52.8834 112 53C111.987 53.1166 111.907 52.7727 112 53C112.03 53.0718 111.97 52.9432 112 53V52C112 52 112.004 52 112 52C111.903 51.9073 112.122 51.9761 112 52ZM112 54C112.097 54.0927 111.878 54.0269 112 54C112.122 53.9761 111.987 53.1166 112 53C112.013 52.8834 112.093 53.2303 112 53C111.966 52.9133 112.038 53.0658 112 53V54C112 54 111.987 53.991 112 54Z" stroke="black" stroke-width="0.5" stroke-miterlimit="10"/>
<path d="M112 53H113V51L112 52V51H113V52H114V53H113H112Z" fill="#FFECEC"/>
<path d="M112 53H113V51L112 52V51H113V52H114V53H113H112Z" stroke="black" stroke-width="0.5" stroke-miterlimit="10"/>
<path d="M114 52C113.865 51.677 113.92 51.1914 114 51C114.08 50.8086 114.709 51.0598 115 51C114.789 50.8684 115.291 50.9402 115 51C115.211 51.1316 115.869 51.674 116 52C116.135 52.323 116.08 52.8086 116 53C115.92 53.1914 115.291 52.9402 115 53C114.709 53.0598 115.211 53.1316 115 53C114.789 52.8684 114.131 52.323 114 52ZM115 51C114.878 51.0239 115.013 51.8834 115 52C114.907 51.7727 114.987 52.1166 115 52C114.97 51.9432 115.03 52.0718 115 52V51C115.004 51 115 51 115 51C115.122 50.9761 114.903 50.9073 115 51ZM115 53C114.878 53.0269 115.097 53.0927 115 53C115.122 52.9761 114.987 52.1166 115 52C115.013 51.8834 115.093 52.2303 115 52C114.966 51.9133 115.038 52.0658 115 52V53C115 53 114.987 52.991 115 53Z" fill="#FFECEC"/>
<path d="M114 52C113.865 51.677 113.92 51.1914 114 51C114.08 50.8086 114.709 51.0598 115 51C115.291 50.9402 114.789 50.8684 115 51C115.211 51.1316 115.869 51.674 116 52C116.135 52.323 116.08 52.8086 116 53C115.92 53.1914 115.291 52.9402 115 53C114.709 53.0598 115.211 53.1316 115 53C114.789 52.8684 114.131 52.323 114 52V52ZM115 51C114.878 51.0239 115.013 51.8834 115 52C114.987 52.1166 114.907 51.7727 115 52C115.03 52.0718 114.97 51.9432 115 52V51C115 51 115.004 51 115 51C114.903 50.9073 115.122 50.9761 115 51ZM115 53C115.097 53.0927 114.878 53.0269 115 53C115.122 52.9761 114.987 52.1166 115 52C115.013 51.8834 115.093 52.2303 115 52C114.966 51.9133 115.038 52.0658 115 52V53C115 53 114.987 52.991 115 53Z" stroke="black" stroke-width="0.5" stroke-miterlimit="10"/>
<path d="M116 52H117V50L116 51V50H117V51H118V52H117H116Z" fill="#FFECEC"/>
<path d="M116 52H117V50L116 51V50H117V51H118V52H117H116Z" stroke="black" stroke-width="0.5" stroke-miterlimit="10"/>
<path d="M118 51C117.865 50.677 117.92 50.1914 118 50C118.08 49.8086 118.709 50.0598 119 50C118.789 49.8684 119.291 49.9402 119 50C119.211 50.1316 119.869 50.674 120 51C120.135 51.323 120.08 51.8086 120 52C119.92 52.1914 119.291 51.9402 119 52C118.709 52.0598 119.211 52.1316 119 52C118.789 51.8684 118.131 51.323 118 51ZM119 50C118.878 50.0239 119.013 50.8834 119 51C118.907 50.7727 118.987 51.1166 119 51C118.97 50.9432 119.03 51.0718 119 51V50C119.004 50 119 50 119 50C119.122 49.9761 118.903 49.9073 119 50ZM119 52C118.878 52.0269 119.097 52.0927 119 52C119.122 51.9761 118.987 51.1166 119 51C119.013 50.8834 119.093 51.2303 119 51C118.966 50.9133 119.038 51.0658 119 51V52C119 52 118.987 51.991 119 52Z" fill="#FFECEC"/>
<path d="M118 51C117.865 50.677 117.92 50.1914 118 50C118.08 49.8086 118.709 50.0598 119 50C119.291 49.9402 118.789 49.8684 119 50C119.211 50.1316 119.869 50.674 120 51C120.135 51.323 120.08 51.8086 120 52C119.92 52.1914 119.291 51.9402 119 52C118.709 52.0598 119.211 52.1316 119 52C118.789 51.8684 118.131 51.323 118 51V51ZM119 50C118.878 50.0239 119.013 50.8834 119 51C118.987 51.1166 118.907 50.7727 119 51C119.03 51.0718 118.97 50.9432 119 51V50C119 50 119.004 50 119 50C118.903 49.9073 119.122 49.9761 119 50ZM119 52C119.097 52.0927 118.878 52.0269 119 52C119.122 51.9761 118.987 51.1166 119 51C119.013 50.8834 119.093 51.2303 119 51C118.966 50.9133 119.038 51.0658 119 51V52C119 52 118.987 51.991 119 52Z" stroke="black" stroke-width="0.5" stroke-miterlimit="10"/>
<path d="M119 51H120V49L119 50V49H120V50H121V51H120H119Z" fill="#FFECEC"/>
<path d="M119 51H120V49L119 50V49H120V50H121V51H120H119Z" stroke="black" stroke-width="0.5" stroke-miterlimit="10"/>
<path d="M121 51H122V49L121 50V49H122V50H123V51H122H121Z" fill="#FFECEC"/>
<path d="M121 51H122V49L121 50V49H122V50H123V51H122H121Z" stroke="black" stroke-width="0.5" stroke-miterlimit="10"/>
<path d="M114 38L112 39C111.459 39.1791 111.156 38.625 111 38C110.844 37.3785 111.456 37.1791 112 37L114 36C114.54 35.8209 114.844 36.375 115 37C115.156 37.6215 114.544 37.8209 114 38Z" stroke="black" stroke-linecap="round" stroke-linejoin="round"/>
<path d="M117 37L115 38C114.459 38.1791 114.156 37.625 114 37C113.844 36.3785 114.456 36.1791 115 36L117 35C117.54 34.8209 117.844 35.375 118 36C118.156 36.6215 117.544 36.8209 117 37Z" stroke="black" stroke-linecap="round" stroke-linejoin="round"/>
<path d="M128 23C128 23 126.042 29.0526 124 31C121.957 32.9474 113.096 38.7072 111 41C108.477 43.7568 111.221 46.0517 113 47C114.779 47.9483 116.042 47.8415 121 45C125.957 42.1585 127.89 37.0973 133 36C138.11 34.9027 144.35 35.4274 149 32C153.65 28.5726 155.057 26.3217 155 26" fill="#FFECEC"/>
<path d="M128 23C128 23 126.042 29.0526 124 31C121.957 32.9474 113.096 38.7072 111 41C108.477 43.7568 111.221 46.0517 113 47C114.779 47.9483 116.042 47.8415 121 45C125.957 42.1585 127.89 37.0973 133 36C138.11 34.9027 144.35 35.4274 149 32C153.65 28.5726 155.057 26.3217 155 26" stroke="black" stroke-linecap="round" stroke-linejoin="round"/>
<path d="M116 47C117.963 45.3918 118.354 45.3762 118 45C117.646 44.6238 114 40 114 40C114 40 110.895 40.9888 110 42C109.105 43.0077 110.183 45.5919 112 47C113.817 48.4081 114.629 48.214 115 48" stroke="black" stroke-linecap="round" stroke-linejoin="round"/>
</g>
<defs>
<clipPath id="clip0_163_8842">
<rect width="168" height="168" fill="white"/>
</clipPath>
</defs>
</svg>
